<?xml version="1.0" encoding="UTF-8" standalone="no"?>
<!-- Created with Inkscape (http://www.inkscape.org/) -->

<svg
   xmlns:osb="http://www.openswatchbook.org/uri/2009/osb"
   xmlns:dc="http://purl.org/dc/elements/1.1/"
   xmlns:cc="http://creativecommons.org/ns#"
   xmlns:rdf="http://www.w3.org/1999/02/22-rdf-syntax-ns#"
   xmlns:svg="http://www.w3.org/2000/svg"
   xmlns="http://www.w3.org/2000/svg"
   xmlns:sodipodi="http://sodipodi.sourceforge.net/DTD/sodipodi-0.dtd"
   xmlns:inkscape="http://www.inkscape.org/namespaces/inkscape"
   inkscape:version="0.91 r13725"
   version="1.1"
   id="svg2"
   viewBox="0 0 2402.8573 1757.1429"
   height="495.90475mm"
   width="678.13971mm"
   sodipodi:docname="bg_water.svg"
   inkscape:export-filename="C:\Users\David\Desktop\Files\number-nibbler\assets\image\bg_water.png"
   inkscape:export-xdpi="37.49287"
   inkscape:export-ydpi="37.49287">
  <defs
     id="defs4">
    <marker
       inkscape:stockid="Arrow1Lstart"
       orient="auto"
       refY="0.0"
       refX="0.0"
       id="marker4467"
       style="overflow:visible"
       inkscape:isstock="true">
      <path
         id="path4469"
         d="M 0.0,0.0 L 5.0,-5.0 L -12.5,0.0 L 5.0,5.0 L 0.0,0.0 z "
         style="fill-rule:evenodd;stroke:#9ef1ff;stroke-width:1pt;stroke-opacity:1;fill:#9ef1ff;fill-opacity:1"
         transform="scale(0.8) translate(12.5,0)" />
    </marker>
    <marker
       inkscape:stockid="Arrow1Lstart"
       orient="auto"
       refY="0.0"
       refX="0.0"
       id="Arrow1Lstart"
       style="overflow:visible"
       inkscape:isstock="true">
      <path
         id="path4197"
         d="M 0.0,0.0 L 5.0,-5.0 L -12.5,0.0 L 5.0,5.0 L 0.0,0.0 z "
         style="fill-rule:evenodd;stroke:#9ef1ff;stroke-width:1pt;stroke-opacity:1;fill:#9ef1ff;fill-opacity:1"
         transform="scale(0.8) translate(12.5,0)" />
    </marker>
    <linearGradient
       id="linearGradient4163"
       osb:paint="gradient">
      <stop
         style="stop-color:#33ffff;stop-opacity:1;"
         offset="0"
         id="stop4165" />
      <stop
         style="stop-color:#33ffff;stop-opacity:0;"
         offset="1"
         id="stop4167" />
    </linearGradient>
  </defs>
  <sodipodi:namedview
     inkscape:window-maximized="1"
     inkscape:window-y="-8"
     inkscape:window-x="-8"
     inkscape:window-height="1017"
     inkscape:window-width="1920"
     showgrid="false"
     inkscape:current-layer="layer1"
     inkscape:document-units="px"
     inkscape:cy="1022.3458"
     inkscape:cx="862.85739"
     inkscape:zoom="0.24748737"
     inkscape:pageshadow="2"
     inkscape:pageopacity="0.0"
     borderopacity="1.0"
     bordercolor="#666666"
     pagecolor="#ffffff"
     id="base"
     fit-margin-top="0"
     fit-margin-left="0"
     fit-margin-right="0"
     fit-margin-bottom="0" />
  <metadata
     id="metadata7">
    <rdf:RDF>
      <cc:Work
         rdf:about="">
        <dc:format>image/svg+xml</dc:format>
        <dc:type
           rdf:resource="http://purl.org/dc/dcmitype/StillImage" />
        <dc:title />
      </cc:Work>
    </rdf:RDF>
  </metadata>
  <g
     inkscape:label="Layer 1"
     inkscape:groupmode="layer"
     id="layer1"
     transform="translate(752.08716,325.06781)">
    <rect
       style="fill:#4cdbff;fill-opacity:1;stroke:none;stroke-width:10;stroke-miterlimit:4;stroke-dasharray:none;stroke-opacity:1"
       id="rect3336"
       width="2402.8572"
       height="1757.1428"
       x="-751.72021"
       y="-324.7009"
       inkscape:export-xdpi="37.49287"
       inkscape:export-ydpi="37.49287" />
    <g
       id="g5036"
       style="fill:#95eaff;fill-opacity:1;stroke:none"
       transform="translate(-0.31628097,0)">
      <path
         inkscape:connector-curvature="0"
         d="m -629.75005,-215.99873 c 5.9707,-0.87616 5.47374,-0.64446 12.5262,-2.66206 3.58463,-1.02551 7.06783,-2.3991 10.67846,-3.32891 17.50984,-4.50911 35.70177,-6.66991 53.51368,-9.5785 46.7967,-5.83932 94.14772,-10.62172 141.38402,-9.65485 9.14847,0.18726 18.27774,0.918 27.41661,1.37699 40.38608,1.67802 76.91992,18.50055 114.562,31.08241 31.26063,9.4653 64.07657,10.5673 96.45557,12.07194 0,0 -43.58506,31.40235 -43.58506,31.40235 l 0,0 c -33.37507,-1.11098 -67.31504,-1.54951 -99.38577,-12.01408 -36.28071,-13.26548 -71.9599,-29.26638 -111.13786,-31.59251 -8.86119,-0.52304 -17.70916,-1.37113 -26.58355,-1.56913 -47.75366,-1.06543 -95.59286,4.61807 -142.7081,11.72591 -27.03166,5.00726 -54.44474,9.70471 -79.99458,20.22271 0,0 46.85838,-37.48227 46.85838,-37.48227 z"
         id="path5026"
         style="fill:#95eaff;fill-opacity:1;stroke:none;stroke-width:4.5;stroke-linejoin:miter;stroke-miterlimit:4;stroke-dasharray:none;stroke-dashoffset:0;stroke-opacity:1" />
      <path
         style="fill:#95eaff;fill-opacity:1;stroke:none;stroke-width:4.5;stroke-linejoin:miter;stroke-miterlimit:4;stroke-dasharray:none;stroke-dashoffset:0;stroke-opacity:1"
         id="path5032"
         d="m 1002.6567,-240.24239 c 5.9707,-0.87616 5.4737,-0.64446 12.5262,-2.66206 3.5846,-1.02551 7.0678,-2.3991 10.6784,-3.32891 17.5098,-4.50911 35.7018,-6.66991 53.5137,-9.5785 46.7967,-5.83932 94.1477,-10.62172 141.384,-9.65485 9.1485,0.18726 18.2777,0.918 27.4166,1.37699 40.3861,1.67802 76.9199,18.50055 114.562,31.08241 31.2606,9.4653 64.0766,10.5673 96.4556,12.07194 0,0 -43.5851,31.40235 -43.5851,31.40235 l 0,0 c -33.375,-1.11098 -67.315,-1.54951 -99.3857,-12.01408 -36.2808,-13.26548 -71.9599,-29.26638 -111.1379,-31.59251 -8.8612,-0.52304 -17.7092,-1.37113 -26.5836,-1.56913 -47.7536,-1.06543 -95.5928,4.61807 -142.708,11.72591 -27.0317,5.00726 -54.44478,9.70471 -79.99462,20.22271 0,0 46.85842,-37.48227 46.85842,-37.48227 z"
         inkscape:connector-curvature="0" />
      <path
         inkscape:connector-curvature="0"
         d="m 162.20964,-191.75507 c 5.9707,-0.87616 5.47374,-0.64446 12.5262,-2.66206 3.58463,-1.02551 7.06783,-2.3991 10.67846,-3.32891 17.50984,-4.50911 35.70177,-6.66991 53.51368,-9.5785 46.7967,-5.83932 94.14772,-10.62172 141.38402,-9.65485 9.14847,0.18726 18.27774,0.918 27.41661,1.37699 40.38608,1.67802 76.91992,18.50055 114.562,31.08241 31.26063,9.4653 64.07657,10.5673 96.45557,12.07194 0,0 -43.58506,31.40235 -43.58506,31.40235 l 0,0 c -33.37507,-1.11098 -67.31504,-1.54951 -99.38577,-12.01408 -36.28071,-13.26548 -71.9599,-29.26638 -111.13786,-31.59251 -8.86119,-0.52304 -17.70916,-1.37113 -26.58355,-1.56913 -47.75366,-1.06543 -95.59286,4.61807 -142.7081,11.72591 -27.03166,5.00726 -54.44474,9.70471 -79.99458,20.22271 0,0 46.85838,-37.48227 46.85838,-37.48227 z"
         id="path5034"
         style="fill:#95eaff;fill-opacity:1;stroke:none;stroke-width:4.5;stroke-linejoin:miter;stroke-miterlimit:4;stroke-dasharray:none;stroke-dashoffset:0;stroke-opacity:1" />
    </g>
    <g
       id="g5041"
       transform="translate(265.82084,234.35542)"
       style="fill:#95eaff;fill-opacity:1;stroke:none">
      <path
         style="fill:#95eaff;fill-opacity:1;stroke:none;stroke-width:4.5;stroke-linejoin:miter;stroke-miterlimit:4;stroke-dasharray:none;stroke-dashoffset:0;stroke-opacity:1"
         id="path5043"
         d="m -629.75005,-215.99873 c 5.9707,-0.87616 5.47374,-0.64446 12.5262,-2.66206 3.58463,-1.02551 7.06783,-2.3991 10.67846,-3.32891 17.50984,-4.50911 35.70177,-6.66991 53.51368,-9.5785 46.7967,-5.83932 94.14772,-10.62172 141.38402,-9.65485 9.14847,0.18726 18.27774,0.918 27.41661,1.37699 40.38608,1.67802 76.91992,18.50055 114.562,31.08241 31.26063,9.4653 64.07657,10.5673 96.45557,12.07194 0,0 -43.58506,31.40235 -43.58506,31.40235 l 0,0 c -33.37507,-1.11098 -67.31504,-1.54951 -99.38577,-12.01408 -36.28071,-13.26548 -71.9599,-29.26638 -111.13786,-31.59251 -8.86119,-0.52304 -17.70916,-1.37113 -26.58355,-1.56913 -47.75366,-1.06543 -95.59286,4.61807 -142.7081,11.72591 -27.03166,5.00726 -54.44474,9.70471 -79.99458,20.22271 0,0 46.85838,-37.48227 46.85838,-37.48227 z"
         inkscape:connector-curvature="0" />
      <path
         inkscape:connector-curvature="0"
         d="m 1002.6567,-240.24239 c 5.9707,-0.87616 5.4737,-0.64446 12.5262,-2.66206 3.5846,-1.02551 7.0678,-2.3991 10.6784,-3.32891 17.5098,-4.50911 35.7018,-6.66991 53.5137,-9.5785 46.7967,-5.83932 94.1477,-10.62172 141.384,-9.65485 9.1485,0.18726 18.2777,0.918 27.4166,1.37699 40.3861,1.67802 76.9199,18.50055 114.562,31.08241 31.2606,9.4653 64.0766,10.5673 96.4556,12.07194 0,0 -43.5851,31.40235 -43.5851,31.40235 l 0,0 c -33.375,-1.11098 -67.315,-1.54951 -99.3857,-12.01408 -36.2808,-13.26548 -71.9599,-29.26638 -111.1379,-31.59251 -8.8612,-0.52304 -17.7092,-1.37113 -26.5836,-1.56913 -47.7536,-1.06543 -95.5928,4.61807 -142.708,11.72591 -27.0317,5.00726 -54.44478,9.70471 -79.99462,20.22271 0,0 46.85842,-37.48227 46.85842,-37.48227 z"
         id="path5045"
         style="fill:#95eaff;fill-opacity:1;stroke:none;stroke-width:4.5;stroke-linejoin:miter;stroke-miterlimit:4;stroke-dasharray:none;stroke-dashoffset:0;stroke-opacity:1" />
      <path
         style="fill:#95eaff;fill-opacity:1;stroke:none;stroke-width:4.5;stroke-linejoin:miter;stroke-miterlimit:4;stroke-dasharray:none;stroke-dashoffset:0;stroke-opacity:1"
         id="path5047"
         d="m 162.20964,-191.75507 c 5.9707,-0.87616 5.47374,-0.64446 12.5262,-2.66206 3.58463,-1.02551 7.06783,-2.3991 10.67846,-3.32891 17.50984,-4.50911 35.70177,-6.66991 53.51368,-9.5785 46.7967,-5.83932 94.14772,-10.62172 141.38402,-9.65485 9.14847,0.18726 18.27774,0.918 27.41661,1.37699 40.38608,1.67802 76.91992,18.50055 114.562,31.08241 31.26063,9.4653 64.07657,10.5673 96.45557,12.07194 0,0 -43.58506,31.40235 -43.58506,31.40235 l 0,0 c -33.37507,-1.11098 -67.31504,-1.54951 -99.38577,-12.01408 -36.28071,-13.26548 -71.9599,-29.26638 -111.13786,-31.59251 -8.86119,-0.52304 -17.70916,-1.37113 -26.58355,-1.56913 -47.75366,-1.06543 -95.59286,4.61807 -142.7081,11.72591 -27.03166,5.00726 -54.44474,9.70471 -79.99458,20.22271 0,0 46.85838,-37.48227 46.85838,-37.48227 z"
         inkscape:connector-curvature="0" />
    </g>
    <g
       transform="translate(7.7649405,476.79206)"
       id="g5049"
       style="fill:#95eaff;fill-opacity:1;stroke:none">
      <path
         inkscape:connector-curvature="0"
         d="m -629.75005,-215.99873 c 5.9707,-0.87616 5.47374,-0.64446 12.5262,-2.66206 3.58463,-1.02551 7.06783,-2.3991 10.67846,-3.32891 17.50984,-4.50911 35.70177,-6.66991 53.51368,-9.5785 46.7967,-5.83932 94.14772,-10.62172 141.38402,-9.65485 9.14847,0.18726 18.27774,0.918 27.41661,1.37699 40.38608,1.67802 76.91992,18.50055 114.562,31.08241 31.26063,9.4653 64.07657,10.5673 96.45557,12.07194 0,0 -43.58506,31.40235 -43.58506,31.40235 l 0,0 c -33.37507,-1.11098 -67.31504,-1.54951 -99.38577,-12.01408 -36.28071,-13.26548 -71.9599,-29.26638 -111.13786,-31.59251 -8.86119,-0.52304 -17.70916,-1.37113 -26.58355,-1.56913 -47.75366,-1.06543 -95.59286,4.61807 -142.7081,11.72591 -27.03166,5.00726 -54.44474,9.70471 -79.99458,20.22271 0,0 46.85838,-37.48227 46.85838,-37.48227 z"
         id="path5051"
         style="fill:#95eaff;fill-opacity:1;stroke:none;stroke-width:4.5;stroke-linejoin:miter;stroke-miterlimit:4;stroke-dasharray:none;stroke-dashoffset:0;stroke-opacity:1" />
      <path
         style="fill:#95eaff;fill-opacity:1;stroke:none;stroke-width:4.5;stroke-linejoin:miter;stroke-miterlimit:4;stroke-dasharray:none;stroke-dashoffset:0;stroke-opacity:1"
         id="path5053"
         d="m 1002.6567,-240.24239 c 5.9707,-0.87616 5.4737,-0.64446 12.5262,-2.66206 3.5846,-1.02551 7.0678,-2.3991 10.6784,-3.32891 17.5098,-4.50911 35.7018,-6.66991 53.5137,-9.5785 46.7967,-5.83932 94.1477,-10.62172 141.384,-9.65485 9.1485,0.18726 18.2777,0.918 27.4166,1.37699 40.3861,1.67802 76.9199,18.50055 114.562,31.08241 31.2606,9.4653 64.0766,10.5673 96.4556,12.07194 0,0 -43.5851,31.40235 -43.5851,31.40235 l 0,0 c -33.375,-1.11098 -67.315,-1.54951 -99.3857,-12.01408 -36.2808,-13.26548 -71.9599,-29.26638 -111.1379,-31.59251 -8.8612,-0.52304 -17.7092,-1.37113 -26.5836,-1.56913 -47.7536,-1.06543 -95.5928,4.61807 -142.708,11.72591 -27.0317,5.00726 -54.44478,9.70471 -79.99462,20.22271 0,0 46.85842,-37.48227 46.85842,-37.48227 z"
         inkscape:connector-curvature="0" />
      <path
         inkscape:connector-curvature="0"
         d="m 162.20964,-191.75507 c 5.9707,-0.87616 5.47374,-0.64446 12.5262,-2.66206 3.58463,-1.02551 7.06783,-2.3991 10.67846,-3.32891 17.50984,-4.50911 35.70177,-6.66991 53.51368,-9.5785 46.7967,-5.83932 94.14772,-10.62172 141.38402,-9.65485 9.14847,0.18726 18.27774,0.918 27.41661,1.37699 40.38608,1.67802 76.91992,18.50055 114.562,31.08241 31.26063,9.4653 64.07657,10.5673 96.45557,12.07194 0,0 -43.58506,31.40235 -43.58506,31.40235 l 0,0 c -33.37507,-1.11098 -67.31504,-1.54951 -99.38577,-12.01408 -36.28071,-13.26548 -71.9599,-29.26638 -111.13786,-31.59251 -8.86119,-0.52304 -17.70916,-1.37113 -26.58355,-1.56913 -47.75366,-1.06543 -95.59286,4.61807 -142.7081,11.72591 -27.03166,5.00726 -54.44474,9.70471 -79.99458,20.22271 0,0 46.85838,-37.48227 46.85838,-37.48227 z"
         id="path5055"
         style="fill:#95eaff;fill-opacity:1;stroke:none;stroke-width:4.5;stroke-linejoin:miter;stroke-miterlimit:4;stroke-dasharray:none;stroke-dashoffset:0;stroke-opacity:1" />
    </g>
    <g
       id="g5057"
       transform="translate(265.82085,1244.5081)"
       style="fill:#95eaff;fill-opacity:1;stroke:none">
      <path
         style="fill:#95eaff;fill-opacity:1;stroke:none;stroke-width:4.5;stroke-linejoin:miter;stroke-miterlimit:4;stroke-dasharray:none;stroke-dashoffset:0;stroke-opacity:1"
         id="path5059"
         d="m -629.75005,-215.99873 c 5.9707,-0.87616 5.47374,-0.64446 12.5262,-2.66206 3.58463,-1.02551 7.06783,-2.3991 10.67846,-3.32891 17.50984,-4.50911 35.70177,-6.66991 53.51368,-9.5785 46.7967,-5.83932 94.14772,-10.62172 141.38402,-9.65485 9.14847,0.18726 18.27774,0.918 27.41661,1.37699 40.38608,1.67802 76.91992,18.50055 114.562,31.08241 31.26063,9.4653 64.07657,10.5673 96.45557,12.07194 0,0 -43.58506,31.40235 -43.58506,31.40235 l 0,0 c -33.37507,-1.11098 -67.31504,-1.54951 -99.38577,-12.01408 -36.28071,-13.26548 -71.9599,-29.26638 -111.13786,-31.59251 -8.86119,-0.52304 -17.70916,-1.37113 -26.58355,-1.56913 -47.75366,-1.06543 -95.59286,4.61807 -142.7081,11.72591 -27.03166,5.00726 -54.44474,9.70471 -79.99458,20.22271 0,0 46.85838,-37.48227 46.85838,-37.48227 z"
         inkscape:connector-curvature="0" />
      <path
         inkscape:connector-curvature="0"
         d="m 1002.6567,-240.24239 c 5.9707,-0.87616 5.4737,-0.64446 12.5262,-2.66206 3.5846,-1.02551 7.0678,-2.3991 10.6784,-3.32891 17.5098,-4.50911 35.7018,-6.66991 53.5137,-9.5785 46.7967,-5.83932 94.1477,-10.62172 141.384,-9.65485 9.1485,0.18726 18.2777,0.918 27.4166,1.37699 40.3861,1.67802 76.9199,18.50055 114.562,31.08241 31.2606,9.4653 64.0766,10.5673 96.4556,12.07194 0,0 -43.5851,31.40235 -43.5851,31.40235 l 0,0 c -33.375,-1.11098 -67.315,-1.54951 -99.3857,-12.01408 -36.2808,-13.26548 -71.9599,-29.26638 -111.1379,-31.59251 -8.8612,-0.52304 -17.7092,-1.37113 -26.5836,-1.56913 -47.7536,-1.06543 -95.5928,4.61807 -142.708,11.72591 -27.0317,5.00726 -54.44478,9.70471 -79.99462,20.22271 0,0 46.85842,-37.48227 46.85842,-37.48227 z"
         id="path5061"
         style="fill:#95eaff;fill-opacity:1;stroke:none;stroke-width:4.5;stroke-linejoin:miter;stroke-miterlimit:4;stroke-dasharray:none;stroke-dashoffset:0;stroke-opacity:1" />
      <path
         style="fill:#95eaff;fill-opacity:1;stroke:none;stroke-width:4.5;stroke-linejoin:miter;stroke-miterlimit:4;stroke-dasharray:none;stroke-dashoffset:0;stroke-opacity:1"
         id="path5063"
         d="m 162.20964,-191.75507 c 5.9707,-0.87616 5.47374,-0.64446 12.5262,-2.66206 3.58463,-1.02551 7.06783,-2.3991 10.67846,-3.32891 17.50984,-4.50911 35.70177,-6.66991 53.51368,-9.5785 46.7967,-5.83932 94.14772,-10.62172 141.38402,-9.65485 9.14847,0.18726 18.27774,0.918 27.41661,1.37699 40.38608,1.67802 76.91992,18.50055 114.562,31.08241 31.26063,9.4653 64.07657,10.5673 96.45557,12.07194 0,0 -43.58506,31.40235 -43.58506,31.40235 l 0,0 c -33.37507,-1.11098 -67.31504,-1.54951 -99.38577,-12.01408 -36.28071,-13.26548 -71.9599,-29.26638 -111.13786,-31.59251 -8.86119,-0.52304 -17.70916,-1.37113 -26.58355,-1.56913 -47.75366,-1.06543 -95.59286,4.61807 -142.7081,11.72591 -27.03166,5.00726 -54.44474,9.70471 -79.99458,20.22271 0,0 46.85838,-37.48227 46.85838,-37.48227 z"
         inkscape:connector-curvature="0" />
    </g>
    <g
       transform="translate(-16.478723,985.909)"
       id="g5065"
       style="fill:#95eaff;fill-opacity:1;stroke:none">
      <path
         inkscape:connector-curvature="0"
         d="m -629.75005,-215.99873 c 5.9707,-0.87616 5.47374,-0.64446 12.5262,-2.66206 3.58463,-1.02551 7.06783,-2.3991 10.67846,-3.32891 17.50984,-4.50911 35.70177,-6.66991 53.51368,-9.5785 46.7967,-5.83932 94.14772,-10.62172 141.38402,-9.65485 9.14847,0.18726 18.27774,0.918 27.41661,1.37699 40.38608,1.67802 76.91992,18.50055 114.562,31.08241 31.26063,9.4653 64.07657,10.5673 96.45557,12.07194 0,0 -43.58506,31.40235 -43.58506,31.40235 l 0,0 c -33.37507,-1.11098 -67.31504,-1.54951 -99.38577,-12.01408 -36.28071,-13.26548 -71.9599,-29.26638 -111.13786,-31.59251 -8.86119,-0.52304 -17.70916,-1.37113 -26.58355,-1.56913 -47.75366,-1.06543 -95.59286,4.61807 -142.7081,11.72591 -27.03166,5.00726 -54.44474,9.70471 -79.99458,20.22271 0,0 46.85838,-37.48227 46.85838,-37.48227 z"
         id="path5067"
         style="fill:#95eaff;fill-opacity:1;stroke:none;stroke-width:4.5;stroke-linejoin:miter;stroke-miterlimit:4;stroke-dasharray:none;stroke-dashoffset:0;stroke-opacity:1" />
      <path
         style="fill:#95eaff;fill-opacity:1;stroke:none;stroke-width:4.5;stroke-linejoin:miter;stroke-miterlimit:4;stroke-dasharray:none;stroke-dashoffset:0;stroke-opacity:1"
         id="path5069"
         d="m 1002.6567,-240.24239 c 5.9707,-0.87616 5.4737,-0.64446 12.5262,-2.66206 3.5846,-1.02551 7.0678,-2.3991 10.6784,-3.32891 17.5098,-4.50911 35.7018,-6.66991 53.5137,-9.5785 46.7967,-5.83932 94.1477,-10.62172 141.384,-9.65485 9.1485,0.18726 18.2777,0.918 27.4166,1.37699 40.3861,1.67802 76.9199,18.50055 114.562,31.08241 31.2606,9.4653 64.0766,10.5673 96.4556,12.07194 0,0 -43.5851,31.40235 -43.5851,31.40235 l 0,0 c -33.375,-1.11098 -67.315,-1.54951 -99.3857,-12.01408 -36.2808,-13.26548 -71.9599,-29.26638 -111.1379,-31.59251 -8.8612,-0.52304 -17.7092,-1.37113 -26.5836,-1.56913 -47.7536,-1.06543 -95.5928,4.61807 -142.708,11.72591 -27.0317,5.00726 -54.44478,9.70471 -79.99462,20.22271 0,0 46.85842,-37.48227 46.85842,-37.48227 z"
         inkscape:connector-curvature="0" />
      <path
         inkscape:connector-curvature="0"
         d="m 162.20964,-191.75507 c 5.9707,-0.87616 5.47374,-0.64446 12.5262,-2.66206 3.58463,-1.02551 7.06783,-2.3991 10.67846,-3.32891 17.50984,-4.50911 35.70177,-6.66991 53.51368,-9.5785 46.7967,-5.83932 94.14772,-10.62172 141.38402,-9.65485 9.14847,0.18726 18.27774,0.918 27.41661,1.37699 40.38608,1.67802 76.91992,18.50055 114.562,31.08241 31.26063,9.4653 64.07657,10.5673 96.45557,12.07194 0,0 -43.58506,31.40235 -43.58506,31.40235 l 0,0 c -33.37507,-1.11098 -67.31504,-1.54951 -99.38577,-12.01408 -36.28071,-13.26548 -71.9599,-29.26638 -111.13786,-31.59251 -8.86119,-0.52304 -17.70916,-1.37113 -26.58355,-1.56913 -47.75366,-1.06543 -95.59286,4.61807 -142.7081,11.72591 -27.03166,5.00726 -54.44474,9.70471 -79.99458,20.22271 0,0 46.85838,-37.48227 46.85838,-37.48227 z"
         id="path5071"
         style="fill:#95eaff;fill-opacity:1;stroke:none;stroke-width:4.5;stroke-linejoin:miter;stroke-miterlimit:4;stroke-dasharray:none;stroke-dashoffset:0;stroke-opacity:1" />
    </g>
    <g
       id="g5073"
       transform="translate(273.90206,735.39118)"
       style="fill:#95eaff;fill-opacity:1;stroke:none">
      <path
         style="fill:#95eaff;fill-opacity:1;stroke:none;stroke-width:4.5;stroke-linejoin:miter;stroke-miterlimit:4;stroke-dasharray:none;stroke-dashoffset:0;stroke-opacity:1"
         id="path5075"
         d="m -629.75005,-215.99873 c 5.9707,-0.87616 5.47374,-0.64446 12.5262,-2.66206 3.58463,-1.02551 7.06783,-2.3991 10.67846,-3.32891 17.50984,-4.50911 35.70177,-6.66991 53.51368,-9.5785 46.7967,-5.83932 94.14772,-10.62172 141.38402,-9.65485 9.14847,0.18726 18.27774,0.918 27.41661,1.37699 40.38608,1.67802 76.91992,18.50055 114.562,31.08241 31.26063,9.4653 64.07657,10.5673 96.45557,12.07194 0,0 -43.58506,31.40235 -43.58506,31.40235 l 0,0 c -33.37507,-1.11098 -67.31504,-1.54951 -99.38577,-12.01408 -36.28071,-13.26548 -71.9599,-29.26638 -111.13786,-31.59251 -8.86119,-0.52304 -17.70916,-1.37113 -26.58355,-1.56913 -47.75366,-1.06543 -95.59286,4.61807 -142.7081,11.72591 -27.03166,5.00726 -54.44474,9.70471 -79.99458,20.22271 0,0 46.85838,-37.48227 46.85838,-37.48227 z"
         inkscape:connector-curvature="0" />
      <path
         inkscape:connector-curvature="0"
         d="m 1002.6567,-240.24239 c 5.9707,-0.87616 5.4737,-0.64446 12.5262,-2.66206 3.5846,-1.02551 7.0678,-2.3991 10.6784,-3.32891 17.5098,-4.50911 35.7018,-6.66991 53.5137,-9.5785 46.7967,-5.83932 94.1477,-10.62172 141.384,-9.65485 9.1485,0.18726 18.2777,0.918 27.4166,1.37699 40.3861,1.67802 76.9199,18.50055 114.562,31.08241 31.2606,9.4653 64.0766,10.5673 96.4556,12.07194 0,0 -43.5851,31.40235 -43.5851,31.40235 l 0,0 c -33.375,-1.11098 -67.315,-1.54951 -99.3857,-12.01408 -36.2808,-13.26548 -71.9599,-29.26638 -111.1379,-31.59251 -8.8612,-0.52304 -17.7092,-1.37113 -26.5836,-1.56913 -47.7536,-1.06543 -95.5928,4.61807 -142.708,11.72591 -27.0317,5.00726 -54.44478,9.70471 -79.99462,20.22271 0,0 46.85842,-37.48227 46.85842,-37.48227 z"
         id="path5077"
         style="fill:#95eaff;fill-opacity:1;stroke:none;stroke-width:4.5;stroke-linejoin:miter;stroke-miterlimit:4;stroke-dasharray:none;stroke-dashoffset:0;stroke-opacity:1" />
      <path
         style="fill:#95eaff;fill-opacity:1;stroke:none;stroke-width:4.5;stroke-linejoin:miter;stroke-miterlimit:4;stroke-dasharray:none;stroke-dashoffset:0;stroke-opacity:1"
         id="path5079"
         d="m 162.20964,-191.75507 c 5.9707,-0.87616 5.47374,-0.64446 12.5262,-2.66206 3.58463,-1.02551 7.06783,-2.3991 10.67846,-3.32891 17.50984,-4.50911 35.70177,-6.66991 53.51368,-9.5785 46.7967,-5.83932 94.14772,-10.62172 141.38402,-9.65485 9.14847,0.18726 18.27774,0.918 27.41661,1.37699 40.38608,1.67802 76.91992,18.50055 114.562,31.08241 31.26063,9.4653 64.07657,10.5673 96.45557,12.07194 0,0 -43.58506,31.40235 -43.58506,31.40235 l 0,0 c -33.37507,-1.11098 -67.31504,-1.54951 -99.38577,-12.01408 -36.28071,-13.26548 -71.9599,-29.26638 -111.13786,-31.59251 -8.86119,-0.52304 -17.70916,-1.37113 -26.58355,-1.56913 -47.75366,-1.06543 -95.59286,4.61807 -142.7081,11.72591 -27.03166,5.00726 -54.44474,9.70471 -79.99458,20.22271 0,0 46.85838,-37.48227 46.85838,-37.48227 z"
         inkscape:connector-curvature="0" />
    </g>
    <g
       transform="translate(15.846157,1503.1072)"
       id="g5081"
       style="fill:#95eaff;fill-opacity:1;stroke:none">
      <path
         inkscape:connector-curvature="0"
         d="m -629.75005,-215.99873 c 5.9707,-0.87616 5.47374,-0.64446 12.5262,-2.66206 3.58463,-1.02551 7.06783,-2.3991 10.67846,-3.32891 17.50984,-4.50911 35.70177,-6.66991 53.51368,-9.5785 46.7967,-5.83932 94.14772,-10.62172 141.38402,-9.65485 9.14847,0.18726 18.27774,0.918 27.41661,1.37699 40.38608,1.67802 76.91992,18.50055 114.562,31.08241 31.26063,9.4653 64.07657,10.5673 96.45557,12.07194 0,0 -43.58506,31.40235 -43.58506,31.40235 l 0,0 c -33.37507,-1.11098 -67.31504,-1.54951 -99.38577,-12.01408 -36.28071,-13.26548 -71.9599,-29.26638 -111.13786,-31.59251 -8.86119,-0.52304 -17.70916,-1.37113 -26.58355,-1.56913 -47.75366,-1.06543 -95.59286,4.61807 -142.7081,11.72591 -27.03166,5.00726 -54.44474,9.70471 -79.99458,20.22271 0,0 46.85838,-37.48227 46.85838,-37.48227 z"
         id="path5083"
         style="fill:#95eaff;fill-opacity:1;stroke:none;stroke-width:4.5;stroke-linejoin:miter;stroke-miterlimit:4;stroke-dasharray:none;stroke-dashoffset:0;stroke-opacity:1" />
      <path
         style="fill:#95eaff;fill-opacity:1;stroke:none;stroke-width:4.5;stroke-linejoin:miter;stroke-miterlimit:4;stroke-dasharray:none;stroke-dashoffset:0;stroke-opacity:1"
         id="path5085"
         d="m 1002.6567,-240.24239 c 5.9707,-0.87616 5.4737,-0.64446 12.5262,-2.66206 3.5846,-1.02551 7.0678,-2.3991 10.6784,-3.32891 17.5098,-4.50911 35.7018,-6.66991 53.5137,-9.5785 46.7967,-5.83932 94.1477,-10.62172 141.384,-9.65485 9.1485,0.18726 18.2777,0.918 27.4166,1.37699 40.3861,1.67802 76.9199,18.50055 114.562,31.08241 31.2606,9.4653 64.0766,10.5673 96.4556,12.07194 0,0 -43.5851,31.40235 -43.5851,31.40235 l 0,0 c -33.375,-1.11098 -67.315,-1.54951 -99.3857,-12.01408 -36.2808,-13.26548 -71.9599,-29.26638 -111.1379,-31.59251 -8.8612,-0.52304 -17.7092,-1.37113 -26.5836,-1.56913 -47.7536,-1.06543 -95.5928,4.61807 -142.708,11.72591 -27.0317,5.00726 -54.44478,9.70471 -79.99462,20.22271 0,0 46.85842,-37.48227 46.85842,-37.48227 z"
         inkscape:connector-curvature="0" />
      <path
         inkscape:connector-curvature="0"
         d="m 162.20964,-191.75507 c 5.9707,-0.87616 5.47374,-0.64446 12.5262,-2.66206 3.58463,-1.02551 7.06783,-2.3991 10.67846,-3.32891 17.50984,-4.50911 35.70177,-6.66991 53.51368,-9.5785 46.7967,-5.83932 94.14772,-10.62172 141.38402,-9.65485 9.14847,0.18726 18.27774,0.918 27.41661,1.37699 40.38608,1.67802 76.91992,18.50055 114.562,31.08241 31.26063,9.4653 64.07657,10.5673 96.45557,12.07194 0,0 -43.58506,31.40235 -43.58506,31.40235 l 0,0 c -33.37507,-1.11098 -67.31504,-1.54951 -99.38577,-12.01408 -36.28071,-13.26548 -71.9599,-29.26638 -111.13786,-31.59251 -8.86119,-0.52304 -17.70916,-1.37113 -26.58355,-1.56913 -47.75366,-1.06543 -95.59286,4.61807 -142.7081,11.72591 -27.03166,5.00726 -54.44474,9.70471 -79.99458,20.22271 0,0 46.85838,-37.48227 46.85838,-37.48227 z"
         id="path5087"
         style="fill:#95eaff;fill-opacity:1;stroke:none;stroke-width:4.5;stroke-linejoin:miter;stroke-miterlimit:4;stroke-dasharray:none;stroke-dashoffset:0;stroke-opacity:1" />
    </g>
  </g>
</svg>
