<?xml version="1.0" encoding="UTF-8" standalone="no"?>
<!-- Created with Inkscape (http://www.inkscape.org/) -->

<svg
   xmlns:osb="http://www.openswatchbook.org/uri/2009/osb"
   xmlns:dc="http://purl.org/dc/elements/1.1/"
   xmlns:cc="http://creativecommons.org/ns#"
   xmlns:rdf="http://www.w3.org/1999/02/22-rdf-syntax-ns#"
   xmlns:svg="http://www.w3.org/2000/svg"
   xmlns="http://www.w3.org/2000/svg"
   xmlns:sodipodi="http://sodipodi.sourceforge.net/DTD/sodipodi-0.dtd"
   xmlns:inkscape="http://www.inkscape.org/namespaces/inkscape"
   width="758.27264mm"
   height="113.40179mm"
   viewBox="0 0 2686.7929 401.81738"
   id="svg2"
   version="1.1"
   inkscape:version="0.91 r13725"
   sodipodi:docname="defeat.svg"
   inkscape:export-filename="C:\Users\david_000\Desktop\Files\number-nibbler\assets\image\defeat.png"
   inkscape:export-xdpi="47.373302"
   inkscape:export-ydpi="47.373302">
  <defs
     id="defs4">
    <linearGradient
       id="linearGradient5778"
       osb:paint="solid">
      <stop
         style="stop-color:#2f5bd3;stop-opacity:1;"
         offset="0"
         id="stop5780" />
    </linearGradient>
  </defs>
  <sodipodi:namedview
     id="base"
     pagecolor="#ffffff"
     bordercolor="#666666"
     borderopacity="1.0"
     inkscape:pageopacity="0.0"
     inkscape:pageshadow="2"
     inkscape:zoom="0.2956543"
     inkscape:cx="-576.79992"
     inkscape:cy="234.12896"
     inkscape:document-units="px"
     inkscape:current-layer="layer1"
     showgrid="false"
     inkscape:window-width="1920"
     inkscape:window-height="1017"
     inkscape:window-x="-8"
     inkscape:window-y="-8"
     inkscape:window-maximized="1"
     fit-margin-top="0"
     fit-margin-left="0"
     fit-margin-right="0"
     fit-margin-bottom="0" />
  <metadata
     id="metadata7">
    <rdf:RDF>
      <cc:Work
         rdf:about="">
        <dc:format>image/svg+xml</dc:format>
        <dc:type
           rdf:resource="http://purl.org/dc/dcmitype/StillImage" />
        <dc:title />
      </cc:Work>
    </rdf:RDF>
  </metadata>
  <g
     inkscape:label="Layer 1"
     inkscape:groupmode="layer"
     id="layer1"
     transform="translate(-106.79694,-76.863585)">
    <path
       style="color:#000000;font-style:normal;font-variant:normal;font-weight:normal;font-stretch:normal;font-size:medium;line-height:normal;font-family:sans-serif;text-indent:0;text-align:start;text-decoration:none;text-decoration-line:none;text-decoration-style:solid;text-decoration-color:#000000;letter-spacing:normal;word-spacing:normal;text-transform:none;direction:ltr;block-progression:tb;writing-mode:lr-tb;baseline-shift:baseline;text-anchor:start;white-space:normal;clip-rule:nonzero;display:inline;overflow:visible;visibility:visible;opacity:1;isolation:auto;mix-blend-mode:normal;color-interpolation:sRGB;color-interpolation-filters:linearRGB;solid-color:#000000;solid-opacity:1;fill:#be4444;fill-opacity:1;fill-rule:evenodd;stroke:#361f19;stroke-width:10.00000095;stroke-linecap:butt;stroke-linejoin:miter;stroke-miterlimit:4;stroke-dasharray:none;stroke-dashoffset:0;stroke-opacity:1;color-rendering:auto;image-rendering:auto;shape-rendering:auto;text-rendering:auto;enable-background:accumulate"
       d="m 1927.4724,221.51432 -39.4551,6.57812 c 0,0 6.5954,40.09036 20.9668,80.45508 18.1756,50.44805 35.1046,69.8806 82.13,98.53542 33.1868,-25.08194 51.4034,-55.24379 58.2137,-92.89089 5.9396,-33.39431 10.0541,-90.30991 10.0541,-90.30991 l -42.1139,8.06624 c 0,0 -8.1793,120.98931 -28.2019,123.43508 -28.8193,3.52029 -61.5937,-133.86914 -61.5937,-133.86914 z"
       id="path4142"
       inkscape:connector-curvature="0"
       sodipodi:nodetypes="cccccccsc" />
    <path
       style="color:#000000;font-style:normal;font-variant:normal;font-weight:normal;font-stretch:normal;font-size:medium;line-height:normal;font-family:sans-serif;text-indent:0;text-align:start;text-decoration:none;text-decoration-line:none;text-decoration-style:solid;text-decoration-color:#000000;letter-spacing:normal;word-spacing:normal;text-transform:none;direction:ltr;block-progression:tb;writing-mode:lr-tb;baseline-shift:baseline;text-anchor:start;white-space:normal;clip-rule:nonzero;display:inline;overflow:visible;visibility:visible;opacity:1;isolation:auto;mix-blend-mode:normal;color-interpolation:sRGB;color-interpolation-filters:linearRGB;solid-color:#000000;solid-opacity:1;fill:#be4444;fill-opacity:1;fill-rule:evenodd;stroke:#361f19;stroke-width:10.00000095;stroke-linecap:butt;stroke-linejoin:miter;stroke-miterlimit:4;stroke-dasharray:none;stroke-dashoffset:0;stroke-opacity:1;color-rendering:auto;image-rendering:auto;shape-rendering:auto;text-rendering:auto;enable-background:accumulate"
       d="m 1133.732,236.66691 c -19.1585,1.25423 -32.4873,14.94975 -40.5821,28.61914 -8.0947,13.66939 -13.0007,29.25247 -16.6484,44.36328 -7.2955,30.22162 -8.9375,59.21094 -8.9375,59.21094 l 39.9277,2.38281 c 0,0 1.6609,-26.38419 7.8946,-52.20703 3.1168,-12.91142 7.5333,-25.51976 12.1816,-33.36914 4.6483,-7.84938 7.4836,-9.00124 8.7773,-9.08594 0.7736,-0.0506 3.2784,0.4021 8.5176,7.07813 5.2393,6.67602 10.9333,17.91819 15.4434,29.6289 9.02,23.42142 13.8379,47.98047 13.8379,47.98047 l 39.125,0.72266 c 0,0 5.7051,-24.29661 15.5625,-47.31836 4.9286,-11.51088 11.0217,-22.51481 16.4961,-28.98828 5.4744,-6.47347 8.0157,-6.84816 8.7832,-6.77149 4.5721,0.45679 8.4924,2.58921 13.2773,8.34375 4.7849,5.75454 9.4303,14.96484 12.6406,25.5586 6.4207,21.18751 6.3781,48.33249 2.7364,59.71289 l 38.0976,12.1914 c 7.7869,-24.33388 6.123,-54.87511 -2.5527,-83.5039 -4.3379,-14.3144 -10.6101,-28.04319 -20.1641,-39.53321 -9.5539,-11.49002 -23.3949,-20.90748 -40.0586,-22.57226 -18.5586,-1.8541 -33.4692,9.11604 -43.3027,20.74414 -8.2747,9.78481 -14.5305,21.14979 -19.793,32.60351 -4.855,-11.70579 -10.7097,-23.36101 -18.6621,-33.49414 -9.4151,-11.99702 -23.9593,-23.51705 -42.5976,-22.29687 z"
       id="path4144"
       inkscape:connector-curvature="0" />
    <path
       style="color:#000000;font-style:normal;font-variant:normal;font-weight:normal;font-stretch:normal;font-size:medium;line-height:normal;font-family:sans-serif;text-indent:0;text-align:start;text-decoration:none;text-decoration-line:none;text-decoration-style:solid;text-decoration-color:#000000;letter-spacing:normal;word-spacing:normal;text-transform:none;direction:ltr;block-progression:tb;writing-mode:lr-tb;baseline-shift:baseline;text-anchor:start;white-space:normal;clip-rule:nonzero;display:inline;overflow:visible;visibility:visible;opacity:1;isolation:auto;mix-blend-mode:normal;color-interpolation:sRGB;color-interpolation-filters:linearRGB;solid-color:#000000;solid-opacity:1;fill:#be4444;fill-opacity:1;fill-rule:evenodd;stroke:#361f19;stroke-width:10.00000095;stroke-linecap:butt;stroke-linejoin:miter;stroke-miterlimit:4;stroke-dasharray:none;stroke-dashoffset:0;stroke-opacity:1;color-rendering:auto;image-rendering:auto;shape-rendering:auto;text-rendering:auto;enable-background:accumulate"
       d="m 1468.8875,211.2658 c -17.9708,-0.95228 -31.2754,5.54883 -31.2754,5.54883 l 3.2949,-1.39063 c -57.338,18.37043 -65.2519,76.94727 -65.2519,76.94727 l -2.293,21.09179 0.3555,0.0176 c 0.01,4.35653 0.9091,28.83818 21.7031,48.94727 22.8097,22.05845 65.318,37.88541 143.4335,32.65234 l -2.6719,-39.91015 c -71.8153,4.811 -101.2779,-10.20361 -112.9549,-21.4961 -11.5297,-11.14995 -9.7691,-18.3173 -9.7227,-18.49804 15.1628,0.49465 35.7965,0.95454 59.5391,0.33984 19.1842,-0.49669 37.6576,-1.56335 52.4882,-4.66602 7.4154,-1.55133 13.8653,-2.61093 21.6894,-8.89648 3.912,-3.14278 8.7378,-9.1439 9.4883,-17.05274 0.7452,-7.85432 -2.6788,-14.45516 -5.9121,-18.45507 -25.6164,-35.49715 -52.2872,-50.46252 -73.9472,-54.27539 -2.7325,-0.48102 -5.3956,-0.76826 -7.9629,-0.9043 z m -5.4805,39.61133 c 1.7554,0.0334 3.9014,0.22867 6.5079,0.6875 8.0391,1.41515 20.104,6.09752 35.0312,21.90039 -9.3758,1.02011 -20.9376,1.75182 -32.9375,2.0625 -17.1042,0.44283 -34.6135,0.23607 -48.6152,-0.0899 5.396,-8.30369 14.2925,-16.97817 29.7168,-21.91992 l 1.7109,-0.54883 1.584,-0.84375 c 0,0 1.7359,-1.3482 7.0019,-1.24804 z"
       id="path4140"
       inkscape:connector-curvature="0" />
    <path
       style="color:#000000;font-style:normal;font-variant:normal;font-weight:normal;font-stretch:normal;font-size:medium;line-height:normal;font-family:sans-serif;text-indent:0;text-align:start;text-decoration:none;text-decoration-line:none;text-decoration-style:solid;text-decoration-color:#000000;letter-spacing:normal;word-spacing:normal;text-transform:none;direction:ltr;block-progression:tb;writing-mode:lr-tb;baseline-shift:baseline;text-anchor:start;white-space:normal;clip-rule:nonzero;display:inline;overflow:visible;visibility:visible;opacity:1;isolation:auto;mix-blend-mode:normal;color-interpolation:sRGB;color-interpolation-filters:linearRGB;solid-color:#000000;solid-opacity:1;fill:#be4444;fill-opacity:1;fill-rule:evenodd;stroke:#361f19;stroke-width:10.00000095;stroke-linecap:butt;stroke-linejoin:miter;stroke-miterlimit:4;stroke-dasharray:none;stroke-dashoffset:0;stroke-opacity:1;color-rendering:auto;image-rendering:auto;shape-rendering:auto;text-rendering:auto;enable-background:accumulate"
       d="m 2345.5833,229.55733 c -3.9073,0.0538 -8.1258,0.81133 -12.6973,2.89454 -9.1431,4.16642 -15.6758,15.46783 -16.459,24.38867 -1.6932,19.28698 -1.0957,55.9285 -0.3261,89.65625 0.7695,33.72774 1.8964,63.33203 1.8964,63.33203 l 39.9707,-1.52149 c 0,0 -1.1174,-29.35252 -1.8789,-62.72265 -0.5937,-26.0193 -0.834,-54.81338 -0.3691,-72.70899 5.1397,2.21794 11.5208,5.38142 17.9687,9.19922 21.2257,12.56758 43.1622,29.72657 43.1622,29.72656 l 24.7285,-31.43945 c 0,0 -23.0349,-18.2144 -47.5117,-32.70703 -12.2385,-7.24632 -24.3527,-13.82271 -37.6563,-16.76562 -3.3259,-0.73573 -6.9209,-1.38586 -10.8281,-1.33204 z"
       id="path4162"
       inkscape:connector-curvature="0" />
    <path
       inkscape:connector-curvature="0"
       id="path3348"
       d="m 2189.3235,219.72162 c -17.9708,-0.95228 -31.2754,5.54883 -31.2754,5.54883 l 3.2949,-1.39063 c -57.338,18.37043 -65.2519,76.94727 -65.2519,76.94727 l -2.293,21.09179 0.3555,0.0176 c 0.01,4.35653 0.9091,28.83818 21.7031,48.94727 22.8097,22.05845 65.318,37.88541 143.4336,32.65234 l -2.6719,-39.91015 c -71.8154,4.811 -101.278,-10.20361 -112.955,-21.4961 -11.5297,-11.14995 -9.7691,-18.3173 -9.7227,-18.49804 15.1628,0.49465 35.7965,0.95454 59.5391,0.33984 19.1842,-0.49669 37.6576,-1.56335 52.4882,-4.66602 7.4154,-1.55133 13.8654,-2.61093 21.6895,-8.89648 3.912,-3.14278 8.7378,-9.1439 9.4883,-17.05274 0.7452,-7.85432 -2.6788,-14.45516 -5.9121,-18.45507 -25.6165,-35.49715 -52.2873,-50.46252 -73.9473,-54.27539 -2.7325,-0.48102 -5.3956,-0.76826 -7.9629,-0.9043 z m -5.4805,39.61133 c 1.7554,0.0334 3.9014,0.22867 6.5079,0.6875 8.0391,1.41515 20.104,6.09752 35.0312,21.90039 -9.3758,1.02011 -20.9376,1.75182 -32.9375,2.0625 -17.1042,0.44283 -34.6135,0.23607 -48.6152,-0.0899 5.396,-8.30369 14.2925,-16.97817 29.7168,-21.91992 l 1.7109,-0.54883 1.584,-0.84375 c 0,0 1.7359,-1.3482 7.0019,-1.24804 z"
       style="color:#000000;font-style:normal;font-variant:normal;font-weight:normal;font-stretch:normal;font-size:medium;line-height:normal;font-family:sans-serif;text-indent:0;text-align:start;text-decoration:none;text-decoration-line:none;text-decoration-style:solid;text-decoration-color:#000000;letter-spacing:normal;word-spacing:normal;text-transform:none;direction:ltr;block-progression:tb;writing-mode:lr-tb;baseline-shift:baseline;text-anchor:start;white-space:normal;clip-rule:nonzero;display:inline;overflow:visible;visibility:visible;opacity:1;isolation:auto;mix-blend-mode:normal;color-interpolation:sRGB;color-interpolation-filters:linearRGB;solid-color:#000000;solid-opacity:1;fill:#be4444;fill-opacity:1;fill-rule:evenodd;stroke:#361f19;stroke-width:10.00000095;stroke-linecap:butt;stroke-linejoin:miter;stroke-miterlimit:4;stroke-dasharray:none;stroke-dashoffset:0;stroke-opacity:1;color-rendering:auto;image-rendering:auto;shape-rendering:auto;text-rendering:auto;enable-background:accumulate" />
    <path
       style="fill:#be4444;fill-opacity:1;fill-rule:evenodd;stroke:#361f19;stroke-width:10.00000089;stroke-linecap:butt;stroke-linejoin:miter;stroke-miterlimit:4;stroke-dasharray:none;stroke-opacity:1"
       d="m 1784.5531,136.24437 c 56.6038,-1.17814 127.7028,184.09955 -7.7285,266.2381 -58.5884,35.53368 -195.2952,-79.76886 -50.143,-247.89069 18.9731,-21.97539 51.4729,-18.21423 57.8715,-18.34741 z m -9.7168,51.32285 c -4.2368,-0.13547 -8.6543,1.09566 -12.7306,4.53447 -118.0085,99.55176 -40.272,185.29437 -2.2912,155.06439 77.1123,-61.37548 49.5213,-158.49609 15.0218,-159.59886 z"
       id="path3360"
       inkscape:connector-curvature="0"
       sodipodi:nodetypes="ssssssss" />
    <path
       style="fill:#be4444;fill-opacity:1;fill-rule:evenodd;stroke:#361f19;stroke-width:10.00000095;stroke-linecap:butt;stroke-linejoin:miter;stroke-miterlimit:4;stroke-dasharray:none;stroke-opacity:1"
       d="m 969.70574,226.06415 c 0,0 -163.5827,7.41719 -136.9205,99.5949 14.2015,49.09795 82.6766,48.97285 129.231,38.0427 l 7.2937,22.36158 49.78616,-5.35894 z m -33.1944,48.17348 17.4085,55.86382 c -161.9283,-2.42894 -17.4085,-55.86382 -17.4085,-55.86382 z"
       id="path3350"
       inkscape:connector-curvature="0"
       sodipodi:nodetypes="csccccccc" />
    <path
       style="fill:#be4444;fill-opacity:1;fill-rule:evenodd;stroke:#361f19;stroke-width:10.00000095;stroke-linecap:butt;stroke-linejoin:miter;stroke-miterlimit:4;stroke-dasharray:none;stroke-opacity:1"
       d="m 769.73334,113.38944 c 0,0 -344.99754,57.49959 -121.76385,240.14533 0,0 118.38165,87.94057 135.29325,-10.14696 l 2.5969,-85.75405 -94.3425,-5.14604 5.774,35.42947 52.1483,4.53051 1.401,37.99111 c 0,0 -27.2674,13.97118 -57.6585,-1.63164 -68.67266,-35.25662 -140.01336,-120.92416 77.7825,-164.47762 z"
       id="path4172"
       inkscape:connector-curvature="0"
       sodipodi:nodetypes="ccccccccscc" />
  </g>
</svg>
