<?xml version="1.0" encoding="UTF-8" standalone="no"?>
<!-- Created with Inkscape (http://www.inkscape.org/) -->

<svg
   xmlns:dc="http://purl.org/dc/elements/1.1/"
   xmlns:cc="http://creativecommons.org/ns#"
   xmlns:rdf="http://www.w3.org/1999/02/22-rdf-syntax-ns#"
   xmlns:svg="http://www.w3.org/2000/svg"
   xmlns="http://www.w3.org/2000/svg"
   xmlns:sodipodi="http://sodipodi.sourceforge.net/DTD/sodipodi-0.dtd"
   xmlns:inkscape="http://www.inkscape.org/namespaces/inkscape"
   width="204.10136mm"
   height="242.79605mm"
   viewBox="0 0 723.19381 860.30096"
   id="svg2"
   version="1.1"
   inkscape:version="0.91 r13725"
   inkscape:export-filename="C:\Users\david_000\Desktop\Files\number-nibbler\assets\image\frog_rip.png"
   inkscape:export-xdpi="24.889595"
   inkscape:export-ydpi="24.889595"
   sodipodi:docname="frog_rip.svg">
  <defs
     id="defs4" />
  <sodipodi:namedview
     id="base"
     pagecolor="#ffffff"
     bordercolor="#666666"
     borderopacity="1.0"
     inkscape:pageopacity="0.0"
     inkscape:pageshadow="2"
     inkscape:zoom="0.5"
     inkscape:cx="142.07533"
     inkscape:cy="309.11047"
     inkscape:document-units="px"
     inkscape:current-layer="layer1"
     showgrid="false"
     inkscape:window-width="1920"
     inkscape:window-height="1017"
     inkscape:window-x="-8"
     inkscape:window-y="-8"
     inkscape:window-maximized="1"
     fit-margin-top="0"
     fit-margin-left="0"
     fit-margin-right="0"
     fit-margin-bottom="0" />
  <metadata
     id="metadata7">
    <rdf:RDF>
      <cc:Work
         rdf:about="">
        <dc:format>image/svg+xml</dc:format>
        <dc:type
           rdf:resource="http://purl.org/dc/dcmitype/StillImage" />
        <dc:title></dc:title>
      </cc:Work>
    </rdf:RDF>
  </metadata>
  <g
     inkscape:label="Layer 1"
     inkscape:groupmode="layer"
     id="layer1"
     transform="translate(-17.647841,-56.21476)">
    <ellipse
       style="fill:#00ff00;fill-opacity:1;stroke:#000000;stroke-width:4;stroke-linecap:round;stroke-miterlimit:4;stroke-dasharray:none;stroke-opacity:1"
       id="path6004"
       cx="379.00003"
       cy="597.36218"
       rx="205.51262"
       ry="203.5126"
       inkscape:export-filename="C:\Users\David\Desktop\froggy.png"
       inkscape:export-xdpi="8.7113571"
       inkscape:export-ydpi="8.7113571" />
    <ellipse
       style="fill:#00ff00;stroke:#000000;stroke-width:4;stroke-miterlimit:4;stroke-dasharray:none;stroke-opacity:1"
       id="path5323"
       cx="381.42856"
       cy="403.21936"
       rx="257.14285"
       ry="198.57143"
       inkscape:export-filename="C:\Users\David\Desktop\froggy.png"
       inkscape:export-xdpi="8.7113571"
       inkscape:export-ydpi="8.7113571" />
    <g
       id="g5919"
       transform="translate(-424.28572,-10.571429)"
       style="stroke-width:2;stroke-miterlimit:4;stroke-dasharray:none;fill:#ff2a2a"
       inkscape:export-filename="C:\Users\David\Desktop\froggy.png"
       inkscape:export-xdpi="8.7113571"
       inkscape:export-ydpi="8.7113571">
      <path
         transform="matrix(-0.0083874,0.99996483,-0.99996483,-0.0083874,912.98538,-302.22696)"
         inkscape:transform-center-y="-19.233851"
         inkscape:transform-center-x="-7.3617842"
         d="M 541.44176,219.9965 374.48169,154.76653 514.45253,42.789853 Z"
         inkscape:randomized="0"
         inkscape:rounded="0"
         inkscape:flatsided="true"
         sodipodi:arg2="1.9432529"
         sodipodi:arg1="0.89605538"
         sodipodi:r2="51.745056"
         sodipodi:r1="103.49012"
         sodipodi:cy="139.1843"
         sodipodi:cx="476.79199"
         sodipodi:sides="3"
         id="path5911"
         style="fill:#ff2a2a;stroke:#000000;stroke-width:4.19999981;stroke-miterlimit:4;stroke-dasharray:none;stroke-opacity:1"
         sodipodi:type="star" />
      <path
         transform="matrix(0.0083874,-0.99996483,0.99996483,0.0083874,912.98538,-302.22696)"
         sodipodi:type="star"
         style="fill:#ff2a2a;stroke:#000000;stroke-width:4.19999981;stroke-miterlimit:4;stroke-dasharray:none;stroke-opacity:1"
         id="path5913"
         sodipodi:sides="3"
         sodipodi:cx="-606.34399"
         sodipodi:cy="-301.56635"
         sodipodi:r1="103.49012"
         sodipodi:r2="51.745056"
         sodipodi:arg1="0.89605538"
         sodipodi:arg2="1.9432529"
         inkscape:flatsided="true"
         inkscape:rounded="0"
         inkscape:randomized="0"
         d="m -541.69423,-220.75414 -166.96007,-65.22997 139.97085,-111.97668 z"
         inkscape:transform-center-x="7.3617877"
         inkscape:transform-center-y="19.233864" />
      <circle
         transform="matrix(-0.0083874,0.99996483,-0.99996483,-0.0083874,0,0)"
         r="39.39595"
         cy="-689.66425"
         cx="231.56787"
         id="path5917"
         style="fill:#ff2a2a;stroke:#000000;stroke-width:4.19999981;stroke-miterlimit:4;stroke-dasharray:none;stroke-opacity:1" />
    </g>
    <ellipse
       style="fill:#ffffff;stroke:#000000;stroke-width:8.77799988;stroke-miterlimit:4;stroke-dasharray:none;stroke-opacity:1"
       id="path5361"
       cx="-149.51909"
       cy="372.26105"
       rx="68.221359"
       ry="76.070534"
       transform="matrix(-0.91789117,0.39683221,0.39683221,0.91789117,0,0)"
       inkscape:export-filename="C:\Users\David\Desktop\froggy.png"
       inkscape:export-xdpi="8.7113571"
       inkscape:export-ydpi="8.7113571" />
    <ellipse
       cy="77.471771"
       cx="539.28314"
       id="circle5363"
       style="fill:#ffffff;stroke:#000000;stroke-width:8.77799988;stroke-miterlimit:4;stroke-dasharray:none;stroke-opacity:1"
       rx="68.221359"
       ry="76.070534"
       transform="matrix(0.91789117,0.39683221,-0.39683221,0.91789117,0,0)"
       inkscape:export-filename="C:\Users\David\Desktop\froggy.png"
       inkscape:export-xdpi="8.7113571"
       inkscape:export-ydpi="8.7113571" />
    <path
       style="fill:#ffffff;stroke:#000000;stroke-width:4;stroke-miterlimit:4;stroke-dasharray:none;stroke-opacity:1"
       d="m 350.20073,509.85484 c -33.6998,-2.5024 -65.95258,-8.87166 -97.85715,-19.32477 -20.72429,-6.79005 -53.39824,-20.43631 -49.25282,-20.57042 1.00023,-0.0324 8.71452,0.72721 17.14286,1.68793 28.88744,3.29278 60.52324,5.77298 98.18139,7.69727 24.05279,1.22907 125.13196,1.23246 149.28572,0.005 30.9124,-1.57092 63.55316,-3.73823 72.14285,-4.79022 l 2.85715,-0.34992 -2.52744,1.35651 c -6.37825,3.42328 -24.49936,10.63918 -37.82971,15.06396 -31.28496,10.38448 -64.0633,16.81305 -98.21428,19.26201 -11.38283,0.81626 -42.72527,0.79455 -53.92857,-0.0374 z"
       id="path5942"
       inkscape:connector-curvature="0"
       inkscape:export-filename="C:\Users\David\Desktop\froggy.png"
       inkscape:export-xdpi="8.7113571"
       inkscape:export-ydpi="8.7113571" />
    <circle
       r="31"
       cy="158.03714"
       cx="522.21497"
       id="circle6024"
       style="fill:#00ccff;fill-opacity:1;stroke:#281b1b;stroke-width:8.77799988;stroke-linecap:round;stroke-miterlimit:4;stroke-dasharray:none;stroke-opacity:1"
       transform="matrix(0.96592583,0.25881905,-0.25881905,0.96592583,0,0)"
       inkscape:export-filename="C:\Users\David\Desktop\froggy.png"
       inkscape:export-xdpi="8.7113571"
       inkscape:export-ydpi="8.7113571" />
    <path
       style="fill:#00ff00;fill-opacity:1;stroke:#000000;stroke-width:4;stroke-linecap:round;stroke-miterlimit:4;stroke-dasharray:none;stroke-opacity:1"
       d="m 79.240234,512.32031 c -6.151833,-0.0222 -11.53212,0.36013 -15.435546,1.19727 -14.892854,3.19395 -21.5765,7.66198 -34.992188,23.39844 -8.271433,9.70229 -9.108933,11.83283 -9.164062,23.27148 -0.146566,30.41091 27.417278,78.45867 76.77539,133.82422 43.074712,48.31737 68.665562,71.70359 58.662512,82.05843 -6.5104,6.73935 -18.72995,12.61637 -25.10392,17.72477 -15.03293,12.04809 -30.39322,16.68473 -52.820311,23.45899 -31.580065,9.53898 -52.81633,23.35166 -51.61914,23.81054 1.16673,0.4472 8.16737,2.96599 15.55664,5.59766 l 13.435547,4.78516 5.865235,18.89453 c 4.9023,15.79119 6.294925,18.84262 8.484375,18.58593 1.44083,-0.16892 11.321811,-1.60047 21.957031,-3.18164 10.635223,-1.58117 20.237363,-2.875 21.337893,-2.875 1.10053,0 6.71728,6.63489 12.48242,14.74414 6.21233,8.73828 10.86314,14.06741 11.41601,13.08204 0.51307,-0.91445 9.95193,-22.60553 20.97461,-48.20118 11.02268,-25.59565 22.53371,-51.93511 25.58204,-58.5332 3.47455,-8.52028 10.54244,-23.86866 10.90625,-31.62891 0.01,-17.61302 -10.03605,-44.41798 -30.45704,-81.26953 -12.18652,-21.99167 -22.7306,-43.90209 -31.00781,-57.91601 6.75628,7.34801 13.29486,11.00703 21.64063,12.5957 5.63826,1.07328 15.24002,-1.12102 19.73047,-4.50976 l 3.23632,-2.44336 -2.33398,-17.63086 c -2.82474,-21.32621 -2.02016,-45.59025 2.20117,-66.30469 1.57604,-7.7338 3.1844,-14.90166 3.57227,-15.92774 0.92136,-2.43729 -33.33334,-15.22773 -56.58008,-21.12695 -13.49806,-3.42534 -30.768703,-5.43156 -44.302736,-5.48047 z m 6.128907,67.29297 c 0.822099,0.21703 2.577956,6.82736 8.716797,12.83594 -0.854387,-0.68393 37.804182,41.00847 38.845702,41.46875 0,0 -48.359168,-54.51501 -47.562499,-54.30469 z"
       id="path6016"
       inkscape:connector-curvature="0"
       sodipodi:nodetypes="ssssssscssccssssssccscscccscssscss"
       inkscape:export-filename="C:\Users\David\Desktop\froggy.png"
       inkscape:export-xdpi="8.7113571"
       inkscape:export-ydpi="8.7113571" />
    <circle
       style="fill:#00ccff;fill-opacity:1;stroke:#281b1b;stroke-width:8.77799988;stroke-linecap:round;stroke-miterlimit:4;stroke-dasharray:none;stroke-opacity:1"
       id="path6022"
       cx="375.09967"
       cy="135.407"
       r="31"
       transform="matrix(0.42918729,0.90321552,0.90321552,-0.42918729,0,0)"
       inkscape:export-filename="C:\Users\David\Desktop\froggy.png"
       inkscape:export-xdpi="8.7113571"
       inkscape:export-ydpi="8.7113571" />
    <path
       style="fill:#ffaaee;fill-rule:evenodd;stroke:#000000;stroke-width:4;stroke-linecap:butt;stroke-linejoin:miter;stroke-miterlimit:4;stroke-dasharray:none;stroke-opacity:1"
       d="m 303.2243,478.09167 c 61.94643,12.07143 155.26175,0.96324 155.26175,0.96324 0,0 -14.95991,116.48739 -75.99858,116.48739 -66.96693,0 -79.26317,-117.45063 -79.26317,-117.45063 z"
       id="path5976"
       inkscape:connector-curvature="0"
       sodipodi:nodetypes="ccsc"
       inkscape:export-filename="C:\Users\David\Desktop\froggy.png"
       inkscape:export-xdpi="8.7113571"
       inkscape:export-ydpi="8.7113571" />
    <path
       style="fill:#eed7f4;fill-rule:evenodd;stroke:#4a0f46;stroke-width:8.1174469;stroke-linecap:round;stroke-linejoin:miter;stroke-miterlimit:4;stroke-dasharray:none;stroke-opacity:1"
       d="m 381.71242,489.34563 1.2659,77.12528"
       id="path5982"
       inkscape:connector-curvature="0"
       sodipodi:nodetypes="cc"
       inkscape:export-filename="C:\Users\David\Desktop\froggy.png"
       inkscape:export-xdpi="8.7113571"
       inkscape:export-ydpi="8.7113571" />
    <path
       style="fill:#00ff00;fill-opacity:1;stroke:#000000;stroke-width:4;stroke-linecap:round;stroke-miterlimit:4;stroke-dasharray:none;stroke-opacity:1"
       d="m 247.83925,673.30538 0,5e-5 c -0.067,10e-4 -0.11289,0.0133 -0.13672,0.0371 -0.12013,0.12012 0.46042,1.96838 1.29101,4.10742 3.50552,9.02785 5.76784,21.32631 6.41993,34.90429 1.22106,25.42519 15.07957,62.18816 5.27343,94.95313 0,0 -21.20108,29.16912 -38.76757,38.6484 0,0 -25.81416,-1.12772 -17.89258,16.49218 13.56365,23.23263 27.0039,-7.0957 27.0039,-7.0957 l 33.25196,-18.70312 c 0,0 7.72042,32.23681 6.918,46.88698 0,0 -19.28899,29.196 5.98434,28.81809 32.35368,-0.48378 10.30469,-29.11132 10.30469,-29.11132 4.53493,-15.28774 12.99219,-46.04102 12.99219,-46.04102 0,0 24.75611,10.01488 34.6875,18.58399 0,0 14.44231,31.67799 27.32901,7.48085 12.97421,-24.36145 -22.91016,-17.99805 -22.91016,-17.99805 -8.7924,-10.83304 -20.73918,-20.64647 -25.0052,-33.96584 l -3.18816,-9.95408 C 304.291,779.16917 297.88794,750.70041 305.20253,717.0085 l 1.19336,-5.5"
       id="path6030"
       inkscape:connector-curvature="0"
       sodipodi:nodetypes="cccsscccccssscsscsscc"
       inkscape:export-filename="C:\Users\David\Desktop\froggy.png"
       inkscape:export-xdpi="8.7113571"
       inkscape:export-ydpi="8.7113571" />
    <path
       sodipodi:nodetypes="ssssssscssccssssssccscscccscssscss"
       inkscape:connector-curvature="0"
       id="path6043"
       d="m 679.24928,514.32031 c 6.15183,-0.0222 11.53212,0.36013 15.43555,1.19727 14.89285,3.19395 21.5765,7.66198 34.99218,23.39844 8.27144,9.70229 9.10894,11.83283 9.16407,23.27148 0.14656,30.41091 -27.41728,78.45867 -76.77539,133.82422 -43.07472,48.31737 -68.66557,71.70359 -58.66252,82.05843 6.5104,6.73935 18.72995,12.61637 25.10392,17.72477 15.03293,12.04809 30.39322,16.68473 52.82032,23.45899 31.58006,9.53898 52.81633,23.35166 51.61914,23.81054 -1.16673,0.4472 -8.16737,2.96599 -15.55664,5.59766 l -13.43555,4.78516 -5.86524,18.89453 c -4.9023,15.79119 -6.29492,18.84262 -8.48437,18.58593 -1.44083,-0.16892 -11.32181,-1.60047 -21.95703,-3.18164 -10.63523,-1.58117 -20.23737,-2.875 -21.3379,-2.875 -1.10053,0 -6.71728,6.63489 -12.48242,14.74414 -6.21233,8.73828 -10.86314,14.06741 -11.41601,13.08204 -0.51307,-0.91445 -9.95193,-22.60553 -20.97461,-48.20118 -11.02268,-25.59565 -22.53371,-51.93511 -25.58204,-58.5332 -3.47455,-8.52028 -10.54244,-23.86866 -10.90625,-31.62891 -0.01,-17.61302 10.03605,-44.41798 30.45704,-81.26953 12.18652,-21.99167 22.7306,-43.90209 31.00781,-57.91601 -6.75628,7.34801 -13.29486,11.00703 -21.64063,12.5957 -5.63826,1.07328 -15.24002,-1.12102 -19.73047,-4.50976 l -3.23632,-2.44336 2.33398,-17.63086 c 2.82474,-21.32621 2.02016,-45.59025 -2.20117,-66.30469 -1.57604,-7.7338 -3.1844,-14.90166 -3.57227,-15.92774 -0.92136,-2.43729 33.33334,-15.22773 56.58008,-21.12695 13.49806,-3.42534 30.76871,-5.43156 44.30274,-5.48047 z m -6.12891,67.29297 c -0.8221,0.21703 -2.57795,6.82736 -8.71679,12.83594 0.85438,-0.68393 -37.80419,41.00847 -38.84571,41.46875 0,0 48.35917,-54.51501 47.5625,-54.30469 z"
       style="fill:#00ff00;fill-opacity:1;stroke:#000000;stroke-width:4;stroke-linecap:round;stroke-miterlimit:4;stroke-dasharray:none;stroke-opacity:1"
       inkscape:export-filename="C:\Users\David\Desktop\froggy.png"
       inkscape:export-xdpi="8.7113571"
       inkscape:export-ydpi="8.7113571" />
    <path
       style="fill:none;fill-rule:evenodd;stroke:#000000;stroke-width:6;stroke-linecap:round;stroke-linejoin:miter;stroke-miterlimit:4;stroke-dasharray:none;stroke-opacity:1"
       d="m 86,839.36221 53,-33"
       id="path6045"
       inkscape:connector-curvature="0"
       inkscape:export-filename="C:\Users\David\Desktop\froggy.png"
       inkscape:export-xdpi="8.7113571"
       inkscape:export-ydpi="8.7113571" />
    <path
       inkscape:connector-curvature="0"
       id="path6047"
       d="m 116.48721,859.82026 40.02558,-47.9161"
       style="fill:none;fill-rule:evenodd;stroke:#000000;stroke-width:6;stroke-linecap:round;stroke-linejoin:miter;stroke-miterlimit:4;stroke-dasharray:none;stroke-opacity:1"
       inkscape:export-filename="C:\Users\David\Desktop\froggy.png"
       inkscape:export-xdpi="8.7113571"
       inkscape:export-ydpi="8.7113571" />
    <path
       inkscape:connector-curvature="0"
       id="path6049"
       d="m 675.72952,847.11221 -53,-33"
       style="fill:none;fill-rule:evenodd;stroke:#000000;stroke-width:6;stroke-linecap:round;stroke-linejoin:miter;stroke-miterlimit:4;stroke-dasharray:none;stroke-opacity:1"
       inkscape:export-filename="C:\Users\David\Desktop\froggy.png"
       inkscape:export-xdpi="8.7113571"
       inkscape:export-ydpi="8.7113571" />
    <path
       style="fill:none;fill-rule:evenodd;stroke:#000000;stroke-width:6;stroke-linecap:round;stroke-linejoin:miter;stroke-miterlimit:4;stroke-dasharray:none;stroke-opacity:1"
       d="m 645.24231,867.57026 -40.02558,-47.9161"
       id="path6051"
       inkscape:connector-curvature="0"
       inkscape:export-filename="C:\Users\David\Desktop\froggy.png"
       inkscape:export-xdpi="8.7113571"
       inkscape:export-ydpi="8.7113571" />
    <path
       style="fill:#00ff00;fill-opacity:1;stroke:#000000;stroke-width:4;stroke-linecap:round;stroke-miterlimit:4;stroke-dasharray:none;stroke-opacity:1"
       d="m 506.3141,675.46346 0,5e-5 c 0.067,10e-4 0.11289,0.0133 0.13672,0.0371 0.12013,0.12012 -0.46042,1.96838 -1.29101,4.10742 -3.50552,9.02785 -5.76784,21.32631 -6.41993,34.90429 -1.22106,25.42519 -15.07957,62.18816 -5.27343,94.95313 0,0 21.20108,29.16912 38.76757,38.6484 0,0 25.81416,-1.12772 17.89258,16.49218 -13.56365,23.23263 -27.0039,-7.0957 -27.0039,-7.0957 l -33.25196,-18.70312 c 0,0 -7.72042,32.23681 -6.918,46.88698 0,0 19.28899,29.196 -5.98434,28.81809 -32.35368,-0.48378 -10.30469,-29.11132 -10.30469,-29.11132 -4.53493,-15.28774 -12.99219,-46.04102 -12.99219,-46.04102 0,0 -24.75611,10.01488 -34.6875,18.58399 0,0 -14.44231,31.67799 -27.32901,7.48085 -12.97421,-24.36145 22.91016,-17.99805 22.91016,-17.99805 8.7924,-10.83304 20.73918,-20.64647 25.0052,-33.96584 l 3.18816,-9.95408 c 7.10382,-22.17956 13.50688,-50.64832 6.19229,-84.34023 l -1.19336,-5.5"
       id="path6030-4"
       inkscape:connector-curvature="0"
       sodipodi:nodetypes="cccsscccccssscsscsscc"
       inkscape:export-filename="C:\Users\David\Desktop\froggy.png"
       inkscape:export-xdpi="8.7113571"
       inkscape:export-ydpi="8.7113571" />
    <g
       id="g4170">
      <path
         style="fill:none;fill-rule:evenodd;stroke:#000000;stroke-width:12;stroke-linecap:butt;stroke-linejoin:miter;stroke-miterlimit:4;stroke-dasharray:none;stroke-opacity:1"
         d="m 447.86008,270.47229 32.52691,34.1179"
         id="path4164"
         inkscape:connector-curvature="0"
         sodipodi:nodetypes="cc" />
      <path
         style="fill:none;fill-rule:evenodd;stroke:#000000;stroke-width:12;stroke-linecap:butt;stroke-linejoin:miter;stroke-miterlimit:4;stroke-dasharray:none;stroke-opacity:1"
         d="m 480.21022,270.64907 -32.35014,34.29468"
         id="path4166"
         inkscape:connector-curvature="0"
         sodipodi:nodetypes="cc" />
    </g>
    <path
       inkscape:export-ydpi="8.7113571"
       inkscape:export-xdpi="8.7113571"
       inkscape:export-filename="C:\Users\David\Desktop\froggy.png"
       sodipodi:nodetypes="cc"
       inkscape:connector-curvature="0"
       id="path4168"
       d="m 381.71242,489.34563 1.2659,77.12528"
       style="fill:#eed7f4;fill-rule:evenodd;stroke:#4a0f46;stroke-width:8.1174469;stroke-linecap:round;stroke-linejoin:miter;stroke-miterlimit:4;stroke-dasharray:none;stroke-opacity:1" />
    <g
       id="g4174"
       transform="translate(-181,-6.5)">
      <path
         sodipodi:nodetypes="cc"
         inkscape:connector-curvature="0"
         id="path4176"
         d="m 447.86008,270.47229 32.52691,34.1179"
         style="fill:none;fill-rule:evenodd;stroke:#000000;stroke-width:12;stroke-linecap:butt;stroke-linejoin:miter;stroke-miterlimit:4;stroke-dasharray:none;stroke-opacity:1" />
      <path
         sodipodi:nodetypes="cc"
         inkscape:connector-curvature="0"
         id="path4178"
         d="m 480.21022,270.64907 -32.35014,34.29468"
         style="fill:none;fill-rule:evenodd;stroke:#000000;stroke-width:12;stroke-linecap:butt;stroke-linejoin:miter;stroke-miterlimit:4;stroke-dasharray:none;stroke-opacity:1" />
    </g>
  </g>
</svg>
