<?xml version="1.0" encoding="UTF-8" standalone="no"?>
<!-- Created with Inkscape (http://www.inkscape.org/) -->

<svg
   xmlns:dc="http://purl.org/dc/elements/1.1/"
   xmlns:cc="http://creativecommons.org/ns#"
   xmlns:rdf="http://www.w3.org/1999/02/22-rdf-syntax-ns#"
   xmlns:svg="http://www.w3.org/2000/svg"
   xmlns="http://www.w3.org/2000/svg"
   xmlns:sodipodi="http://sodipodi.sourceforge.net/DTD/sodipodi-0.dtd"
   xmlns:inkscape="http://www.inkscape.org/namespaces/inkscape"
   width="54.248188mm"
   height="67.302048mm"
   viewBox="0 0 192.21798 238.47182"
   id="svg2"
   version="1.1"
   inkscape:version="0.91 r13725"
   sodipodi:docname="gator_4.svg"
   inkscape:export-filename="C:\Users\David\Desktop\Laptop\love2d\number-nibbler\assets\image\gator_4.png"
   inkscape:export-xdpi="102.55748"
   inkscape:export-ydpi="102.55748">
  <defs
     id="defs4" />
  <sodipodi:namedview
     id="base"
     pagecolor="#ffffff"
     bordercolor="#666666"
     borderopacity="1.0"
     inkscape:pageopacity="0.0"
     inkscape:pageshadow="2"
     inkscape:zoom="1.4142136"
     inkscape:cx="-46.013875"
     inkscape:cy="137.99414"
     inkscape:document-units="px"
     inkscape:current-layer="layer1"
     showgrid="false"
     showguides="true"
     inkscape:window-width="1920"
     inkscape:window-height="1017"
     inkscape:window-x="-8"
     inkscape:window-y="-8"
     inkscape:window-maximized="1"
     fit-margin-top="0.5"
     fit-margin-left="0.5"
     fit-margin-right="0.5"
     fit-margin-bottom="0.5" />
  <metadata
     id="metadata7">
    <rdf:RDF>
      <cc:Work
         rdf:about="">
        <dc:format>image/svg+xml</dc:format>
        <dc:type
           rdf:resource="http://purl.org/dc/dcmitype/StillImage" />
        <dc:title></dc:title>
      </cc:Work>
    </rdf:RDF>
  </metadata>
  <g
     inkscape:label="Layer 1"
     inkscape:groupmode="layer"
     id="layer1"
     transform="translate(-231.69261,-398.91704)">
    <path
       style="fill:#ff2a2a;fill-opacity:1;stroke:#000000;stroke-width:2.20000005;stroke-linecap:round;stroke-linejoin:miter;stroke-miterlimit:4;stroke-dasharray:none;stroke-opacity:1"
       d="m 350.69146,632.32136 c 0.89504,-1.07845 2.04282,-5.93662 2.06387,-8.73572 0.022,-2.92395 1.61037,-2.72639 3.20462,0.3986 1.68612,3.30506 4.46001,6.55205 5.59739,6.55205 1.17843,0 1.15089,-1.60567 -0.12362,-7.20942 -0.61975,-2.72486 -0.80045,-4.79073 -0.44969,-5.14148 0.35075,-0.35075 1.9701,0.5948 4.0302,2.35327 1.89412,1.61679 4.27867,3.37131 5.29898,3.89894 1.75334,0.90668 1.85514,0.88604 1.85514,-0.37617 0,-0.84834 0.36271,-2.7852 -0.48619,-4.43055 -0.7303,-1.41548 -1.64099,-3.01583 -2.77739,-4.33383 l -1.98982,-2.3078 -0.56576,-20.80561 0,-21.29055 -6.32881,6.06007 c -3.48085,3.33304 -7.3838,6.77598 -8.6732,7.65096 l -2.3444,1.59089 -0.38922,19.74599 c -0.16943,8.59564 -2.3059,12.50266 -2.35001,16.29669 -0.0909,7.81949 2.14378,9.38444 2.8232,10.06386 0.73942,0.73942 1.00481,0.74271 1.60475,0.0198 z"
       id="path4345"
       inkscape:connector-curvature="0"
       sodipodi:nodetypes="csssssssssscccsscssscc" />
    <path
       style="fill:#ff2a2a;fill-opacity:1;stroke:#000000;stroke-width:2.20000005;stroke-linecap:round;stroke-linejoin:miter;stroke-miterlimit:4;stroke-dasharray:none;stroke-opacity:1"
       d="m 391.32988,538.45921 c -19.83041,30.58455 -35.17162,51.16482 -43.86042,45.53118 -8.68879,-5.63364 0.34328,-34.99429 20.17369,-65.57885 19.83041,-30.58455 51.6386,-45.17762 51.6386,-45.17762 0,0 -8.12146,34.64074 -27.95187,65.22529 z"
       id="path4316"
       inkscape:connector-curvature="0"
       sodipodi:nodetypes="ssscs" />
    <path
       sodipodi:type="star"
       style="fill:#d35f5f;fill-opacity:1;stroke:#000000;stroke-width:1.44467092;stroke-linecap:round;stroke-linejoin:miter;stroke-miterlimit:4;stroke-dasharray:none;stroke-opacity:1"
       id="path4318"
       sodipodi:sides="3"
       sodipodi:cx="396.5"
       sodipodi:cy="498.86218"
       sodipodi:r1="8.276473"
       sodipodi:r2="4.1382365"
       sodipodi:arg1="-2.0074235"
       sodipodi:arg2="-0.96022594"
       inkscape:flatsided="true"
       inkscape:rounded="0"
       inkscape:randomized="0"
       d="m 393,491.36218 11.74519,8.21891 -12.99038,6.06218 z"
       inkscape:transform-center-x="-1.9578714"
       inkscape:transform-center-y="1.2139396"
       transform="matrix(1.3421552,-0.42382948,0.36174421,1.4836362,-337.3157,-74.021777)" />
    <path
       sodipodi:nodetypes="csssssssssscccsscssscc"
       inkscape:connector-curvature="0"
       id="path4343"
       d="m 303.84935,633.73558 c -0.89504,-1.07845 -2.04282,-5.93662 -2.06387,-8.73572 -0.022,-2.92395 -1.61037,-2.72639 -3.20462,0.3986 -1.68612,3.30506 -4.46001,6.55205 -5.59739,6.55205 -1.17843,0 -1.15089,-1.60567 0.12362,-7.20942 0.61975,-2.72486 0.80045,-4.79073 0.44969,-5.14148 -0.35075,-0.35075 -1.9701,0.5948 -4.0302,2.35327 -1.89412,1.61679 -4.27867,3.37131 -5.29898,3.89894 -1.75334,0.90668 -1.85514,0.88604 -1.85514,-0.37617 0,-0.84834 -0.36271,-2.7852 0.48619,-4.43055 0.7303,-1.41548 1.64099,-3.01583 2.77739,-4.33383 l 1.98982,-2.3078 0.56576,-20.80561 0,-21.29055 6.32881,6.06007 c 3.48085,3.33304 7.3838,6.77598 8.6732,7.65096 l 2.3444,1.59089 0.38922,19.74599 c 0.16943,8.59564 2.3059,12.50266 2.35001,16.29669 0.0909,7.81949 -2.14378,9.38444 -2.8232,10.06386 -0.73942,0.73942 -1.00481,0.74271 -1.60475,0.0198 z"
       style="fill:#ff2a2a;fill-opacity:1;stroke:#000000;stroke-width:2.20000005;stroke-linecap:round;stroke-linejoin:miter;stroke-miterlimit:4;stroke-dasharray:none;stroke-opacity:1" />
    <path
       style="fill:#ff2a2a;fill-opacity:1;stroke:#000000;stroke-width:2.20000005;stroke-linecap:round;stroke-linejoin:miter;stroke-miterlimit:4;stroke-dasharray:none;stroke-opacity:1"
       d="m 239.69972,498.09379 c 0.23611,1.38146 3.91576,3.94809 6.027,5.78605 2.20538,1.91996 0.93613,3.29292 -2.38855,2.17333 -3.88398,-1.30793 -5.23053,-2.88049 -7.36941,-1.56466 -1.26821,0.7802 -1.75172,3.61313 -1.14207,4.31846 0.70957,0.82093 2.71316,0.38795 5.44753,1.82948 2.47197,1.3032 4.15789,2.51074 4.19585,3.00532 0.038,0.49455 -1.73392,1.10842 -4.40982,1.52772 0,0 -4.00489,0.59155 -4.57945,1.51931 -1.15691,1.86808 0.9283,4.13352 0.9283,4.13352 1.10782,1.1702 3.35762,0.71731 5.09788,0.71253 l 3.9853,-1.51708 15.22465,14.62199 16.16264,13.85844 -0.48094,-8.74911 c -0.2645,-4.81202 -0.33769,-10.01602 -0.16264,-11.56439 l 0.31829,-2.81529 -14.73674,-13.14854 c -6.41506,-5.72369 -7.99039,-9.88873 -10.84191,-12.39183 -5.87697,-5.15887 -7.93336,-5.06158 -8.89138,-4.98806 -1.3508,0.21083 -2.48228,2.62541 -2.3845,3.25284 z"
       id="path4347"
       inkscape:connector-curvature="0"
       sodipodi:nodetypes="csssssscssscccsscssccc" />
    <path
       sodipodi:nodetypes="csssssscssscccsscssccc"
       inkscape:connector-curvature="0"
       id="path4349"
       d="m 418.63763,506.88829 c -0.61564,1.25902 -4.86929,2.68526 -7.41274,3.85414 -2.65688,1.22103 -1.82577,2.89589 1.67967,2.75812 4.09513,-0.16097 5.8301,-1.29058 7.51175,0.57445 0.9971,1.10582 0.66309,3.96024 -0.12056,4.46529 -0.91208,0.58783 -2.71258,-0.39197 -5.74228,0.22099 -2.73895,0.55414 -4.69675,1.23791 -4.87247,1.70178 -0.17569,0.46388 1.3515,1.55194 3.80094,2.70799 0,0 3.67618,1.69556 3.9661,2.7477 0.58387,2.11831 -2.05502,3.70467 -2.05502,3.70467 -1.39258,0.81078 -3.42372,-0.25748 -5.09216,-0.75224 l -3.39662,-2.5782 -18.72682,9.7416 -19.41176,8.74476 2.92584,-8.2594 c 1.60921,-4.54268 3.14525,-9.51535 3.41342,-11.05034 l 0.48758,-2.79097 17.84364,-8.46523 c 7.76752,-3.685 10.45225,-7.23768 13.89336,-8.83623 7.09213,-3.29462 9.03785,-2.62205 9.93637,-2.28164 1.23666,0.5829 1.64227,3.21829 1.37172,3.79278 z"
       style="fill:#ff2a2a;fill-opacity:1;stroke:#000000;stroke-width:2.20000005;stroke-linecap:round;stroke-linejoin:miter;stroke-miterlimit:4;stroke-dasharray:none;stroke-opacity:1" />
    <path
       transform="matrix(0.96878762,-0.2478922,0.2478922,0.96878762,-118.90014,101.90805)"
       inkscape:transform-center-y="0.67372991"
       inkscape:transform-center-x="-1.4580465"
       d="m 393,491.36218 11.74519,8.21891 -12.99038,6.06218 z"
       inkscape:randomized="0"
       inkscape:rounded="0"
       inkscape:flatsided="true"
       sodipodi:arg2="-0.96022594"
       sodipodi:arg1="-2.0074235"
       sodipodi:r2="4.1382365"
       sodipodi:r1="8.276473"
       sodipodi:cy="498.86218"
       sodipodi:cx="396.5"
       sodipodi:sides="3"
       id="path4320"
       style="fill:#d35f5f;fill-opacity:1;stroke:#000000;stroke-width:1.5;stroke-linecap:round;stroke-linejoin:miter;stroke-miterlimit:4;stroke-dasharray:none;stroke-opacity:1"
       sodipodi:type="star" />
    <ellipse
       style="fill:#ff2a2a;fill-opacity:1;stroke:#000000;stroke-width:1.86400044;stroke-linecap:round;stroke-linejoin:miter;stroke-miterlimit:4;stroke-dasharray:none;stroke-opacity:1"
       id="path4312"
       cx="325.38605"
       cy="532.96271"
       rx="55.620766"
       ry="74.55275" />
    <ellipse
       style="fill:#ffb380;fill-opacity:1;stroke:#000000;stroke-width:1.96985829;stroke-linecap:round;stroke-linejoin:miter;stroke-miterlimit:4;stroke-dasharray:none;stroke-opacity:1"
       id="path4314"
       cx="324.9321"
       cy="532.90601"
       rx="41.940659"
       ry="58.524742" />
    <path
       sodipodi:type="spiral"
       style="fill:none;fill-rule:evenodd;stroke:#000000;stroke-width:1px;stroke-linecap:butt;stroke-linejoin:miter;stroke-opacity:1"
       id="path4391"
       sodipodi:cx="285.75"
       sodipodi:cy="522.36218"
       sodipodi:expansion="1"
       sodipodi:revolution="0.050000001"
       sodipodi:radius="77.548775"
       sodipodi:argument="-0.34962827"
       sodipodi:t0="0"
       d="m 285.75,522.36218 c 24.80166,-9.04286 52.10074,-9.75011 77.5,-2.75"
       transform="matrix(1.015525,0,0,0.88182369,-5.2112346,56.277935)" />
    <path
       style="fill:#ffb380;fill-opacity:1;stroke:#000000;stroke-width:1.94915903;stroke-linecap:round;stroke-linejoin:miter;stroke-miterlimit:4;stroke-dasharray:none;stroke-opacity:1"
       d="m 317.38822,508.40688 c -5.33423,-0.96798 -8.24991,-2.28831 -14.5453,-6.58664 -3.32833,-2.27249 -9.24868,-5.76104 -13.15632,-7.7523 -8.57589,-4.37013 -13.71122,-9.07602 -16.80728,-15.40181 -2.162,-4.41736 -3.87492,-11.30943 -3.89267,-15.66288 -0.005,-1.3511 0.0933,-2.59898 0.68925,-2.93846 0.79346,-0.45195 2.50928,0.3475 6.43179,1.1787 6.11235,1.29523 11.36339,4.30246 15.18511,8.69637 3.64794,4.19414 8.28603,6.78037 15.33707,8.55209 3.57598,0.89853 7.11367,1.10894 18.35246,1.09151 12.19021,-0.0189 14.61535,-0.19485 19.49025,-1.41405 7.96584,-1.99224 11.87238,-4.09903 15.64634,-8.43804 4.39471,-5.05272 10.48964,-8.08676 17.27613,-8.60001 l 4.37514,-0.0492 0.47353,3.72822 c 1.19688,9.42324 -3.96245,19.90215 -9.31347,24.6123 -1.63226,1.43677 -4.67049,3.37763 -6.75164,4.31303 -2.08116,0.9354 -8.92673,4.27636 -15.21238,7.42436 -6.28564,3.14799 -12.99474,6.08088 -14.90909,6.51752 -4.61227,1.052 -14.71546,1.44665 -18.6689,0.72923 z"
       id="path4168"
       inkscape:connector-curvature="0"
       sodipodi:nodetypes="csssssssssssscssssscc" />
    <path
       style="fill:#800000;fill-opacity:1;stroke:#000000;stroke-width:1.94915903;stroke-linecap:round;stroke-linejoin:miter;stroke-miterlimit:4;stroke-dasharray:none;stroke-opacity:1"
       d="m 352.3451,475.01155 c 0,10.58235 -20.43543,27.13486 -27.03993,27.13486 -6.93675,0 -26.15395,-16.55251 -26.15395,-27.13486 0,-10.58235 11.90786,-19.16103 26.59694,-19.16103 14.68908,0 26.59694,8.57868 26.59694,19.16103 z"
       id="path4245"
       inkscape:connector-curvature="0"
       sodipodi:nodetypes="sssss" />
    <path
       style="fill:#ff2a2a;fill-opacity:1;stroke:#000000;stroke-width:1.94915903;stroke-linecap:round;stroke-linejoin:miter;stroke-miterlimit:4;stroke-dasharray:none;stroke-opacity:1"
       d="m 324.95662,404.61582 c -17.95465,0 -26.74108,-6.91015 -35.84394,3.1636 -9.10285,10.07375 -18.75704,37.07265 -19.8093,52.38361 0.79346,-0.45195 2.88115,0.24848 6.80365,1.07969 6.11235,1.29523 11.36456,4.30323 15.18628,8.69715 3.64795,4.19414 8.28578,6.78008 15.33682,8.5518 3.57598,0.89853 7.11417,1.10932 18.35297,1.0919 12.1902,-0.0189 14.61495,-0.19457 19.48985,-1.41376 7.96584,-1.99224 11.87261,-4.09858 15.64657,-8.43759 4.39472,-5.05272 10.48842,-8.08699 17.27491,-8.60025 l 4.37107,-0.33224 c -3.13502,-17.27778 -9.0377,-38.90566 -20.00739,-52.97828 -9.32401,-11.63968 -17.14155,-3.20563 -36.80149,-3.20563 z"
       id="path3341"
       inkscape:connector-curvature="0"
       sodipodi:nodetypes="cscsssssscccc" />
    <path
       sodipodi:nodetypes="ccc"
       inkscape:connector-curvature="0"
       id="path4211"
       d="m 352.72495,474.15669 c 0,0 -10.97657,-14.6341 -27.45247,-14.72045 -15.64539,-0.009 -26.82062,14.94591 -26.82062,14.94591"
       style="fill:#ff2a2a;fill-rule:evenodd;stroke:#eb1f16;stroke-width:3.544;stroke-linecap:butt;stroke-linejoin:miter;stroke-miterlimit:4;stroke-dasharray:none;stroke-opacity:1" />
    <ellipse
       style="fill:#550000;fill-opacity:1;stroke:#000000;stroke-width:0;stroke-linecap:round;stroke-linejoin:miter;stroke-miterlimit:4;stroke-dasharray:none;stroke-opacity:1"
       id="path4205"
       cx="318.74072"
       cy="470.27206"
       rx="2.6849289"
       ry="3.4680333" />
    <ellipse
       ry="3.4680333"
       rx="2.6849289"
       cy="470.27206"
       cx="329.70419"
       id="ellipse4207"
       style="fill:#550000;fill-opacity:1;stroke:#000000;stroke-width:0;stroke-linecap:round;stroke-linejoin:miter;stroke-miterlimit:4;stroke-dasharray:none;stroke-opacity:1" />
    <path
       sodipodi:type="star"
       style="fill:#ffffff;fill-opacity:1;stroke:#000000;stroke-width:0.68439603;stroke-linecap:round;stroke-linejoin:miter;stroke-miterlimit:4;stroke-dasharray:none;stroke-opacity:1"
       id="path4247"
       sodipodi:sides="3"
       sodipodi:cx="318.57144"
       sodipodi:cy="490.60138"
       sodipodi:r1="6.4384842"
       sodipodi:r2="3.2192421"
       sodipodi:arg1="1.6262948"
       sodipodi:arg2="2.6734924"
       inkscape:flatsided="true"
       inkscape:rounded="0"
       inkscape:randomized="0"
       d="m 318.2143,497.02995 -5.03159,-9.95215 11.13461,0.61859 z"
       inkscape:transform-center-x="-0.11926737"
       inkscape:transform-center-y="1.1588975"
       transform="matrix(0.78497075,-0.00651016,0.00651016,0.78497075,63.336317,99.741369)" />
    <path
       transform="matrix(0.72658267,-0.06545129,0.06545129,0.72658267,71.87978,146.66842)"
       inkscape:transform-center-y="1.1037531"
       inkscape:transform-center-x="0.080615664"
       d="m 318.2143,497.02995 -5.03159,-9.95215 11.13461,0.61859 z"
       inkscape:randomized="0"
       inkscape:rounded="0"
       inkscape:flatsided="true"
       sodipodi:arg2="2.6734924"
       sodipodi:arg1="1.6262948"
       sodipodi:r2="3.2192421"
       sodipodi:r1="6.4384842"
       sodipodi:cy="490.60138"
       sodipodi:cx="318.57144"
       sodipodi:sides="3"
       id="path4253"
       style="fill:#ffffff;fill-opacity:1;stroke:#000000;stroke-width:0.68439603;stroke-linecap:round;stroke-linejoin:miter;stroke-miterlimit:4;stroke-dasharray:none;stroke-opacity:1"
       sodipodi:type="star" />
    <path
       transform="matrix(0.78011442,0.08742398,-0.08742398,0.78011442,100.44137,70.855528)"
       inkscape:transform-center-y="0.88197666"
       inkscape:transform-center-x="-0.42033234"
       d="m 318.2143,497.02995 -5.03159,-9.95215 11.13461,0.61859 z"
       inkscape:randomized="0"
       inkscape:rounded="0"
       inkscape:flatsided="true"
       sodipodi:arg2="2.6734924"
       sodipodi:arg1="1.6262948"
       sodipodi:r2="3.2192421"
       sodipodi:r1="6.4384842"
       sodipodi:cy="490.60138"
       sodipodi:cx="318.57144"
       sodipodi:sides="3"
       id="path4259"
       style="fill:#ffffff;fill-opacity:1;stroke:#000000;stroke-width:0.68439603;stroke-linecap:round;stroke-linejoin:miter;stroke-miterlimit:4;stroke-dasharray:none;stroke-opacity:1"
       sodipodi:type="star" />
    <path
       sodipodi:type="star"
       style="fill:#ffffff;fill-opacity:1;stroke:#000000;stroke-width:0.68439603;stroke-linecap:round;stroke-linejoin:miter;stroke-miterlimit:4;stroke-dasharray:none;stroke-opacity:1"
       id="path4261"
       sodipodi:sides="3"
       sodipodi:cx="318.57144"
       sodipodi:cy="490.60138"
       sodipodi:r1="6.4384842"
       sodipodi:r2="3.2192421"
       sodipodi:arg1="1.6262948"
       sodipodi:arg2="2.6734924"
       inkscape:flatsided="true"
       inkscape:rounded="0"
       inkscape:randomized="0"
       d="m 318.2143,497.02995 -5.03159,-9.95215 11.13461,0.61859 z"
       inkscape:transform-center-x="-0.030543315"
       inkscape:transform-center-y="1.2370507"
       transform="matrix(0.78425786,-0.03407434,0.03407434,0.78425786,59.339352,108.98414)" />
    <path
       transform="matrix(0.76461326,-0.17773019,0.17773019,0.76461326,14.201458,162.70722)"
       inkscape:transform-center-y="0.86824244"
       inkscape:transform-center-x="0.43471139"
       d="m 318.2143,497.02995 -5.03159,-9.95215 11.13461,0.61859 z"
       inkscape:randomized="0"
       inkscape:rounded="0"
       inkscape:flatsided="true"
       sodipodi:arg2="2.6734924"
       sodipodi:arg1="1.6262948"
       sodipodi:r2="3.2192421"
       sodipodi:r1="6.4384842"
       sodipodi:cy="490.60138"
       sodipodi:cx="318.57144"
       sodipodi:sides="3"
       id="path4263"
       style="fill:#ffffff;fill-opacity:1;stroke:#000000;stroke-width:0.68439603;stroke-linecap:round;stroke-linejoin:miter;stroke-miterlimit:4;stroke-dasharray:none;stroke-opacity:1"
       sodipodi:type="star" />
    <path
       transform="matrix(-0.63000926,-0.46830522,0.46830522,-0.63000926,286.88674,951.7739)"
       inkscape:transform-center-y="0.43032288"
       inkscape:transform-center-x="0.87242873"
       d="m 318.2143,497.02995 -5.03159,-9.95215 11.13461,0.61859 z"
       inkscape:randomized="0"
       inkscape:rounded="0"
       inkscape:flatsided="true"
       sodipodi:arg2="2.6734924"
       sodipodi:arg1="1.6262948"
       sodipodi:r2="3.2192421"
       sodipodi:r1="6.4384842"
       sodipodi:cy="490.60138"
       sodipodi:cx="318.57144"
       sodipodi:sides="3"
       id="path4265"
       style="fill:#ffffff;fill-opacity:1;stroke:#000000;stroke-width:0.68439603;stroke-linecap:round;stroke-linejoin:miter;stroke-miterlimit:4;stroke-dasharray:none;stroke-opacity:1"
       sodipodi:type="star" />
    <path
       sodipodi:type="star"
       style="fill:#ffffff;fill-opacity:1;stroke:#000000;stroke-width:0.68439603;stroke-linecap:round;stroke-linejoin:miter;stroke-miterlimit:4;stroke-dasharray:none;stroke-opacity:1"
       id="path4267"
       sodipodi:sides="3"
       sodipodi:cx="318.57144"
       sodipodi:cy="490.60138"
       sodipodi:r1="6.4384842"
       sodipodi:r2="3.2192421"
       sodipodi:arg1="1.6262948"
       sodipodi:arg2="2.6734924"
       inkscape:flatsided="true"
       inkscape:rounded="0"
       inkscape:randomized="0"
       d="m 318.2143,497.02995 -5.03159,-9.95215 11.13461,0.61859 z"
       inkscape:transform-center-x="-2.9202778"
       inkscape:transform-center-y="-1.2557791"
       transform="matrix(-0.58325002,0.52539592,-0.52539592,-0.58325002,779.11839,611.55857)" />
    <ellipse
       style="fill:#ffffff;fill-opacity:1;stroke:#000000;stroke-width:1.25447047;stroke-linecap:round;stroke-linejoin:miter;stroke-miterlimit:4;stroke-dasharray:none;stroke-opacity:1"
       id="path4297"
       cx="300.10153"
       cy="422.12234"
       rx="11.469161"
       ry="10.710867" />
    <ellipse
       ry="10.845835"
       rx="11.209003"
       cy="421.88147"
       cx="353.12546"
       id="ellipse4299"
       style="fill:#ffffff;fill-opacity:1;stroke:#000000;stroke-width:1.24795055;stroke-linecap:round;stroke-linejoin:miter;stroke-miterlimit:4;stroke-dasharray:none;stroke-opacity:1" />
    <ellipse
       ry="7.0573034"
       rx="7.4298306"
       cy="422.51605"
       cx="353.66025"
       id="ellipse4293"
       style="fill:#ff6600;fill-opacity:1;stroke:#000000;stroke-width:1.1590606;stroke-linecap:round;stroke-linejoin:miter;stroke-miterlimit:4;stroke-dasharray:none;stroke-opacity:1" />
    <ellipse
       style="fill:#ff6600;fill-opacity:1;stroke:#000000;stroke-width:1.1590606;stroke-linecap:round;stroke-linejoin:miter;stroke-miterlimit:4;stroke-dasharray:none;stroke-opacity:1"
       id="ellipse4301"
       cx="300.73965"
       cy="422.33163"
       rx="7.4298306"
       ry="7.0573034" />
    <ellipse
       style="fill:#000000;fill-opacity:1;stroke:#000000;stroke-width:1.04307961;stroke-linecap:round;stroke-linejoin:miter;stroke-miterlimit:4;stroke-dasharray:none;stroke-opacity:1"
       id="path4303"
       cx="300.77286"
       cy="422.92126"
       rx="2.7658827"
       ry="2.3049023" />
    <ellipse
       ry="2.3049023"
       rx="2.7658827"
       cy="422.55249"
       cx="353.69342"
       id="ellipse4305"
       style="fill:#000000;fill-opacity:1;stroke:#000000;stroke-width:1.04307961;stroke-linecap:round;stroke-linejoin:miter;stroke-miterlimit:4;stroke-dasharray:none;stroke-opacity:1" />
    <path
       sodipodi:type="star"
       style="fill:#ffffff;fill-opacity:1;stroke:#000000;stroke-width:0.68439603;stroke-linecap:round;stroke-linejoin:miter;stroke-miterlimit:4;stroke-dasharray:none;stroke-opacity:1"
       id="path4308"
       sodipodi:sides="3"
       sodipodi:cx="318.57144"
       sodipodi:cy="490.60138"
       sodipodi:r1="6.4384842"
       sodipodi:r2="3.2192421"
       sodipodi:arg1="1.6262948"
       sodipodi:arg2="2.6734924"
       inkscape:flatsided="true"
       inkscape:rounded="0"
       inkscape:randomized="0"
       d="m 318.2143,497.02995 -5.03159,-9.95215 11.13461,0.61859 z"
       inkscape:transform-center-x="0.050153515"
       inkscape:transform-center-y="-1.2198713"
       transform="matrix(-0.78449887,0.02798168,-0.02798168,-0.78449887,589.17527,874.00454)" />
    <path
       sodipodi:type="star"
       style="fill:#d35f5f;fill-opacity:1;stroke:#000000;stroke-width:1.68829477;stroke-linecap:round;stroke-linejoin:miter;stroke-miterlimit:4;stroke-dasharray:none;stroke-opacity:1"
       id="path4322"
       sodipodi:sides="3"
       sodipodi:cx="396.5"
       sodipodi:cy="498.86218"
       sodipodi:r1="8.276473"
       sodipodi:r2="4.1382365"
       sodipodi:arg1="-2.0074235"
       sodipodi:arg2="-0.96022594"
       inkscape:flatsided="true"
       inkscape:rounded="0"
       inkscape:randomized="0"
       d="m 393,491.36218 11.74519,8.21891 -12.99038,6.06218 z"
       inkscape:transform-center-x="-1.5010062"
       inkscape:transform-center-y="0.37827214"
       transform="matrix(0.87247558,-0.16782746,0.16782746,0.87247558,-29.097865,109.62138)" />
    <path
       transform="matrix(0.73988807,-0.07199865,0.07199865,0.73988807,83.746766,131.09396)"
       inkscape:transform-center-y="0.030862094"
       inkscape:transform-center-x="-1.5113357"
       d="m 393,491.36218 11.74519,8.21891 -12.99038,6.06218 z"
       inkscape:randomized="0"
       inkscape:rounded="0"
       inkscape:flatsided="true"
       sodipodi:arg2="-0.96022594"
       sodipodi:arg1="-2.0074235"
       sodipodi:r2="4.1382365"
       sodipodi:r1="8.276473"
       sodipodi:cy="498.86218"
       sodipodi:cx="396.5"
       sodipodi:sides="3"
       id="path4324"
       style="fill:#d35f5f;fill-opacity:1;stroke:#000000;stroke-width:2.01780272;stroke-linecap:round;stroke-linejoin:miter;stroke-miterlimit:4;stroke-dasharray:none;stroke-opacity:1"
       sodipodi:type="star" />
    <path
       sodipodi:type="spiral"
       style="fill:none;fill-rule:evenodd;stroke:#000000;stroke-width:1px;stroke-linecap:butt;stroke-linejoin:miter;stroke-opacity:1"
       id="path4383"
       sodipodi:cx="297.75"
       sodipodi:cy="590.61218"
       sodipodi:expansion="1"
       sodipodi:revolution="0.050000001"
       sodipodi:radius="55.005112"
       sodipodi:argument="-0.32779479"
       sodipodi:t0="0"
       d="m 297.75,590.61218 c 17.72758,-6.02849 37.09707,-6.10729 55,-0.75"
       transform="matrix(0.65347299,0,0,1.0198347,113.05841,-17.325056)" />
    <path
       sodipodi:type="spiral"
       style="fill:none;fill-rule:evenodd;stroke:#000000;stroke-width:1px;stroke-linecap:butt;stroke-linejoin:miter;stroke-opacity:1"
       id="path4385"
       sodipodi:cx="288"
       sodipodi:cy="569.86218"
       sodipodi:expansion="1"
       sodipodi:revolution="0.050000001"
       sodipodi:radius="73.510628"
       sodipodi:argument="-0.33116442"
       sodipodi:t0="0"
       d="m 288,569.86218 c 23.66443,-8.13645 49.54996,-8.32899 73.5,-1.25"
       transform="matrix(0.88460166,0,0,1.0046043,37.474409,-2.6091438)" />
    <path
       sodipodi:type="spiral"
       style="fill:none;fill-rule:evenodd;stroke:#000000;stroke-width:1px;stroke-linecap:butt;stroke-linejoin:miter;stroke-opacity:1"
       id="path4387"
       sodipodi:cx="283.75"
       sodipodi:cy="552.11218"
       sodipodi:expansion="1"
       sodipodi:revolution="0.050000001"
       sodipodi:radius="81.503448"
       sodipodi:argument="-0.32336146"
       sodipodi:t0="0"
       d="m 283.75,552.11218 c 26.30706,-8.81613 55.00792,-8.80565 81.5,-0.75" />
    <path
       sodipodi:type="spiral"
       style="fill:none;fill-rule:evenodd;stroke:#000000;stroke-width:1px;stroke-linecap:butt;stroke-linejoin:miter;stroke-opacity:1"
       id="path4389"
       sodipodi:cx="283.5"
       sodipodi:cy="536.61218"
       sodipodi:expansion="1"
       sodipodi:revolution="0.050000001"
       sodipodi:radius="82.046097"
       sodipodi:argument="-0.34768328"
       sodipodi:t0="0"
       d="m 283.5,536.61218 c 26.25855,-9.51623 55.14221,-10.20832 82,-2.75" />
  </g>
</svg>
