<?xml version="1.0" encoding="UTF-8" standalone="no"?>
<!-- Created with Inkscape (http://www.inkscape.org/) -->

<svg
   xmlns:dc="http://purl.org/dc/elements/1.1/"
   xmlns:cc="http://creativecommons.org/ns#"
   xmlns:rdf="http://www.w3.org/1999/02/22-rdf-syntax-ns#"
   xmlns:svg="http://www.w3.org/2000/svg"
   xmlns="http://www.w3.org/2000/svg"
   xmlns:sodipodi="http://sodipodi.sourceforge.net/DTD/sodipodi-0.dtd"
   xmlns:inkscape="http://www.inkscape.org/namespaces/inkscape"
   width="54.248188mm"
   height="67.302048mm"
   viewBox="0 0 192.21798 238.47182"
   id="svg2"
   version="1.1"
   inkscape:version="0.91 r13725"
   sodipodi:docname="gator_1.svg"
   inkscape:export-filename="C:\Users\david_000\Desktop\Files\number-nibbler\assets\image\gator_1.png"
   inkscape:export-xdpi="102.55748"
   inkscape:export-ydpi="102.55748">
  <sodipodi:namedview
     id="base"
     pagecolor="#ffffff"
     bordercolor="#666666"
     borderopacity="1.0"
     inkscape:pageopacity="0.0"
     inkscape:pageshadow="2"
     inkscape:zoom="2"
     inkscape:cx="36.72325"
     inkscape:cy="107.44937"
     inkscape:document-units="px"
     inkscape:current-layer="layer1"
     showgrid="false"
     showguides="false"
     inkscape:window-width="1920"
     inkscape:window-height="1017"
     inkscape:window-x="-8"
     inkscape:window-y="-8"
     inkscape:window-maximized="1"
     fit-margin-top="0.5"
     fit-margin-left="0.5"
     fit-margin-right="0.5"
     fit-margin-bottom="0.5" />
  <defs
     id="defs4" />
  <metadata
     id="metadata7">
    <rdf:RDF>
      <cc:Work
         rdf:about="">
        <dc:format>image/svg+xml</dc:format>
        <dc:type
           rdf:resource="http://purl.org/dc/dcmitype/StillImage" />
        <dc:title />
      </cc:Work>
    </rdf:RDF>
  </metadata>
  <g
     transform="translate(-231.69261,-398.91704)"
     id="layer1"
     inkscape:groupmode="layer"
     inkscape:label="Layer 1">
    <path
       sodipodi:nodetypes="csssssssssscccsscssscc"
       inkscape:connector-curvature="0"
       id="path4345"
       d="m 350.69146,632.32136 c 0.89504,-1.07845 2.04282,-5.93662 2.06387,-8.73572 0.022,-2.92395 1.61037,-2.72639 3.20462,0.3986 1.68612,3.30506 4.46001,6.55205 5.59739,6.55205 1.17843,0 1.15089,-1.60567 -0.12362,-7.20942 -0.61975,-2.72486 -0.80045,-4.79073 -0.44969,-5.14148 0.35075,-0.35075 1.9701,0.5948 4.0302,2.35327 1.89412,1.61679 4.27867,3.37131 5.29898,3.89894 1.75334,0.90668 1.85514,0.88604 1.85514,-0.37617 0,-0.84834 0.36271,-2.7852 -0.48619,-4.43055 -0.7303,-1.41548 -1.64099,-3.01583 -2.77739,-4.33383 l -1.98982,-2.3078 -0.56576,-20.80561 0,-21.29055 -6.32881,6.06007 c -3.48085,3.33304 -7.3838,6.77598 -8.6732,7.65096 l -2.3444,1.59089 -0.38922,19.74599 c -0.16943,8.59564 -2.3059,12.50266 -2.35001,16.29669 -0.0909,7.81949 2.14378,9.38444 2.8232,10.06386 0.73942,0.73942 1.00481,0.74271 1.60475,0.0198 z"
       style="fill:#88aa00;fill-opacity:1;stroke:#000000;stroke-width:2.20000005;stroke-linecap:round;stroke-linejoin:miter;stroke-miterlimit:4;stroke-dasharray:none;stroke-opacity:1" />
    <path
       sodipodi:nodetypes="ssscs"
       inkscape:connector-curvature="0"
       id="path4316"
       d="m 391.32988,538.45921 c -19.83041,30.58455 -35.17162,51.16482 -43.86042,45.53118 -8.68879,-5.63364 0.34328,-34.99429 20.17369,-65.57885 19.83041,-30.58455 51.6386,-45.17762 51.6386,-45.17762 0,0 -8.12146,34.64074 -27.95187,65.22529 z"
       style="fill:#88aa00;fill-opacity:1;stroke:#000000;stroke-width:2.20000005;stroke-linecap:round;stroke-linejoin:miter;stroke-miterlimit:4;stroke-dasharray:none;stroke-opacity:1" />
    <path
       style="fill:#7c9e00;fill-opacity:1;stroke:none;stroke-width:2.20000005;stroke-linecap:round;stroke-linejoin:miter;stroke-miterlimit:4;stroke-dasharray:none;stroke-opacity:1"
       d="m 393.09772,534.77097 c -11.40063,16.32152 -22.88082,36.50516 -28.53331,32.48566 -5.65246,-4.0195 7.72333,-27.46778 20.62396,-49.2893 12.90063,-21.82152 29.09338,-32.23341 29.09338,-32.23341 0,0 -6.66784,28.25519 -21.18403,49.03705 z"
       id="path4182"
       inkscape:connector-curvature="0"
       sodipodi:nodetypes="ssscs" />
    <path
       transform="matrix(1.3421552,-0.42382948,0.36174421,1.4836362,-337.3157,-74.021777)"
       inkscape:transform-center-y="1.2139396"
       inkscape:transform-center-x="-1.9578714"
       d="m 393,491.36218 11.74519,8.21891 -12.99038,6.06218 z"
       inkscape:randomized="0"
       inkscape:rounded="0"
       inkscape:flatsided="true"
       sodipodi:arg2="-0.96022594"
       sodipodi:arg1="-2.0074235"
       sodipodi:r2="4.1382365"
       sodipodi:r1="8.276473"
       sodipodi:cy="498.86218"
       sodipodi:cx="396.5"
       sodipodi:sides="3"
       id="path4318"
       style="fill:#d4ff2a;fill-opacity:1;stroke:#000000;stroke-width:1.44467092;stroke-linecap:round;stroke-linejoin:miter;stroke-miterlimit:4;stroke-dasharray:none;stroke-opacity:1"
       sodipodi:type="star" />
    <path
       style="fill:#88aa00;fill-opacity:1;stroke:#000000;stroke-width:2.20000005;stroke-linecap:round;stroke-linejoin:miter;stroke-miterlimit:4;stroke-dasharray:none;stroke-opacity:1"
       d="m 303.84935,633.73558 c -0.89504,-1.07845 -2.04282,-5.93662 -2.06387,-8.73572 -0.022,-2.92395 -1.61037,-2.72639 -3.20462,0.3986 -1.68612,3.30506 -4.46001,6.55205 -5.59739,6.55205 -1.17843,0 -1.15089,-1.60567 0.12362,-7.20942 0.61975,-2.72486 0.80045,-4.79073 0.44969,-5.14148 -0.35075,-0.35075 -1.9701,0.5948 -4.0302,2.35327 -1.89412,1.61679 -4.27867,3.37131 -5.29898,3.89894 -1.75334,0.90668 -1.85514,0.88604 -1.85514,-0.37617 0,-0.84834 -0.36271,-2.7852 0.48619,-4.43055 0.7303,-1.41548 1.64099,-3.01583 2.77739,-4.33383 l 1.98982,-2.3078 0.56576,-20.80561 0,-21.29055 6.32881,6.06007 c 3.48085,3.33304 7.3838,6.77598 8.6732,7.65096 l 2.3444,1.59089 0.38922,19.74599 c 0.16943,8.59564 2.3059,12.50266 2.35001,16.29669 0.0909,7.81949 -2.14378,9.38444 -2.8232,10.06386 -0.73942,0.73942 -1.00481,0.74271 -1.60475,0.0198 z"
       id="path4343"
       inkscape:connector-curvature="0"
       sodipodi:nodetypes="csssssssssscccsscssscc" />
    <path
       sodipodi:nodetypes="csssssscssscccsscssccc"
       inkscape:connector-curvature="0"
       id="path4347"
       d="m 239.69972,498.09379 c 0.23611,1.38146 3.91576,3.94809 6.027,5.78605 2.20538,1.91996 0.93613,3.29292 -2.38855,2.17333 -3.88398,-1.30793 -5.23053,-2.88049 -7.36941,-1.56466 -1.26821,0.7802 -1.75172,3.61313 -1.14207,4.31846 0.70957,0.82093 2.71316,0.38795 5.44753,1.82948 2.47197,1.3032 4.15789,2.51074 4.19585,3.00532 0.038,0.49455 -1.73392,1.10842 -4.40982,1.52772 0,0 -4.00489,0.59155 -4.57945,1.51931 -1.15691,1.86808 0.9283,4.13352 0.9283,4.13352 1.10782,1.1702 3.35762,0.71731 5.09788,0.71253 l 3.9853,-1.51708 15.22465,14.62199 16.16264,13.85844 -0.48094,-8.74911 c -0.2645,-4.81202 -0.33769,-10.01602 -0.16264,-11.56439 l 0.31829,-2.81529 -14.73674,-13.14854 c -6.41506,-5.72369 -7.99039,-9.88873 -10.84191,-12.39183 -5.87697,-5.15887 -7.93336,-5.06158 -8.89138,-4.98806 -1.3508,0.21083 -2.48228,2.62541 -2.3845,3.25284 z"
       style="fill:#88aa00;fill-opacity:1;stroke:#000000;stroke-width:2.20000005;stroke-linecap:round;stroke-linejoin:miter;stroke-miterlimit:4;stroke-dasharray:none;stroke-opacity:1" />
    <path
       style="fill:#88aa00;fill-opacity:1;stroke:#000000;stroke-width:2.20000005;stroke-linecap:round;stroke-linejoin:miter;stroke-miterlimit:4;stroke-dasharray:none;stroke-opacity:1"
       d="m 418.63763,506.88829 c -0.61564,1.25902 -4.86929,2.68526 -7.41274,3.85414 -2.65688,1.22103 -1.82577,2.89589 1.67967,2.75812 4.09513,-0.16097 5.8301,-1.29058 7.51175,0.57445 0.9971,1.10582 0.66309,3.96024 -0.12056,4.46529 -0.91208,0.58783 -2.71258,-0.39197 -5.74228,0.22099 -2.73895,0.55414 -4.69675,1.23791 -4.87247,1.70178 -0.17569,0.46388 1.3515,1.55194 3.80094,2.70799 0,0 3.67618,1.69556 3.9661,2.7477 0.58387,2.11831 -2.05502,3.70467 -2.05502,3.70467 -1.39258,0.81078 -3.42372,-0.25748 -5.09216,-0.75224 l -3.39662,-2.5782 -18.72682,9.7416 -19.41176,8.74476 2.92584,-8.2594 c 1.60921,-4.54268 3.14525,-9.51535 3.41342,-11.05034 l 0.48758,-2.79097 17.84364,-8.46523 c 7.76752,-3.685 10.45225,-7.23768 13.89336,-8.83623 7.09213,-3.29462 9.03785,-2.62205 9.93637,-2.28164 1.23666,0.5829 1.64227,3.21829 1.37172,3.79278 z"
       id="path4349"
       inkscape:connector-curvature="0"
       sodipodi:nodetypes="csssssscssscccsscssccc" />
    <path
       sodipodi:nodetypes="cccsscsssccsc"
       inkscape:connector-curvature="0"
       id="path3372"
       d="m 393.73729,532.01714 c -8.86008,6.48027 -23.20753,8.58472 -10.09245,2.63852 13.33063,-5.79677 24.82778,-23.23284 24.82778,-23.23284 0,0 -0.0219,3.20493 3.31021,3.00173 1.96358,-0.11975 5.07657,-0.24303 6.25138,-0.2461 3.2006,-0.008 1.5025,3.4843 1.5025,3.4843 0,0 -7.62627,-0.23786 -10.06322,1.43219 -1.64369,1.12642 -3.0039,2.50015 6.91482,6.77236 0.63348,0.27285 -0.34995,1.29954 -0.53015,1.86737 -0.66354,2.09095 -5.40946,0.0322 -5.40946,0.0322 l -3.33708,-2.78438 c 0,0 -8.82267,4.72202 -13.37433,7.03468 z"
       style="fill:#7c9e00;fill-opacity:1;stroke:none;stroke-width:2.20000005;stroke-linecap:round;stroke-linejoin:miter;stroke-miterlimit:4;stroke-dasharray:none;stroke-opacity:1" />
    <path
       sodipodi:type="star"
       style="fill:#d4ff2a;fill-opacity:1;stroke:#000000;stroke-width:1.5;stroke-linecap:round;stroke-linejoin:miter;stroke-miterlimit:4;stroke-dasharray:none;stroke-opacity:1"
       id="path4320"
       sodipodi:sides="3"
       sodipodi:cx="396.5"
       sodipodi:cy="498.86218"
       sodipodi:r1="8.276473"
       sodipodi:r2="4.1382365"
       sodipodi:arg1="-2.0074235"
       sodipodi:arg2="-0.96022594"
       inkscape:flatsided="true"
       inkscape:rounded="0"
       inkscape:randomized="0"
       d="m 393,491.36218 11.74519,8.21891 -12.99038,6.06218 z"
       inkscape:transform-center-x="-1.4580465"
       inkscape:transform-center-y="0.67372991"
       transform="matrix(0.96878762,-0.2478922,0.2478922,0.96878762,-118.90014,101.90805)" />
    <ellipse
       ry="74.55275"
       rx="55.620766"
       cy="532.96271"
       cx="325.38605"
       id="path4312"
       style="fill:#88aa00;fill-opacity:1;stroke:#000000;stroke-width:1.86400044;stroke-linecap:round;stroke-linejoin:miter;stroke-miterlimit:4;stroke-dasharray:none;stroke-opacity:1" />
    <ellipse
       ry="58.524742"
       rx="41.940659"
       cy="532.90601"
       cx="324.9321"
       id="path4314"
       style="fill:#ffdd55;fill-opacity:1;stroke:#000000;stroke-width:1.96985829;stroke-linecap:round;stroke-linejoin:miter;stroke-miterlimit:4;stroke-dasharray:none;stroke-opacity:1" />
    <path
       transform="matrix(1.015525,0,0,0.88182369,-5.2112346,56.277935)"
       d="m 285.75,522.36218 c 24.80166,-9.04286 52.10074,-9.75011 77.5,-2.75"
       sodipodi:t0="0"
       sodipodi:argument="-0.34962827"
       sodipodi:radius="77.548775"
       sodipodi:revolution="0.050000001"
       sodipodi:expansion="1"
       sodipodi:cy="522.36218"
       sodipodi:cx="285.75"
       id="path4391"
       style="fill:none;fill-rule:evenodd;stroke:#000000;stroke-width:1px;stroke-linecap:butt;stroke-linejoin:miter;stroke-opacity:1"
       sodipodi:type="spiral" />
    <path
       sodipodi:nodetypes="csssssssssssscssssscc"
       inkscape:connector-curvature="0"
       id="path4168"
       d="m 317.38822,508.40688 c -5.33423,-0.96798 -8.24991,-2.28831 -14.5453,-6.58664 -3.32833,-2.27249 -9.24868,-5.76104 -13.15632,-7.7523 -8.57589,-4.37013 -13.71122,-9.07602 -16.80728,-15.40181 -2.162,-4.41736 -3.87492,-11.30943 -3.89267,-15.66288 -0.005,-1.3511 0.0933,-2.59898 0.68925,-2.93846 0.79346,-0.45195 2.50928,0.3475 6.43179,1.1787 6.11235,1.29523 11.36339,4.30246 15.18511,8.69637 3.64794,4.19414 8.28603,6.78037 15.33707,8.55209 3.57598,0.89853 7.11367,1.10894 18.35246,1.09151 12.19021,-0.0189 14.61535,-0.19485 19.49025,-1.41405 7.96584,-1.99224 11.87238,-4.09903 15.64634,-8.43804 4.39471,-5.05272 10.48964,-8.08676 17.27613,-8.60001 l 4.37514,-0.0492 0.47353,3.72822 c 1.19688,9.42324 -3.96245,19.90215 -9.31347,24.6123 -1.63226,1.43677 -4.67049,3.37763 -6.75164,4.31303 -2.08116,0.9354 -8.92673,4.27636 -15.21238,7.42436 -6.28564,3.14799 -12.99474,6.08088 -14.90909,6.51752 -4.61227,1.052 -14.71546,1.44665 -18.6689,0.72923 z"
       style="fill:#ffdd55;fill-opacity:1;stroke:#000000;stroke-width:1.94915903;stroke-linecap:round;stroke-linejoin:miter;stroke-miterlimit:4;stroke-dasharray:none;stroke-opacity:1" />
    <path
       sodipodi:nodetypes="sssss"
       inkscape:connector-curvature="0"
       id="path4245"
       d="m 352.3451,475.01155 c 0,10.58235 -20.43543,27.13486 -27.03993,27.13486 -6.93675,0 -26.15395,-16.55251 -26.15395,-27.13486 0,-10.58235 11.90786,-19.16103 26.59694,-19.16103 14.68908,0 26.59694,8.57868 26.59694,19.16103 z"
       style="fill:#800000;fill-opacity:1;stroke:#000000;stroke-width:1.94915903;stroke-linecap:round;stroke-linejoin:miter;stroke-miterlimit:4;stroke-dasharray:none;stroke-opacity:1" />
    <path
       sodipodi:nodetypes="cscsssssscccc"
       inkscape:connector-curvature="0"
       id="path3341"
       d="m 324.95662,404.61582 c -17.95465,0 -26.74108,-6.91015 -35.84394,3.1636 -9.10285,10.07375 -18.75704,37.07265 -19.8093,52.38361 0.79346,-0.45195 2.88115,0.24848 6.80365,1.07969 6.11235,1.29523 11.36456,4.30323 15.18628,8.69715 3.64795,4.19414 8.28578,6.78008 15.33682,8.5518 3.57598,0.89853 7.11417,1.10932 18.35297,1.0919 12.1902,-0.0189 14.61495,-0.19457 19.48985,-1.41376 7.96584,-1.99224 11.87261,-4.09858 15.64657,-8.43759 4.39472,-5.05272 10.48842,-8.08699 17.27491,-8.60025 l 4.37107,-0.33224 c -3.13502,-17.27778 -9.0377,-38.90566 -20.00739,-52.97828 -9.32401,-11.63968 -17.14155,-3.20563 -36.80149,-3.20563 z"
       style="fill:#88aa00;fill-opacity:1;stroke:#000000;stroke-width:1.94915903;stroke-linecap:round;stroke-linejoin:miter;stroke-miterlimit:4;stroke-dasharray:none;stroke-opacity:1" />
    <path
       transform="matrix(0.78497075,-0.00651016,0.00651016,0.78497075,63.336317,99.741369)"
       inkscape:transform-center-y="1.1588975"
       inkscape:transform-center-x="-0.11926737"
       d="m 318.2143,497.02995 -5.03159,-9.95215 11.13461,0.61859 z"
       inkscape:randomized="0"
       inkscape:rounded="0"
       inkscape:flatsided="true"
       sodipodi:arg2="2.6734924"
       sodipodi:arg1="1.6262948"
       sodipodi:r2="3.2192421"
       sodipodi:r1="6.4384842"
       sodipodi:cy="490.60138"
       sodipodi:cx="318.57144"
       sodipodi:sides="3"
       id="path4247"
       style="fill:#ffffff;fill-opacity:1;stroke:#000000;stroke-width:0.68439603;stroke-linecap:round;stroke-linejoin:miter;stroke-miterlimit:4;stroke-dasharray:none;stroke-opacity:1"
       sodipodi:type="star" />
    <path
       sodipodi:type="star"
       style="fill:#ffffff;fill-opacity:1;stroke:#000000;stroke-width:0.68439603;stroke-linecap:round;stroke-linejoin:miter;stroke-miterlimit:4;stroke-dasharray:none;stroke-opacity:1"
       id="path4253"
       sodipodi:sides="3"
       sodipodi:cx="318.57144"
       sodipodi:cy="490.60138"
       sodipodi:r1="6.4384842"
       sodipodi:r2="3.2192421"
       sodipodi:arg1="1.6262948"
       sodipodi:arg2="2.6734924"
       inkscape:flatsided="true"
       inkscape:rounded="0"
       inkscape:randomized="0"
       d="m 318.2143,497.02995 -5.03159,-9.95215 11.13461,0.61859 z"
       inkscape:transform-center-x="0.080615664"
       inkscape:transform-center-y="1.1037531"
       transform="matrix(0.72658267,-0.06545129,0.06545129,0.72658267,71.87978,146.66842)" />
    <path
       sodipodi:type="star"
       style="fill:#ffffff;fill-opacity:1;stroke:#000000;stroke-width:0.68439603;stroke-linecap:round;stroke-linejoin:miter;stroke-miterlimit:4;stroke-dasharray:none;stroke-opacity:1"
       id="path4259"
       sodipodi:sides="3"
       sodipodi:cx="318.57144"
       sodipodi:cy="490.60138"
       sodipodi:r1="6.4384842"
       sodipodi:r2="3.2192421"
       sodipodi:arg1="1.6262948"
       sodipodi:arg2="2.6734924"
       inkscape:flatsided="true"
       inkscape:rounded="0"
       inkscape:randomized="0"
       d="m 318.2143,497.02995 -5.03159,-9.95215 11.13461,0.61859 z"
       inkscape:transform-center-x="-0.42033234"
       inkscape:transform-center-y="0.88197666"
       transform="matrix(0.78011442,0.08742398,-0.08742398,0.78011442,100.44137,70.855528)" />
    <path
       transform="matrix(0.78425786,-0.03407434,0.03407434,0.78425786,59.339352,108.98414)"
       inkscape:transform-center-y="1.2370507"
       inkscape:transform-center-x="-0.030543315"
       d="m 318.2143,497.02995 -5.03159,-9.95215 11.13461,0.61859 z"
       inkscape:randomized="0"
       inkscape:rounded="0"
       inkscape:flatsided="true"
       sodipodi:arg2="2.6734924"
       sodipodi:arg1="1.6262948"
       sodipodi:r2="3.2192421"
       sodipodi:r1="6.4384842"
       sodipodi:cy="490.60138"
       sodipodi:cx="318.57144"
       sodipodi:sides="3"
       id="path4261"
       style="fill:#ffffff;fill-opacity:1;stroke:#000000;stroke-width:0.68439603;stroke-linecap:round;stroke-linejoin:miter;stroke-miterlimit:4;stroke-dasharray:none;stroke-opacity:1"
       sodipodi:type="star" />
    <path
       sodipodi:type="star"
       style="fill:#ffffff;fill-opacity:1;stroke:#000000;stroke-width:0.68439603;stroke-linecap:round;stroke-linejoin:miter;stroke-miterlimit:4;stroke-dasharray:none;stroke-opacity:1"
       id="path4263"
       sodipodi:sides="3"
       sodipodi:cx="318.57144"
       sodipodi:cy="490.60138"
       sodipodi:r1="6.4384842"
       sodipodi:r2="3.2192421"
       sodipodi:arg1="1.6262948"
       sodipodi:arg2="2.6734924"
       inkscape:flatsided="true"
       inkscape:rounded="0"
       inkscape:randomized="0"
       d="m 318.2143,497.02995 -5.03159,-9.95215 11.13461,0.61859 z"
       inkscape:transform-center-x="0.43471139"
       inkscape:transform-center-y="0.86824244"
       transform="matrix(0.76461326,-0.17773019,0.17773019,0.76461326,14.201458,162.70722)" />
    <path
       sodipodi:type="star"
       style="fill:#ffffff;fill-opacity:1;stroke:#000000;stroke-width:0.68439603;stroke-linecap:round;stroke-linejoin:miter;stroke-miterlimit:4;stroke-dasharray:none;stroke-opacity:1"
       id="path4265"
       sodipodi:sides="3"
       sodipodi:cx="318.57144"
       sodipodi:cy="490.60138"
       sodipodi:r1="6.4384842"
       sodipodi:r2="3.2192421"
       sodipodi:arg1="1.6262948"
       sodipodi:arg2="2.6734924"
       inkscape:flatsided="true"
       inkscape:rounded="0"
       inkscape:randomized="0"
       d="m 318.2143,497.02995 -5.03159,-9.95215 11.13461,0.61859 z"
       inkscape:transform-center-x="0.87242873"
       inkscape:transform-center-y="0.43032288"
       transform="matrix(-0.63000926,-0.46830522,0.46830522,-0.63000926,286.88674,951.7739)" />
    <path
       transform="matrix(-0.58325002,0.52539592,-0.52539592,-0.58325002,779.11839,611.55857)"
       inkscape:transform-center-y="-1.2557791"
       inkscape:transform-center-x="-2.9202778"
       d="m 318.2143,497.02995 -5.03159,-9.95215 11.13461,0.61859 z"
       inkscape:randomized="0"
       inkscape:rounded="0"
       inkscape:flatsided="true"
       sodipodi:arg2="2.6734924"
       sodipodi:arg1="1.6262948"
       sodipodi:r2="3.2192421"
       sodipodi:r1="6.4384842"
       sodipodi:cy="490.60138"
       sodipodi:cx="318.57144"
       sodipodi:sides="3"
       id="path4267"
       style="fill:#ffffff;fill-opacity:1;stroke:#000000;stroke-width:0.68439603;stroke-linecap:round;stroke-linejoin:miter;stroke-miterlimit:4;stroke-dasharray:none;stroke-opacity:1"
       sodipodi:type="star" />
    <ellipse
       ry="10.710867"
       rx="11.469161"
       cy="422.12234"
       cx="300.10153"
       id="path4297"
       style="fill:#ffffff;fill-opacity:1;stroke:#000000;stroke-width:1.25447047;stroke-linecap:round;stroke-linejoin:miter;stroke-miterlimit:4;stroke-dasharray:none;stroke-opacity:1" />
    <ellipse
       style="fill:#ffffff;fill-opacity:1;stroke:#000000;stroke-width:1.24795055;stroke-linecap:round;stroke-linejoin:miter;stroke-miterlimit:4;stroke-dasharray:none;stroke-opacity:1"
       id="ellipse4299"
       cx="353.12546"
       cy="421.88147"
       rx="11.209003"
       ry="10.845835" />
    <ellipse
       style="fill:#d40000;fill-opacity:1;stroke:#000000;stroke-width:1.1590606;stroke-linecap:round;stroke-linejoin:miter;stroke-miterlimit:4;stroke-dasharray:none;stroke-opacity:1"
       id="ellipse4293"
       cx="353.66025"
       cy="422.51605"
       rx="7.4298306"
       ry="7.0573034" />
    <ellipse
       ry="7.0573034"
       rx="7.4298306"
       cy="422.33163"
       cx="300.73965"
       id="ellipse4301"
       style="fill:#d40000;fill-opacity:1;stroke:#000000;stroke-width:1.1590606;stroke-linecap:round;stroke-linejoin:miter;stroke-miterlimit:4;stroke-dasharray:none;stroke-opacity:1" />
    <ellipse
       ry="2.3049023"
       rx="2.7658827"
       cy="422.92126"
       cx="300.77286"
       id="path4303"
       style="fill:#000000;fill-opacity:1;stroke:#000000;stroke-width:1.04307961;stroke-linecap:round;stroke-linejoin:miter;stroke-miterlimit:4;stroke-dasharray:none;stroke-opacity:1" />
    <ellipse
       style="fill:#000000;fill-opacity:1;stroke:#000000;stroke-width:1.04307961;stroke-linecap:round;stroke-linejoin:miter;stroke-miterlimit:4;stroke-dasharray:none;stroke-opacity:1"
       id="ellipse4305"
       cx="353.69342"
       cy="422.55249"
       rx="2.7658827"
       ry="2.3049023" />
    <path
       transform="matrix(-0.78449887,0.02798168,-0.02798168,-0.78449887,589.17527,874.00454)"
       inkscape:transform-center-y="-1.2198713"
       inkscape:transform-center-x="0.050153515"
       d="m 318.2143,497.02995 -5.03159,-9.95215 11.13461,0.61859 z"
       inkscape:randomized="0"
       inkscape:rounded="0"
       inkscape:flatsided="true"
       sodipodi:arg2="2.6734924"
       sodipodi:arg1="1.6262948"
       sodipodi:r2="3.2192421"
       sodipodi:r1="6.4384842"
       sodipodi:cy="490.60138"
       sodipodi:cx="318.57144"
       sodipodi:sides="3"
       id="path4308"
       style="fill:#ffffff;fill-opacity:1;stroke:#000000;stroke-width:0.68439603;stroke-linecap:round;stroke-linejoin:miter;stroke-miterlimit:4;stroke-dasharray:none;stroke-opacity:1"
       sodipodi:type="star" />
    <path
       transform="matrix(0.87247558,-0.16782746,0.16782746,0.87247558,-29.097865,109.62138)"
       inkscape:transform-center-y="0.37827214"
       inkscape:transform-center-x="-1.5010062"
       d="m 393,491.36218 11.74519,8.21891 -12.99038,6.06218 z"
       inkscape:randomized="0"
       inkscape:rounded="0"
       inkscape:flatsided="true"
       sodipodi:arg2="-0.96022594"
       sodipodi:arg1="-2.0074235"
       sodipodi:r2="4.1382365"
       sodipodi:r1="8.276473"
       sodipodi:cy="498.86218"
       sodipodi:cx="396.5"
       sodipodi:sides="3"
       id="path4322"
       style="fill:#d4ff2a;fill-opacity:1;stroke:#000000;stroke-width:1.68829477;stroke-linecap:round;stroke-linejoin:miter;stroke-miterlimit:4;stroke-dasharray:none;stroke-opacity:1"
       sodipodi:type="star" />
    <path
       sodipodi:type="star"
       style="fill:#d4ff2a;fill-opacity:1;stroke:#000000;stroke-width:2.01780272;stroke-linecap:round;stroke-linejoin:miter;stroke-miterlimit:4;stroke-dasharray:none;stroke-opacity:1"
       id="path4324"
       sodipodi:sides="3"
       sodipodi:cx="396.5"
       sodipodi:cy="498.86218"
       sodipodi:r1="8.276473"
       sodipodi:r2="4.1382365"
       sodipodi:arg1="-2.0074235"
       sodipodi:arg2="-0.96022594"
       inkscape:flatsided="true"
       inkscape:rounded="0"
       inkscape:randomized="0"
       d="m 393,491.36218 11.74519,8.21891 -12.99038,6.06218 z"
       inkscape:transform-center-x="-1.5113357"
       inkscape:transform-center-y="0.030862094"
       transform="matrix(0.73988807,-0.07199865,0.07199865,0.73988807,83.746766,131.09396)" />
    <path
       transform="matrix(0.65347299,0,0,1.0198347,113.05841,-17.325056)"
       d="m 297.75,590.61218 c 17.72758,-6.02849 37.09707,-6.10729 55,-0.75"
       sodipodi:t0="0"
       sodipodi:argument="-0.32779479"
       sodipodi:radius="55.005112"
       sodipodi:revolution="0.050000001"
       sodipodi:expansion="1"
       sodipodi:cy="590.61218"
       sodipodi:cx="297.75"
       id="path4383"
       style="fill:none;fill-rule:evenodd;stroke:#000000;stroke-width:1px;stroke-linecap:butt;stroke-linejoin:miter;stroke-opacity:1"
       sodipodi:type="spiral" />
    <path
       transform="matrix(0.88460166,0,0,1.0046043,37.474409,-2.6091438)"
       d="m 288,569.86218 c 23.66443,-8.13645 49.54996,-8.32899 73.5,-1.25"
       sodipodi:t0="0"
       sodipodi:argument="-0.33116442"
       sodipodi:radius="73.510628"
       sodipodi:revolution="0.050000001"
       sodipodi:expansion="1"
       sodipodi:cy="569.86218"
       sodipodi:cx="288"
       id="path4385"
       style="fill:none;fill-rule:evenodd;stroke:#000000;stroke-width:1px;stroke-linecap:butt;stroke-linejoin:miter;stroke-opacity:1"
       sodipodi:type="spiral" />
    <path
       d="m 283.75,552.11218 c 26.30706,-8.81613 55.00792,-8.80565 81.5,-0.75"
       sodipodi:t0="0"
       sodipodi:argument="-0.32336146"
       sodipodi:radius="81.503448"
       sodipodi:revolution="0.050000001"
       sodipodi:expansion="1"
       sodipodi:cy="552.11218"
       sodipodi:cx="283.75"
       id="path4387"
       style="fill:none;fill-rule:evenodd;stroke:#000000;stroke-width:1px;stroke-linecap:butt;stroke-linejoin:miter;stroke-opacity:1"
       sodipodi:type="spiral" />
    <path
       d="m 283.5,536.61218 c 26.25855,-9.51623 55.14221,-10.20832 82,-2.75"
       sodipodi:t0="0"
       sodipodi:argument="-0.34768328"
       sodipodi:radius="82.046097"
       sodipodi:revolution="0.050000001"
       sodipodi:expansion="1"
       sodipodi:cy="536.61218"
       sodipodi:cx="283.5"
       id="path4389"
       style="fill:none;fill-rule:evenodd;stroke:#000000;stroke-width:1px;stroke-linecap:butt;stroke-linejoin:miter;stroke-opacity:1"
       sodipodi:type="spiral" />
    <path
       sodipodi:nodetypes="cccscccc"
       inkscape:connector-curvature="0"
       id="path3371"
       d="m 298.80077,474.45133 c -1.65915,-0.97184 -0.27022,-3.19505 -0.0723,-5.86866 -0.0873,-0.32781 6.74241,-11.32212 10.12391,-12.43962 6.51302,-5.01914 25.19371,-6.52748 35.03774,-0.38856 3.3189,2.06973 8.86778,18.75584 8.86778,18.75584 -8.12224,2.90235 -12.52818,4.63829 -27.46011,4.14099 -3.24297,-0.0289 -5.27567,0.006 -6.50096,0.14593 -14.76235,-0.68982 -18.16952,-3.31925 -19.99606,-4.34592 z"
       style="fill:#7c9e00;fill-opacity:1;stroke:none;stroke-width:6.25;stroke-miterlimit:4;stroke-dasharray:none;stroke-opacity:1" />
    <path
       sodipodi:nodetypes="ccssaaac"
       inkscape:connector-curvature="0"
       id="path3373"
       d="m 335.39841,469.50627 c 1.21973,3.72322 0.73796,9.01043 -2.19244,9.22228 -2.4526,0.18251 -5.6754,-0.0897 -8.51337,-0.0897 -2.52656,0 -7.76106,0.20876 -10.05506,-0.0366 -0.53665,-0.0574 -1.0883,0.0421 -1.3764,-0.33174 -1.7568,-2.27941 -1.20971,-6.1124 0.18146,-8.63167 2.12283,-3.84425 6.60859,-7.23548 11,-7.25 4.35489,-0.0144 8.94476,3.25467 10.95581,7.11743 z"
       style="fill:#586d00;fill-opacity:1;stroke:none;stroke-width:6.25;stroke-miterlimit:4;stroke-dasharray:none;stroke-opacity:1" />
    <ellipse
       style="fill:#002b00;fill-opacity:1;stroke:#000000;stroke-width:0;stroke-linecap:round;stroke-linejoin:miter;stroke-miterlimit:4;stroke-dasharray:none;stroke-opacity:1"
       id="ellipse4207"
       cx="329.95419"
       cy="471.77206"
       rx="2.6849289"
       ry="3.4680333" />
    <ellipse
       ry="3.4680333"
       rx="2.6849289"
       cy="471.77206"
       cx="318.99072"
       id="path4205"
       style="fill:#002b00;fill-opacity:1;stroke:#000000;stroke-width:0;stroke-linecap:round;stroke-linejoin:miter;stroke-miterlimit:4;stroke-dasharray:none;stroke-opacity:1" />
    <g
       id="g4212"
       style="fill:#ffea92;fill-opacity:1">
      <g
         id="g4238"
         style="fill:#ffea92;fill-opacity:1">
        <path
           sodipodi:nodetypes="cssscc"
           inkscape:connector-curvature="0"
           id="path4208"
           d="m 44.384855,82.669948 c -2.892641,-3.16501 -3.217218,-5.056928 -4.6503,-10.528277 -0.892513,-3.407517 -1.560497,-8.753204 -1.176301,-9.413597 0.417648,-0.717892 8.80435,1.403349 12.213832,3.089234 2.663433,1.316987 -0.215704,-0.6219 0.112673,0.233838 -0.663321,2.422242 -2.301571,20.23646 -6.499904,16.618802 z"
           style="fill:#ffea92;fill-opacity:1;stroke:none;stroke-width:6.25;stroke-miterlimit:4;stroke-dasharray:none;stroke-opacity:1"
           transform="translate(231.69261,398.91704)" />
      </g>
    </g>
    <path
       sodipodi:nodetypes="csccscacsssssc"
       transform="translate(231.69261,398.91704)"
       inkscape:connector-curvature="0"
       id="path4218"
       d="m 86.283593,206.82272 c -0.699475,-0.13191 -6.184502,-1.42304 -11.440501,-3.80137 -6.173053,-2.7933 24.607573,-9.94176 24.607573,-9.94176 0,0 31.483665,-7.10917 36.259615,-48.72075 0.27572,-1.87924 3.15681,-5.85744 3.73159,-7.2749 l 1.76777,-4.35947 c 0,0 0.79161,-3.43865 1.4404,-5.07205 1.171,-2.94812 4.39014,-8.44337 4.39014,-8.44337 l 0.23711,1.3868 c 0.62197,3.63788 1.07417,12.71982 0.85242,17.11993 -0.6833,13.55855 -3.49596,25.20791 -8.68434,35.96846 -8.31008,17.23486 -20.73513,28.54788 -35.71239,32.51616 -4.298756,1.13897 -13.05414,1.45122 -17.449387,0.6223 z"
       style="fill:#7c9e00;fill-opacity:1;stroke:none;stroke-width:6.25;stroke-miterlimit:4;stroke-dasharray:none;stroke-opacity:1" />
    <path
       sodipodi:nodetypes="ccacsscsscc"
       transform="translate(231.69261,398.91704)"
       inkscape:connector-curvature="0"
       id="path4226"
       d="m 109.21928,183.40499 c -3.07984,-0.8947 -5.27445,-1.64265 -5.27445,-1.64265 0,0 4.60285,-5.56356 6.47401,-8.63661 1.17408,-1.92822 2.94964,-6.09658 2.94964,-6.09658 l 3.94684,1.13859 c 2.53192,0.73041 5.25674,1.39617 5.99347,1.71098 l 1.33951,0.57238 -1.83951,2.75 c -1.94146,2.90241 -9.00294,10.81146 -10.31587,11.44895 -0.45216,0.21954 -1.6664,-0.5901 -3.27364,-1.2451 z"
       style="fill:#ffcc00;fill-opacity:1;stroke:none;stroke-width:6.25;stroke-miterlimit:4;stroke-dasharray:none;stroke-opacity:1" />
    <path
       sodipodi:nodetypes="ssssssss"
       transform="translate(231.69261,398.91704)"
       inkscape:connector-curvature="0"
       id="path4228"
       d="m 85.962797,190.46042 c -2.496296,-0.65444 -4.001872,-1.12581 -4.21234,-1.52204 -0.135063,-0.25427 0.594073,-0.41509 0.845543,-0.636 0.880037,-0.77307 7.416881,-0.70613 10.873278,-1.09601 5.507825,-0.62128 9.475392,-4.34468 9.475392,-4.34468 4.54319,1.31894 7.83711,2.34109 7.83711,2.81055 0,0.78142 -6.41117,3.82906 -10.17301,4.79118 -4.790745,1.22526 -9.964854,1.22423 -14.645973,-0.003 z"
       style="fill:#ffcc00;fill-opacity:1;stroke:none;stroke-width:6.25;stroke-miterlimit:4;stroke-dasharray:none;stroke-opacity:1" />
    <path
       transform="translate(231.69261,398.91704)"
       inkscape:connector-curvature="0"
       id="path4232"
       d="m 119.2949,167.17174 c -2.84592,-0.77149 -5.26212,-1.49044 -5.36936,-1.59767 -0.10723,-0.10723 0.51225,-1.30376 1.37662,-2.65895 0.86437,-1.35519 2.6935,-4.71398 4.06473,-7.46398 1.37122,-2.75 2.53907,-5.05886 2.59521,-5.13079 0.13939,-0.17858 9.2432,2.20015 9.53425,2.49119 0.77128,0.77128 -5.4431,15.94663 -6.48092,15.82625 -0.30038,-0.0349 -2.87462,-0.69457 -5.72053,-1.46605 z"
       style="fill:#ffcc00;fill-opacity:1;stroke:none;stroke-width:6.25;stroke-miterlimit:4;stroke-dasharray:none;stroke-opacity:1" />
    <path
       transform="translate(231.69261,398.91704)"
       inkscape:connector-curvature="0"
       id="path4234"
       d="m 127.21928,150.00191 c -2.88396,-0.74883 -4.24632,-1.33612 -4.23854,-1.82715 0.006,-0.39799 0.99179,-3.72192 2.18998,-7.38652 2.44341,-7.47302 1.68183,-6.84962 6.74473,-5.52096 l 1.94617,0.51073 -0.29855,4.58656 c -0.33236,5.10611 -1.2779,10.86227 -1.77222,10.78873 -0.17686,-0.0263 -2.23407,-0.54444 -4.57157,-1.15139 z"
       style="fill:#ffcc00;fill-opacity:1;stroke:none;stroke-width:6.25;stroke-miterlimit:4;stroke-dasharray:none;stroke-opacity:1" />
    <path
       transform="translate(231.69261,398.91704)"
       inkscape:connector-curvature="0"
       id="path4236"
       d="m 130.55271,133.28656 c -2.58574,-0.63257 -2.88505,-0.83385 -2.63866,-1.77446 0.15285,-0.58353 0.8871,-4.21096 1.63166,-8.06096 0.74457,-3.85 1.42947,-7.0975 1.522,-7.21667 0.97776,-1.25923 2.78224,8.81272 2.55142,14.24113 l -0.14985,3.52447 -2.91657,-0.71351 z"
       style="fill:#ffcc00;fill-opacity:1;stroke:none;stroke-width:6.25;stroke-miterlimit:4;stroke-dasharray:none;stroke-opacity:1" />
    <path
       transform="translate(231.69261,398.91704)"
       inkscape:connector-curvature="0"
       id="path4246"
       d="m 130.89382,93.353578 c 6.39745,-8.938416 10.97505,-17.368619 12.36625,-22.773954 0.59304,-2.304173 0.71488,-4.369259 0.34314,-5.815803 -0.15989,-0.622171 -0.25475,-1.167179 -0.2108,-1.211129 0.0768,-0.0768 5.63186,-0.393663 5.70942,-0.325663 0.0208,0.01827 0.16798,1.063574 0.32699,2.32289 0.65417,5.181063 -0.29551,10.312372 -2.91426,15.746442 -2.43714,5.057216 -5.12322,8.156468 -9.36203,10.802098 -1.39742,0.872187 -7.87503,4.113786 -8.22048,4.113786 -0.0463,0 0.83647,-1.286401 1.96177,-2.858667 z"
       style="fill:#ffcc00;fill-opacity:1;stroke:none;stroke-width:6.25;stroke-miterlimit:4;stroke-dasharray:none;stroke-opacity:1" />
    <path
       transform="translate(231.69261,398.91704)"
       inkscape:connector-curvature="0"
       id="path4248"
       d="m 129.20845,95.906466 c 0.0511,-0.08594 0.88135,-1.28125 1.84504,-2.65625 7.95004,-11.343208 12.16185,-19.746858 12.73522,-25.410028 0.12453,-1.23 0.11353,-1.585739 -0.0861,-2.78626 -0.12589,-0.756928 -0.20593,-1.399199 -0.17786,-1.42727 0.0855,-0.08552 4.3795,-0.338645 4.98061,-0.293597 l 0.5625,0.04216 0.16107,1 c 0.0886,0.55 0.19401,2.166951 0.23427,3.593224 0.0588,2.083648 0.0308,2.894223 -0.14239,4.125 -0.84322,5.991326 -4.08687,12.773577 -7.93254,16.586435 -1.17206,1.162053 -2.88951,2.508695 -4.32041,3.387602 -0.88587,0.544128 -7.66473,3.993058 -7.85113,3.994471 -0.0556,4.23e-4 -0.0593,-0.06955 -0.008,-0.155482 z"
       style="fill:#ffcc00;fill-opacity:1;stroke:none;stroke-width:6.25;stroke-miterlimit:4;stroke-dasharray:none;stroke-opacity:1" />
    <path
       sodipodi:nodetypes="csssssccscssssssscc"
       transform="translate(231.69261,398.91704)"
       inkscape:connector-curvature="0"
       id="path4264"
       d="m 41.588648,60.631805 c -1.134375,-0.263536 -2.245977,-0.483028 -2.470227,-0.487761 -0.398009,-0.0084 -0.406211,-0.01978 -0.344144,-0.477354 0.459463,-3.387307 0.650656,-4.584311 1.068077,-6.686925 C 42.483665,39.675054 48.489101,23.978811 54.5994,14.409676 58.380974,8.4874812 61.945077,5.5385566 66.324886,4.7080603 67.720341,4.4434547 70.1528,4.305515 70.034009,4.4977234 c -0.05109,0.082656 -7.5e-4,0.344363 0.111776,0.5815701 0.482626,1.0170593 0.30711,2.8592018 -0.50549,5.3053995 l -0.439573,1.323261 -1.649786,0.14697 c -3.042787,0.271064 -5.253257,1.165386 -7.450272,3.014264 -1.530517,1.287993 -2.984318,3.638675 -3.527542,5.703752 -0.3715,1.412266 -0.370338,3.846001 0.0025,5.25 0.703765,2.650129 2.499698,5.184345 4.675968,6.598193 0.589037,0.382678 0.598925,0.399702 0.520361,0.895948 -0.626145,3.955043 -4.454387,13.41276 -6.95924,17.192887 -0.825214,1.245348 -3.597914,9.741769 -5.766213,11.750527 -5.382157,-0.872599 -2.441155,-0.46285 -7.45785,-1.62869 z"
       style="fill:#92b600;fill-opacity:1;stroke:none;stroke-width:6.25;stroke-miterlimit:4;stroke-dasharray:none;stroke-opacity:1" />
    <path
       sodipodi:nodetypes="csssscscccccsscc"
       transform="translate(231.69261,398.91704)"
       inkscape:connector-curvature="0"
       id="path4268"
       d="m 72.106487,230.61252 c -0.300854,-1.40283 -0.547008,-3.30211 -0.547008,-4.22061 0,-0.91849 -0.423568,-2.19308 -0.941263,-2.8324 -0.819677,-1.01226 -1.104613,-1.08799 -2.20582,-0.58625 -0.695505,0.3169 -2.371387,2.21058 -3.364374,4.34053 -0.878687,1.88477 -3.153991,4.30117 -3.308106,4.14705 -0.154115,-0.15411 0.220773,-2.77098 0.759431,-5.08851 1.054305,-4.53605 0.655346,-5.6865 0.0323,-6.78173 0,0 2.880171,-6.71654 4.136998,-8.40996 0,0 2.312491,-4.68151 4.015838,-7.8538 l 2.375,1.37931 0.0066,4.32749 c 0.0036,2.38012 0.214315,6.52548 0.99343,9.07749 1.605705,5.25952 1.592187,10.58313 0.534279,13.08745 -1.963859,4.64893 -1.867165,2.3054 -2.487271,-0.58606 z"
       style="fill:#7c9e00;fill-opacity:1;stroke:none;stroke-width:6.25;stroke-miterlimit:4;stroke-dasharray:none;stroke-opacity:1" />
    <path
       transform="translate(231.69261,398.91704)"
       inkscape:connector-curvature="0"
       id="path4270"
       d="m 117.81443,232.20508 c -1.34361,-1.48721 -1.95821,-3.72981 -2.05868,-7.51185 -0.0572,-2.15349 0.0227,-2.91136 0.54517,-5.17072 1.35168,-5.84522 1.68635,-8.50265 1.79854,-14.28115 l 0.0591,-3.04126 1.29381,-0.88474 c 4.88012,-3.33715 9.5151,-7.72223 13.29162,-12.57499 l 0.70575,-0.90687 0.0628,4.13305 c 0.0345,2.27317 0.17913,8.27796 0.32134,13.34397 l 0.25858,9.21093 1.3897,1.61664 c 0.76433,0.88916 1.63997,1.99451 1.94585,2.45634 0.72053,1.08784 1.5233,2.5493 1.74368,3.17438 0.18852,0.53471 0.30877,1.97851 0.20906,2.51002 l -0.0596,0.31757 -0.50029,-0.29457 c -0.82581,-0.48623 -2.63088,-1.82731 -4.36034,-3.23953 -1.99008,-1.62503 -2.53118,-2.01686 -3.48831,-2.52602 -0.94832,-0.50448 -1.51866,-0.58585 -2.10769,-0.30071 -0.24465,0.11843 -0.4812,0.32193 -0.60425,0.51981 -0.18992,0.30542 -0.20165,0.41113 -0.19307,1.7394 0.01,1.54633 0.0518,1.82298 0.82077,5.43588 0.41832,1.96532 0.76285,4.06058 0.69912,4.25176 -0.0423,0.12679 -1.39056,-1.26123 -2.02653,-2.08624 -0.73672,-0.95571 -1.54213,-2.20277 -2.11216,-3.27037 -1.03876,-1.94551 -1.93685,-2.97286 -2.84984,-3.26003 -0.88409,-0.27808 -1.72528,0.0513 -2.18481,0.85547 -0.33136,0.57988 -0.41553,1.01022 -0.5296,2.70777 -0.10984,1.63461 -0.3421,3.06582 -0.7684,4.73492 -0.29379,1.15031 -0.74787,2.47045 -0.90579,2.63344 -0.0374,0.0386 -0.21536,-0.0929 -0.39547,-0.2923 z"
       style="fill:#7c9e00;fill-opacity:1;stroke:none;stroke-width:6.25;stroke-miterlimit:4;stroke-dasharray:none;stroke-opacity:1" />
    <path
       transform="translate(231.69261,398.91704)"
       inkscape:connector-curvature="0"
       id="path4276"
       d="m 52.488559,132.02018 c 0.09786,-4.80578 0.314871,-7.22065 1.029414,-11.45497 l 0.374858,-2.22138 3.559994,-1.00532 c 4.123867,-1.16454 7.502462,-1.98208 7.636659,-1.84789 0.05137,0.0514 -0.103979,0.95826 -0.345218,2.01531 -0.743065,3.25592 -1.475701,7.23385 -2.046976,11.11429 -0.300587,2.04177 -0.603687,4.0589 -0.673554,4.48251 l -0.127033,0.77019 -3.18198,0.94355 c -1.75009,0.51895 -3.888978,1.18527 -4.753086,1.48072 l -1.571105,0.53717 0.09803,-4.81418 z"
       style="fill:#ffe680;fill-opacity:1;stroke:none;stroke-width:6.25;stroke-miterlimit:4;stroke-dasharray:none;stroke-opacity:1" />
    <path
       transform="translate(231.69261,398.91704)"
       inkscape:connector-curvature="0"
       id="path4278"
       d="m 54.303252,116.46683 c 0.346566,-1.60022 1.589024,-5.8555 2.269943,-7.7743 1.039013,-2.92789 2.030115,-5.23266 3.494475,-8.12626 l 1.22536,-2.421331 2.157992,1.253097 c 1.770395,1.028024 6.250072,3.766044 6.454982,3.945334 0.02989,0.0262 -0.241975,0.51079 -0.60415,1.07696 -0.920117,1.43837 -1.829705,3.60895 -2.809024,6.70326 -0.460831,1.45606 -0.859808,2.73173 -0.886615,2.83481 -0.02681,0.10307 -1.309936,0.49122 -2.851398,0.86253 -1.541462,0.37132 -4.035675,1.0221 -5.542696,1.44619 -1.507022,0.42408 -2.806022,0.77177 -2.886668,0.77264 -0.08065,8.8e-4 -0.09064,-0.25695 -0.0222,-0.57293 z"
       style="fill:#ffe680;fill-opacity:1;stroke:none;stroke-width:6.25;stroke-miterlimit:4;stroke-dasharray:none;stroke-opacity:1" />
    <path
       transform="translate(231.69261,398.91704)"
       inkscape:connector-curvature="0"
       id="path4280"
       d="m 54.129882,150.62584 c -0.416866,-1.83282 -1.12681,-6.39954 -1.332387,-8.57059 -0.101272,-1.0695 -0.227278,-2.40195 -0.280016,-2.96101 -0.05274,-0.55905 -0.07205,-1.01687 -0.04291,-1.01737 0.02913,-5e-4 1.246215,-0.40088 2.704623,-0.88974 2.859895,-0.95863 6.115277,-1.93778 6.442544,-1.93778 0.136255,0 0.165783,0.21709 0.09017,0.66291 -0.106841,0.62994 -3.773256,14.76125 -3.846287,14.82459 -0.01913,0.0166 -0.806197,0.26788 -1.749046,0.55843 l -1.714272,0.52827 -0.272414,-1.19771 z"
       style="fill:#ffe680;fill-opacity:1;stroke:none;stroke-width:6.25;stroke-miterlimit:4;stroke-dasharray:none;stroke-opacity:1" />
    <path
       transform="translate(231.69261,398.91704)"
       inkscape:connector-curvature="0"
       id="path4286"
       d="m 55.756233,156.72772 c -0.698131,-2.19294 -1.076573,-3.62526 -0.982663,-3.71917 0.09108,-0.0911 2.857434,-0.94222 2.913729,-0.89648 0.01828,0.0149 -0.307432,1.37765 -0.723804,3.02843 l -0.757041,3.00143 -0.450221,-1.41421 z"
       style="fill:#ffe680;fill-opacity:1;stroke:none;stroke-width:6.25;stroke-miterlimit:4;stroke-dasharray:none;stroke-opacity:1" />
    <path
       transform="translate(231.69261,398.91704)"
       inkscape:connector-curvature="0"
       id="path4296"
       d="m 131.44698,66.346264 c 0,-0.06334 0.80722,-1.55378 1.79383,-3.312085 5.53188,-9.858792 8.84449,-18.671832 9.51788,-25.321921 0.0743,-0.733943 1.73567,4.650606 3.17243,10.282072 0.857,3.359099 2.76586,12.123013 2.76586,12.698602 0,0.108672 -1.04063,0.275488 -2.3125,0.3707 -5.30831,0.39738 -10.18362,2.011327 -13.75,4.551869 -0.65313,0.46526 -1.1875,0.794103 -1.1875,0.730763 z"
       style="fill:#7c9e00;fill-opacity:1;stroke:none;stroke-width:6.25;stroke-miterlimit:4;stroke-dasharray:none;stroke-opacity:1" />
    <path
       sodipodi:nodetypes="sssscssscsssscsscccsss"
       transform="translate(231.69261,398.91704)"
       inkscape:connector-curvature="0"
       id="path4300"
       d="m 5.4173203,120.63617 c -1.3045678,-1.86254 -0.6923761,-2.3798 3.8690394,-3.26909 4.2815313,-0.83472 5.6637003,-2.19927 4.0103253,-3.95921 -1.315502,-1.40029 -4.594451,-3.23055 -6.831447,-3.81321 -1.132386,-0.29495 -2.1334575,-0.61085 -2.2246035,-0.70199 -0.3589016,-0.3589 0.3201519,-1.96691 0.9796717,-2.31987 0.5512803,-0.29504 1.2399326,-0.14125 3.2661941,0.72938 1.4121945,0.60678 3.4621857,1.18843 4.5555357,1.29256 1.725647,0.16435 2.09118,0.0861 2.770678,-0.59344 0.588654,-0.58866 0.724283,-1.01579 0.546928,-1.72243 -0.31227,-1.24418 -0.56645,-1.52364 -3.97969,-4.37542 -1.604249,-1.34036 -2.9168156,-2.65012 -2.9168156,-2.91058 0,-0.26046 0.2958899,-0.838973 0.6575326,-1.285583 l 0.657533,-0.812019 1.905729,0.932844 c 2.716097,1.329513 6.435551,4.519448 8.418745,7.220218 l 2.762582,3.73195 -3.012425,6.40921 c -2.601896,3.63929 -5.261798,4.78586 -5.418309,4.96235 -0.167262,0.18862 -0.505142,0.13783 -0.819664,-0.1232 -0.437328,-0.36295 -0.974382,-0.27623 -2.939299,0.4746 -3.0862848,1.17934 -5.4895515,1.23038 -6.2582407,0.13293 z"
       style="fill:#92b600;fill-opacity:1;stroke:none;stroke-width:6.25;stroke-miterlimit:4;stroke-dasharray:none;stroke-opacity:1" />
  </g>
</svg>
