<?xml version="1.0" encoding="UTF-8" standalone="no"?>
<!-- Created with Inkscape (http://www.inkscape.org/) -->

<svg
   xmlns:osb="http://www.openswatchbook.org/uri/2009/osb"
   xmlns:dc="http://purl.org/dc/elements/1.1/"
   xmlns:cc="http://creativecommons.org/ns#"
   xmlns:rdf="http://www.w3.org/1999/02/22-rdf-syntax-ns#"
   xmlns:svg="http://www.w3.org/2000/svg"
   xmlns="http://www.w3.org/2000/svg"
   xmlns:sodipodi="http://sodipodi.sourceforge.net/DTD/sodipodi-0.dtd"
   xmlns:inkscape="http://www.inkscape.org/namespaces/inkscape"
   width="758.27264mm"
   height="113.40179mm"
   viewBox="0 0 2686.7929 401.81738"
   id="svg2"
   version="1.1"
   inkscape:version="0.91 r13725"
   sodipodi:docname="paused.svg"
   inkscape:export-filename="C:\Users\david_000\Desktop\Files\number-nibbler\assets\image\title.png"
   inkscape:export-xdpi="33.162216"
   inkscape:export-ydpi="33.162216">
  <defs
     id="defs4">
    <linearGradient
       id="linearGradient5778"
       osb:paint="solid">
      <stop
         style="stop-color:#2f5bd3;stop-opacity:1;"
         offset="0"
         id="stop5780" />
    </linearGradient>
  </defs>
  <sodipodi:namedview
     id="base"
     pagecolor="#ffffff"
     bordercolor="#666666"
     borderopacity="1.0"
     inkscape:pageopacity="0.0"
     inkscape:pageshadow="2"
     inkscape:zoom="0.20905916"
     inkscape:cx="63.750438"
     inkscape:cy="299.73961"
     inkscape:document-units="px"
     inkscape:current-layer="layer1"
     showgrid="false"
     inkscape:window-width="1920"
     inkscape:window-height="1017"
     inkscape:window-x="-8"
     inkscape:window-y="-8"
     inkscape:window-maximized="1"
     fit-margin-top="0"
     fit-margin-left="0"
     fit-margin-right="0"
     fit-margin-bottom="0" />
  <metadata
     id="metadata7">
    <rdf:RDF>
      <cc:Work
         rdf:about="">
        <dc:format>image/svg+xml</dc:format>
        <dc:type
           rdf:resource="http://purl.org/dc/dcmitype/StillImage" />
        <dc:title></dc:title>
      </cc:Work>
    </rdf:RDF>
  </metadata>
  <g
     inkscape:label="Layer 1"
     inkscape:groupmode="layer"
     id="layer1"
     transform="translate(-106.79694,-76.863585)">
    <path
       style="color:#000000;font-style:normal;font-variant:normal;font-weight:normal;font-stretch:normal;font-size:medium;line-height:normal;font-family:sans-serif;text-indent:0;text-align:start;text-decoration:none;text-decoration-line:none;text-decoration-style:solid;text-decoration-color:#000000;letter-spacing:normal;word-spacing:normal;text-transform:none;direction:ltr;block-progression:tb;writing-mode:lr-tb;baseline-shift:baseline;text-anchor:start;white-space:normal;clip-rule:nonzero;display:inline;overflow:visible;visibility:visible;opacity:1;isolation:auto;mix-blend-mode:normal;color-interpolation:sRGB;color-interpolation-filters:linearRGB;solid-color:#000000;solid-opacity:1;fill:#dbac57;fill-opacity:1;fill-rule:evenodd;stroke:#3e371d;stroke-width:10.00000095;stroke-linecap:butt;stroke-linejoin:miter;stroke-miterlimit:4;stroke-dasharray:none;stroke-dashoffset:0;stroke-opacity:1;color-rendering:auto;image-rendering:auto;shape-rendering:auto;text-rendering:auto;enable-background:accumulate"
       d="m 881.60661,268.74675 -39.45508,6.57812 c 0,0 6.59542,40.09036 20.9668,80.45508 7.18568,20.18236 16.15914,40.61109 28.71093,57.2832 12.5518,16.67211 31.31832,31.35843 54.68754,29.41407 20.22821,-1.68303 33.95662,-16.90848 41.81642,-32.03125 7.8598,-15.12278 12.15908,-32.32433 15.12888,-49.02149 5.9396,-33.39431 5.8262,-65.36523 5.8262,-65.36523 l -39.99998,0.0332 c 0,0 -0.064,29.41335 -5.20711,58.32813 -2.5714,14.45739 -6.5969,28.64032 -11.24221,37.57812 -4.6452,8.9378 -7.6025,10.44778 -9.6386,10.61719 -5.1772,0.43075 -11.05672,-2.50792 -19.41606,-13.61133 -8.35933,-11.10341 -16.56172,-28.6014 -22.98437,-46.64062 -12.8453,-36.07846 -19.19336,-73.61719 -19.19336,-73.61719 z"
       id="path4142"
       inkscape:connector-curvature="0" />
    <path
       style="color:#000000;font-style:normal;font-variant:normal;font-weight:normal;font-stretch:normal;font-size:medium;line-height:normal;font-family:sans-serif;text-indent:0;text-align:start;text-decoration:none;text-decoration-line:none;text-decoration-style:solid;text-decoration-color:#000000;letter-spacing:normal;word-spacing:normal;text-transform:none;direction:ltr;block-progression:tb;writing-mode:lr-tb;baseline-shift:baseline;text-anchor:start;white-space:normal;clip-rule:nonzero;display:inline;overflow:visible;visibility:visible;opacity:1;isolation:auto;mix-blend-mode:normal;color-interpolation:sRGB;color-interpolation-filters:linearRGB;solid-color:#000000;solid-opacity:1;fill:#dbac57;fill-opacity:1;fill-rule:evenodd;stroke:#3e371d;stroke-width:10.00000095;stroke-linecap:butt;stroke-linejoin:miter;stroke-miterlimit:4;stroke-dasharray:none;stroke-dashoffset:0;stroke-opacity:1;color-rendering:auto;image-rendering:auto;shape-rendering:auto;text-rendering:auto;enable-background:accumulate"
       d="m 1575.7318,120.90808 39.9903,0.83789 -4.1621,329.93359 -24.3145,-5.78516 c 0,0 -38.7346,-9.12539 -77.1523,-25.83203 -19.2089,-8.35332 -38.5259,-18.45123 -53.9434,-31.84375 -15.4175,-13.39251 -28.5292,-32.9747 -24.7148,-55.79297 3.4849,-20.84752 20.6336,-33.75481 37.3242,-40.49804 16.6906,-6.74323 35.3703,-9.54073 53.4238,-10.96875 18.2463,-1.44328 35.7974,-1.28326 48.8789,-0.76953 z m -27.209,198.95117 c -7.4007,0.0693 -15.2942,0.35041 -23.1855,0.97461 -15.7825,1.24839 -31.4292,4.07504 -41.5937,8.18164 -10.1646,4.1066 -12.3987,7.27333 -12.8555,10.00586 -0.7862,4.70327 1.3903,10.22329 11.4941,19 10.1038,8.7767 26.5423,17.9145 43.6621,25.35937 16.3977,7.13081 33.0516,12.74149 46.1621,16.75977 l 1.0059,-79.71875 c -7.1569,-0.38182 -13.947,-0.6631 -24.6895,-0.5625 z"
       id="path4148"
       inkscape:connector-curvature="0"
       sodipodi:nodetypes="ccccsssssccssscssccs" />
    <path
       style="color:#000000;font-style:normal;font-variant:normal;font-weight:normal;font-stretch:normal;font-size:medium;line-height:normal;font-family:sans-serif;text-indent:0;text-align:start;text-decoration:none;text-decoration-line:none;text-decoration-style:solid;text-decoration-color:#000000;letter-spacing:normal;word-spacing:normal;text-transform:none;direction:ltr;block-progression:tb;writing-mode:lr-tb;baseline-shift:baseline;text-anchor:start;white-space:normal;clip-rule:nonzero;display:inline;overflow:visible;visibility:visible;opacity:1;isolation:auto;mix-blend-mode:normal;color-interpolation:sRGB;color-interpolation-filters:linearRGB;solid-color:#000000;solid-opacity:1;fill:#dbac57;fill-opacity:1;fill-rule:evenodd;stroke:#3e371d;stroke-width:10.00000095;stroke-linecap:butt;stroke-linejoin:miter;stroke-miterlimit:4;stroke-dasharray:none;stroke-dashoffset:0;stroke-opacity:1;color-rendering:auto;image-rendering:auto;shape-rendering:auto;text-rendering:auto;enable-background:accumulate"
       d="m 1315.7539,267.07423 c -17.9708,-0.95228 -31.2754,5.54883 -31.2754,5.54883 l 3.2949,-1.39063 c -57.338,18.37043 -65.2519,76.94727 -65.2519,76.94727 l -2.293,21.09179 0.3555,0.0176 c 0.01,4.35653 0.9091,28.83818 21.7031,48.94727 22.8097,22.05845 65.318,37.88541 143.4336,32.65234 l -2.6719,-39.91015 c -71.8154,4.811 -101.278,-10.20361 -112.955,-21.4961 -11.5297,-11.14995 -9.7691,-18.3173 -9.7227,-18.49804 15.1628,0.49465 35.7965,0.95454 59.5391,0.33984 19.1842,-0.49669 37.6576,-1.56335 52.4882,-4.66602 7.4154,-1.55133 13.8654,-2.61093 21.6895,-8.89648 3.912,-3.14278 8.7378,-9.1439 9.4883,-17.05274 0.7452,-7.85432 -2.6788,-14.45516 -5.9121,-18.45507 -25.6165,-35.49715 -52.2873,-50.46252 -73.9473,-54.27539 -2.7325,-0.48102 -5.3956,-0.76826 -7.9629,-0.9043 z m -5.4805,39.61133 c 1.7554,0.0334 3.9014,0.22867 6.5079,0.6875 8.0391,1.41515 20.104,6.09752 35.0312,21.90039 -9.3758,1.02011 -20.9376,1.75182 -32.9375,2.0625 -17.1042,0.44283 -34.6135,0.23607 -48.6152,-0.0899 5.396,-8.30369 14.2925,-16.97817 29.7168,-21.91992 l 1.7109,-0.54883 1.584,-0.84375 c 0,0 1.7359,-1.3482 7.0019,-1.24804 z"
       id="path4140"
       inkscape:connector-curvature="0" />
    <path
       inkscape:connector-curvature="0"
       id="path3348"
       d="m 504.58444,440.92884 -39.9903,-0.83789 4.1621,-329.93359 24.3145,5.78516 c 0,0 38.7346,9.12539 77.1523,25.83203 19.2089,8.35331 38.5259,18.45122 53.9434,31.84374 15.4175,13.39251 28.5292,32.9747 24.7148,55.79297 -3.4849,20.84752 -20.6336,33.75481 -37.3242,40.49804 -16.6906,6.74323 -35.3703,9.54073 -53.4238,10.96875 -18.2463,1.44328 -35.7974,1.28326 -48.8789,0.76953 l -4.6699,159.28126 z m 27.209,-198.95118 c 7.4007,-0.0693 15.2942,-0.35041 23.1855,-0.97461 15.7825,-1.24839 31.4292,-4.07504 41.5937,-8.18164 10.1646,-4.1066 12.3987,-7.27333 12.8555,-10.00586 0.7862,-4.70327 -1.3903,-10.22329 -11.4941,-19 -10.1038,-8.7767 -26.5423,-17.9145 -43.6621,-25.35937 -16.3977,-7.13081 -33.0516,-12.74149 -46.1621,-16.75977 l -1.0059,79.71875 c 7.1569,0.38182 13.947,0.6631 24.6895,0.5625 z"
       style="color:#000000;font-style:normal;font-variant:normal;font-weight:normal;font-stretch:normal;font-size:medium;line-height:normal;font-family:sans-serif;text-indent:0;text-align:start;text-decoration:none;text-decoration-line:none;text-decoration-style:solid;text-decoration-color:#000000;letter-spacing:normal;word-spacing:normal;text-transform:none;direction:ltr;block-progression:tb;writing-mode:lr-tb;baseline-shift:baseline;text-anchor:start;white-space:normal;clip-rule:nonzero;display:inline;overflow:visible;visibility:visible;opacity:1;isolation:auto;mix-blend-mode:normal;color-interpolation:sRGB;color-interpolation-filters:linearRGB;solid-color:#000000;solid-opacity:1;fill:#dbac57;fill-opacity:1;fill-rule:evenodd;stroke:#3e371d;stroke-width:10.00000095;stroke-linecap:butt;stroke-linejoin:miter;stroke-miterlimit:4;stroke-dasharray:none;stroke-dashoffset:0;stroke-opacity:1;color-rendering:auto;image-rendering:auto;shape-rendering:auto;text-rendering:auto;enable-background:accumulate" />
    <path
       style="fill:#dbac57;fill-opacity:1;fill-rule:evenodd;stroke:#3e371d;stroke-width:10.00000095;stroke-linecap:butt;stroke-linejoin:miter;stroke-miterlimit:4;stroke-dasharray:none;stroke-opacity:1"
       d="m 772.92809,281.40556 c 0,0 -163.58272,7.41719 -136.92046,99.5949 14.2015,49.09795 82.67659,48.97285 129.23097,38.0427 l 7.29365,22.36158 49.78624,-5.35894 z m -33.19442,48.17348 17.40853,55.86382 c -161.9283,-2.42894 -17.40853,-55.86382 -17.40853,-55.86382 z"
       id="path3350"
       inkscape:connector-curvature="0"
       sodipodi:nodetypes="csccccccc" />
    <path
       style="fill:#dbac57;fill-opacity:1;fill-rule:evenodd;stroke:#3e371d;stroke-width:10.00000095;stroke-linecap:butt;stroke-linejoin:miter;stroke-miterlimit:4;stroke-dasharray:none;stroke-opacity:1"
       d="m 1154.1208,296.766 c 0,0 -173.48928,1.83373 4.4832,70.98384 44.2724,17.20176 94.4554,122.23681 -110.2114,55.66628 L 1059.9,398.90667 c 0,0 147.0578,37.88279 75.5411,-5.75207 -22.2206,-13.55758 -209.9626,-94.147 11.2081,-118.80453 z"
       id="path4155"
       inkscape:connector-curvature="0"
       sodipodi:nodetypes="csccscc" />
  </g>
</svg>
