<?xml version="1.0" encoding="UTF-8" standalone="no"?>
<!-- Created with Inkscape (http://www.inkscape.org/) -->

<svg
   xmlns:osb="http://www.openswatchbook.org/uri/2009/osb"
   xmlns:dc="http://purl.org/dc/elements/1.1/"
   xmlns:cc="http://creativecommons.org/ns#"
   xmlns:rdf="http://www.w3.org/1999/02/22-rdf-syntax-ns#"
   xmlns:svg="http://www.w3.org/2000/svg"
   xmlns="http://www.w3.org/2000/svg"
   xmlns:sodipodi="http://sodipodi.sourceforge.net/DTD/sodipodi-0.dtd"
   xmlns:inkscape="http://www.inkscape.org/namespaces/inkscape"
   width="758.27264mm"
   height="113.40179mm"
   viewBox="0 0 2686.7929 401.81738"
   id="svg2"
   version="1.1"
   inkscape:version="0.91 r13725"
   sodipodi:docname="title.svg"
   inkscape:export-filename="C:\Users\david_000\Desktop\Files\number-nibbler\assets\image\title.png"
   inkscape:export-xdpi="33.162216"
   inkscape:export-ydpi="33.162216">
  <defs
     id="defs4">
    <linearGradient
       id="linearGradient5778"
       osb:paint="solid">
      <stop
         style="stop-color:#2f5bd3;stop-opacity:1;"
         offset="0"
         id="stop5780" />
    </linearGradient>
  </defs>
  <sodipodi:namedview
     id="base"
     pagecolor="#ffffff"
     bordercolor="#666666"
     borderopacity="1.0"
     inkscape:pageopacity="0.0"
     inkscape:pageshadow="2"
     inkscape:zoom="0.41811832"
     inkscape:cx="1391.1745"
     inkscape:cy="88.173963"
     inkscape:document-units="px"
     inkscape:current-layer="layer1"
     showgrid="false"
     inkscape:window-width="1920"
     inkscape:window-height="1017"
     inkscape:window-x="-8"
     inkscape:window-y="-8"
     inkscape:window-maximized="1"
     fit-margin-top="0"
     fit-margin-left="0"
     fit-margin-right="0"
     fit-margin-bottom="0" />
  <metadata
     id="metadata7">
    <rdf:RDF>
      <cc:Work
         rdf:about="">
        <dc:format>image/svg+xml</dc:format>
        <dc:type
           rdf:resource="http://purl.org/dc/dcmitype/StillImage" />
        <dc:title />
      </cc:Work>
    </rdf:RDF>
  </metadata>
  <g
     inkscape:label="Layer 1"
     inkscape:groupmode="layer"
     id="layer1"
     transform="translate(-106.79694,-76.863585)">
    <path
       style="color:#000000;font-style:normal;font-variant:normal;font-weight:normal;font-stretch:normal;font-size:medium;line-height:normal;font-family:sans-serif;text-indent:0;text-align:start;text-decoration:none;text-decoration-line:none;text-decoration-style:solid;text-decoration-color:#000000;letter-spacing:normal;word-spacing:normal;text-transform:none;direction:ltr;block-progression:tb;writing-mode:lr-tb;baseline-shift:baseline;text-anchor:start;white-space:normal;clip-rule:nonzero;display:inline;overflow:visible;visibility:visible;opacity:1;isolation:auto;mix-blend-mode:normal;color-interpolation:sRGB;color-interpolation-filters:linearRGB;solid-color:#000000;solid-opacity:1;fill:#6195a7;fill-opacity:1;fill-rule:evenodd;stroke:#1d3e3e;stroke-width:10.00000095;stroke-linecap:butt;stroke-linejoin:miter;stroke-miterlimit:4;stroke-dasharray:none;stroke-dashoffset:0;stroke-opacity:1;color-rendering:auto;image-rendering:auto;shape-rendering:auto;text-rendering:auto;enable-background:accumulate"
       d="m 381.74805,280.70508 -39.45508,6.57812 c 0,0 6.59542,40.09036 20.9668,80.45508 7.18568,20.18236 16.15914,40.61109 28.71093,57.2832 12.5518,16.67211 31.31832,31.35843 54.6875,29.41407 20.22819,-1.68303 33.95662,-16.90848 41.81641,-32.03125 7.85979,-15.12278 12.1591,-32.32433 15.12891,-49.02149 5.9396,-33.39431 5.82617,-65.36523 5.82617,-65.36523 l -40,0.0332 c 0,0 -0.0642,29.41335 -5.20703,58.32813 -2.57144,14.45739 -6.59693,28.64032 -11.24219,37.57812 -4.64526,8.9378 -7.60251,10.44778 -9.63867,10.61719 -5.17716,0.43075 -11.05668,-2.50792 -19.41602,-13.61133 -8.35933,-11.10341 -16.56172,-28.6014 -22.98437,-46.64062 -12.8453,-36.07846 -19.19336,-73.61719 -19.19336,-73.61719 z"
       id="path4142"
       inkscape:connector-curvature="0" />
    <path
       style="color:#000000;font-style:normal;font-variant:normal;font-weight:normal;font-stretch:normal;font-size:medium;line-height:normal;font-family:sans-serif;text-indent:0;text-align:start;text-decoration:none;text-decoration-line:none;text-decoration-style:solid;text-decoration-color:#000000;letter-spacing:normal;word-spacing:normal;text-transform:none;direction:ltr;block-progression:tb;writing-mode:lr-tb;baseline-shift:baseline;text-anchor:start;white-space:normal;clip-rule:nonzero;display:inline;overflow:visible;visibility:visible;opacity:1;isolation:auto;mix-blend-mode:normal;color-interpolation:sRGB;color-interpolation-filters:linearRGB;solid-color:#000000;solid-opacity:1;fill:#6195a7;fill-opacity:1;fill-rule:evenodd;stroke:#1d3e3e;stroke-width:10.00000095;stroke-linecap:butt;stroke-linejoin:miter;stroke-miterlimit:4;stroke-dasharray:none;stroke-dashoffset:0;stroke-opacity:1;color-rendering:auto;image-rendering:auto;shape-rendering:auto;text-rendering:auto;enable-background:accumulate"
       d="m 597.63281,297.54883 c -19.15848,1.25423 -32.48727,14.94975 -40.58203,28.61914 -8.09476,13.66939 -13.00069,29.25247 -16.64844,44.36328 -7.2955,30.22162 -8.9375,59.21094 -8.9375,59.21094 l 39.92774,2.38281 c 0,0 1.66089,-26.38419 7.89453,-52.20703 3.11682,-12.91142 7.53338,-25.51976 12.18164,-33.36914 4.64826,-7.84938 7.48359,-9.00124 8.77734,-9.08594 0.7736,-0.0506 3.27832,0.4021 8.51758,7.07813 5.23926,6.67602 10.93333,17.91819 15.44336,29.6289 9.02006,23.42142 13.83789,47.98047 13.83789,47.98047 l 39.125,0.72266 c 0,0 5.70518,-24.29661 15.5625,-47.31836 4.92866,-11.51088 11.02169,-22.51481 16.4961,-28.98828 5.47441,-6.47347 8.01572,-6.84816 8.7832,-6.77149 4.57218,0.45679 8.49243,2.58921 13.27734,8.34375 4.78491,5.75454 9.43029,14.96484 12.64063,25.5586 6.42068,21.18751 6.37806,48.33249 2.73633,59.71289 l 38.09765,12.1914 c 7.78687,-24.33388 6.12296,-54.87511 -2.55273,-83.5039 -4.33785,-14.3144 -10.6101,-28.04319 -20.16406,-39.53321 -9.55397,-11.49002 -23.39492,-20.90748 -40.0586,-22.57226 -18.55862,-1.8541 -33.46922,9.11604 -43.30273,20.74414 -8.27471,9.78481 -14.5305,21.14979 -19.79297,32.60351 -4.855,-11.70579 -10.70976,-23.36101 -18.66211,-33.49414 -9.41512,-11.99702 -23.95933,-23.51705 -42.59766,-22.29687 z"
       id="path4144"
       inkscape:connector-curvature="0" />
    <path
       style="color:#000000;font-style:normal;font-variant:normal;font-weight:normal;font-stretch:normal;font-size:medium;line-height:normal;font-family:sans-serif;text-indent:0;text-align:start;text-decoration:none;text-decoration-line:none;text-decoration-style:solid;text-decoration-color:#000000;letter-spacing:normal;word-spacing:normal;text-transform:none;direction:ltr;block-progression:tb;writing-mode:lr-tb;baseline-shift:baseline;text-anchor:start;white-space:normal;clip-rule:nonzero;display:inline;overflow:visible;visibility:visible;opacity:1;isolation:auto;mix-blend-mode:normal;color-interpolation:sRGB;color-interpolation-filters:linearRGB;solid-color:#000000;solid-opacity:1;fill:#6195a7;fill-opacity:1;fill-rule:evenodd;stroke:#1d3e3e;stroke-width:10.00000095;stroke-linecap:butt;stroke-linejoin:miter;stroke-miterlimit:4;stroke-dasharray:none;stroke-dashoffset:0;stroke-opacity:1;color-rendering:auto;image-rendering:auto;shape-rendering:auto;text-rendering:auto;enable-background:accumulate"
       d="m 844.20117,125.69141 -39.99023,0.83789 4.16211,329.93359 24.31445,-5.78516 c 0,0 38.7346,-9.12539 77.15234,-25.83203 19.20888,-8.35332 38.52583,-18.45123 53.94336,-31.84375 15.41754,-13.39251 28.52922,-32.9747 24.71485,-55.79297 -3.48494,-20.84752 -20.63361,-33.75481 -37.32422,-40.49804 -16.69062,-6.74323 -35.37037,-9.54073 -53.42383,-10.96875 -18.24634,-1.44328 -35.79743,-1.28326 -48.87891,-0.76953 l -4.66992,-159.28125 z m 27.20899,198.95117 c 7.40079,0.0693 15.29427,0.35041 23.18554,0.97461 15.78255,1.24839 31.42922,4.07504 41.59375,8.18164 10.16453,4.1066 12.39869,7.27333 12.85547,10.00586 0.78622,4.70327 -1.39035,10.22329 -11.49414,19 -10.10379,8.7767 -26.54226,17.9145 -43.66211,25.35937 -16.39765,7.13081 -33.05156,12.74149 -46.16211,16.75977 l -1.00586,-79.71875 c 7.15687,-0.38182 13.947,-0.6631 24.68946,-0.5625 z"
       id="path4148"
       inkscape:connector-curvature="0" />
    <path
       style="color:#000000;font-style:normal;font-variant:normal;font-weight:normal;font-stretch:normal;font-size:medium;line-height:normal;font-family:sans-serif;text-indent:0;text-align:start;text-decoration:none;text-decoration-line:none;text-decoration-style:solid;text-decoration-color:#000000;letter-spacing:normal;word-spacing:normal;text-transform:none;direction:ltr;block-progression:tb;writing-mode:lr-tb;baseline-shift:baseline;text-anchor:start;white-space:normal;clip-rule:nonzero;display:inline;overflow:visible;visibility:visible;opacity:1;isolation:auto;mix-blend-mode:normal;color-interpolation:sRGB;color-interpolation-filters:linearRGB;solid-color:#000000;solid-opacity:1;fill:#6195a7;fill-opacity:1;fill-rule:evenodd;stroke:#1d3e3e;stroke-width:10.00000095;stroke-linecap:butt;stroke-linejoin:miter;stroke-miterlimit:4;stroke-dasharray:none;stroke-dashoffset:0;stroke-opacity:1;color-rendering:auto;image-rendering:auto;shape-rendering:auto;text-rendering:auto;enable-background:accumulate"
       d="m 1105.2871,267.07422 c -17.9708,-0.95228 -31.2754,5.54883 -31.2754,5.54883 l 3.2949,-1.39063 c -57.338,18.37043 -65.2519,76.94727 -65.2519,76.94727 l -2.293,21.09179 0.3555,0.0176 c 0.01,4.35653 0.9091,28.83818 21.7031,48.94727 22.8097,22.05845 65.318,37.88541 143.4336,32.65234 l -2.6719,-39.91015 c -71.8154,4.811 -101.278,-10.20361 -112.955,-21.4961 -11.5297,-11.14995 -9.7691,-18.3173 -9.7227,-18.49804 15.1628,0.49465 35.7965,0.95454 59.5391,0.33984 19.1842,-0.49669 37.6576,-1.56335 52.4882,-4.66602 7.4154,-1.55133 13.8654,-2.61093 21.6895,-8.89648 3.912,-3.14278 8.7378,-9.1439 9.4883,-17.05274 0.7452,-7.85432 -2.6788,-14.45516 -5.9121,-18.45507 -25.6165,-35.49715 -52.2873,-50.46252 -73.9473,-54.27539 -2.7325,-0.48102 -5.3956,-0.76826 -7.9629,-0.9043 z m -5.4805,39.61133 c 1.7554,0.0334 3.9014,0.22867 6.5079,0.6875 8.0391,1.41515 20.104,6.09752 35.0312,21.90039 -9.3758,1.02011 -20.9376,1.75182 -32.9375,2.0625 -17.1042,0.44283 -34.6135,0.23607 -48.6152,-0.0899 5.396,-8.30369 14.2925,-16.97817 29.7168,-21.91992 l 1.7109,-0.54883 1.584,-0.84375 c 0,0 1.7359,-1.3482 7.0019,-1.24804 z"
       id="path4140"
       inkscape:connector-curvature="0" />
    <path
       style="color:#000000;font-style:normal;font-variant:normal;font-weight:normal;font-stretch:normal;font-size:medium;line-height:normal;font-family:sans-serif;text-indent:0;text-align:start;text-decoration:none;text-decoration-line:none;text-decoration-style:solid;text-decoration-color:#000000;letter-spacing:normal;word-spacing:normal;text-transform:none;direction:ltr;block-progression:tb;writing-mode:lr-tb;baseline-shift:baseline;text-anchor:start;white-space:normal;clip-rule:nonzero;display:inline;overflow:visible;visibility:visible;opacity:1;isolation:auto;mix-blend-mode:normal;color-interpolation:sRGB;color-interpolation-filters:linearRGB;solid-color:#000000;solid-opacity:1;fill:#6195a7;fill-opacity:1;fill-rule:evenodd;stroke:#1d3e3e;stroke-width:10.00000095;stroke-linecap:butt;stroke-linejoin:miter;stroke-miterlimit:4;stroke-dasharray:none;stroke-dashoffset:0;stroke-opacity:1;color-rendering:auto;image-rendering:auto;shape-rendering:auto;text-rendering:auto;enable-background:accumulate"
       d="m 1260.1387,273.11719 c -3.9073,0.0538 -8.1258,0.81327 -12.6973,2.89648 -9.1431,4.16642 -15.6738,15.46588 -16.457,24.38672 -1.6932,19.28698 -1.0977,55.93046 -0.3282,89.6582 0.7696,33.72775 1.8985,63.33204 1.8985,63.33203 l 39.9707,-1.52343 c 0,0 -1.1175,-29.35253 -1.8789,-62.72266 -0.5937,-26.01802 -0.834,-54.80924 -0.3692,-72.70508 5.1394,2.21793 11.5199,5.37811 17.9668,9.19532 21.2257,12.56758 43.1621,29.72851 43.1621,29.72851 l 24.7305,-31.43945 c 0,0 -23.0368,-18.2144 -47.5137,-32.70703 -12.2384,-7.24632 -24.3507,-13.82271 -37.6542,-16.76563 -3.3259,-0.73573 -6.9229,-1.3878 -10.8301,-1.33398 z"
       id="path4143"
       inkscape:connector-curvature="0" />
    <path
       style="color:#000000;font-style:normal;font-variant:normal;font-weight:normal;font-stretch:normal;font-size:medium;line-height:normal;font-family:sans-serif;text-indent:0;text-align:start;text-decoration:none;text-decoration-line:none;text-decoration-style:solid;text-decoration-color:#000000;letter-spacing:normal;word-spacing:normal;text-transform:none;direction:ltr;block-progression:tb;writing-mode:lr-tb;baseline-shift:baseline;text-anchor:start;white-space:normal;clip-rule:nonzero;display:inline;overflow:visible;visibility:visible;opacity:1;isolation:auto;mix-blend-mode:normal;color-interpolation:sRGB;color-interpolation-filters:linearRGB;solid-color:#000000;solid-opacity:1;fill:#6195a7;fill-opacity:1;fill-rule:evenodd;stroke:#1d3e3e;stroke-width:10.00000095;stroke-linecap:butt;stroke-linejoin:miter;stroke-miterlimit:4;stroke-dasharray:none;stroke-dashoffset:0;stroke-opacity:1;color-rendering:auto;image-rendering:auto;shape-rendering:auto;text-rendering:auto;enable-background:accumulate"
       d="m 1733.7684,87.96698 -40,0.11133 0.6367,228.73438 -133.2597,-219.96485 -8.6758,332.24219 39.9863,1.04297 5.1172,-195.95898 137.2324,226.52148 -1.0371,-372.72852 z"
       id="path4145"
       inkscape:connector-curvature="0" />
    <path
       style="color:#000000;font-style:normal;font-variant:normal;font-weight:normal;font-stretch:normal;font-size:medium;line-height:normal;font-family:sans-serif;text-indent:0;text-align:start;text-decoration:none;text-decoration-line:none;text-decoration-style:solid;text-decoration-color:#000000;letter-spacing:normal;word-spacing:normal;text-transform:none;direction:ltr;block-progression:tb;writing-mode:lr-tb;baseline-shift:baseline;text-anchor:start;white-space:normal;clip-rule:nonzero;display:inline;overflow:visible;visibility:visible;opacity:1;isolation:auto;mix-blend-mode:normal;color-interpolation:sRGB;color-interpolation-filters:linearRGB;solid-color:#000000;solid-opacity:1;fill:#6195a7;fill-opacity:1;fill-rule:evenodd;stroke:#1d3e3e;stroke-width:10.00000095;stroke-linecap:butt;stroke-linejoin:miter;stroke-miterlimit:4;stroke-dasharray:none;stroke-dashoffset:0;stroke-opacity:1;color-rendering:auto;image-rendering:auto;shape-rendering:auto;text-rendering:auto;enable-background:accumulate"
       d="m 1820.3973,203.6037 -39.1777,8.06055 7.7773,37.80469 39.1797,-8.0625 -7.7793,-37.80274 z m 6.1914,64.63086 -39.9707,1.5293 6.209,162.26562 39.9707,-1.52929 -6.209,-162.26563 z"
       id="path4149"
       inkscape:connector-curvature="0" />
    <path
       style="color:#000000;font-style:normal;font-variant:normal;font-weight:normal;font-stretch:normal;font-size:medium;line-height:normal;font-family:sans-serif;text-indent:0;text-align:start;text-decoration:none;text-decoration-line:none;text-decoration-style:solid;text-decoration-color:#000000;letter-spacing:normal;word-spacing:normal;text-transform:none;direction:ltr;block-progression:tb;writing-mode:lr-tb;baseline-shift:baseline;text-anchor:start;white-space:normal;clip-rule:nonzero;display:inline;overflow:visible;visibility:visible;opacity:1;isolation:auto;mix-blend-mode:normal;color-interpolation:sRGB;color-interpolation-filters:linearRGB;solid-color:#000000;solid-opacity:1;fill:#6195a7;fill-opacity:1;fill-rule:evenodd;stroke:#1d3e3e;stroke-width:10.00000095;stroke-linecap:butt;stroke-linejoin:miter;stroke-miterlimit:4;stroke-dasharray:none;stroke-dashoffset:0;stroke-opacity:1;color-rendering:auto;image-rendering:auto;shape-rendering:auto;text-rendering:auto;enable-background:accumulate"
       d="m 1927.1493,102.24824 -39.9883,0.83789 4.1621,329.93359 24.3125,-5.78516 c 0,0 38.7366,-9.12539 77.1543,-25.83203 19.2089,-8.35332 38.5239,-18.45123 53.9414,-31.84375 15.4175,-13.39251 28.5292,-32.9747 24.7148,-55.79297 -3.4849,-20.84752 -20.6316,-33.75482 -37.3222,-40.49804 -16.6906,-6.74323 -35.3723,-9.54269 -53.4258,-10.97071 -18.2463,-1.44327 -35.7955,-1.28326 -48.877,-0.76953 l -4.6718,-159.27929 z m 27.209,198.95117 c 7.4008,0.0693 15.2942,0.35041 23.1855,0.97461 15.7825,1.24839 31.4312,4.07308 41.5957,8.17968 10.1645,4.10661 12.3987,7.27529 12.8555,10.00782 0.7862,4.70326 -1.3923,10.22134 -11.4961,18.99804 -10.1038,8.77671 -26.5403,17.91646 -43.6602,25.36133 -16.3968,7.13046 -33.0518,12.73956 -46.1621,16.75781 l -1.0058,-79.71679 c 7.1568,-0.38183 13.945,-0.6631 24.6875,-0.5625 z"
       id="path4151"
       inkscape:connector-curvature="0" />
    <path
       style="color:#000000;font-style:normal;font-variant:normal;font-weight:normal;font-stretch:normal;font-size:medium;line-height:normal;font-family:sans-serif;text-indent:0;text-align:start;text-decoration:none;text-decoration-line:none;text-decoration-style:solid;text-decoration-color:#000000;letter-spacing:normal;word-spacing:normal;text-transform:none;direction:ltr;block-progression:tb;writing-mode:lr-tb;baseline-shift:baseline;text-anchor:start;white-space:normal;clip-rule:nonzero;display:inline;overflow:visible;visibility:visible;opacity:1;isolation:auto;mix-blend-mode:normal;color-interpolation:sRGB;color-interpolation-filters:linearRGB;solid-color:#000000;solid-opacity:1;fill:#6195a7;fill-opacity:1;fill-rule:evenodd;stroke:#1d3e3e;stroke-width:10.00000095;stroke-linecap:butt;stroke-linejoin:miter;stroke-miterlimit:4;stroke-dasharray:none;stroke-dashoffset:0;stroke-opacity:1;color-rendering:auto;image-rendering:auto;shape-rendering:auto;text-rendering:auto;enable-background:accumulate"
       d="m 2147.3641,98.20722 -39.9902,0.83789 4.1621,329.93359 24.3125,-5.78515 c 0,0 38.7365,-9.12539 77.1543,-25.83203 19.2089,-8.35332 38.5239,-18.45124 53.9414,-31.84375 15.4175,-13.39252 28.5292,-32.97471 24.7148,-55.79297 -3.4849,-20.84753 -20.6316,-33.75482 -37.3222,-40.49805 -16.6906,-6.74323 -35.3724,-9.54073 -53.4258,-10.96875 -18.2463,-1.44328 -35.7955,-1.28326 -48.877,-0.76953 l -4.6699,-159.28125 z m 27.209,198.95117 c 7.4008,0.0693 15.2923,0.35041 23.1836,0.97461 15.7825,1.24839 31.4312,4.07504 41.5957,8.18164 10.1645,4.1066 12.3987,7.27333 12.8555,10.00586 0.7862,4.70327 -1.3904,10.22134 -11.4942,18.99805 -10.1038,8.7767 -26.5422,17.91646 -43.6621,25.36133 -16.3977,7.13081 -33.0515,12.74148 -46.1621,16.75976 l -1.0059,-79.71875 c 7.1569,-0.38182 13.947,-0.6631 24.6895,-0.5625 z"
       id="path4153"
       inkscape:connector-curvature="0" />
    <path
       style="color:#000000;font-style:normal;font-variant:normal;font-weight:normal;font-stretch:normal;font-size:medium;line-height:normal;font-family:sans-serif;text-indent:0;text-align:start;text-decoration:none;text-decoration-line:none;text-decoration-style:solid;text-decoration-color:#000000;letter-spacing:normal;word-spacing:normal;text-transform:none;direction:ltr;block-progression:tb;writing-mode:lr-tb;baseline-shift:baseline;text-anchor:start;white-space:normal;clip-rule:nonzero;display:inline;overflow:visible;visibility:visible;opacity:1;isolation:auto;mix-blend-mode:normal;color-interpolation:sRGB;color-interpolation-filters:linearRGB;solid-color:#000000;solid-opacity:1;fill:#6195a7;fill-opacity:1;fill-rule:evenodd;stroke:#1d3e3e;stroke-width:10.00000095;stroke-linecap:butt;stroke-linejoin:miter;stroke-miterlimit:4;stroke-dasharray:none;stroke-dashoffset:0;stroke-opacity:1;color-rendering:auto;image-rendering:auto;shape-rendering:auto;text-rendering:auto;enable-background:accumulate"
       d="m 293.22461,85.146484 -40,0.111328 0.63672,228.734378 -133.25781,-219.962893 -8.67774,332.240233 39.98633,1.04492 5.11914,-195.95898 L 294.26172,457.875 293.22461,85.146484 Z"
       id="path4156"
       inkscape:connector-curvature="0" />
    <path
       style="color:#000000;font-style:normal;font-variant:normal;font-weight:normal;font-stretch:normal;font-size:medium;line-height:normal;font-family:sans-serif;text-indent:0;text-align:start;text-decoration:none;text-decoration-line:none;text-decoration-style:solid;text-decoration-color:#000000;letter-spacing:normal;word-spacing:normal;text-transform:none;direction:ltr;block-progression:tb;writing-mode:lr-tb;baseline-shift:baseline;text-anchor:start;white-space:normal;clip-rule:nonzero;display:inline;overflow:visible;visibility:visible;opacity:1;isolation:auto;mix-blend-mode:normal;color-interpolation:sRGB;color-interpolation-filters:linearRGB;solid-color:#000000;solid-opacity:1;fill:#6195a7;fill-opacity:1;fill-rule:evenodd;stroke:#1d3e3e;stroke-width:10.00000095;stroke-linecap:butt;stroke-linejoin:miter;stroke-miterlimit:4;stroke-dasharray:none;stroke-dashoffset:0;stroke-opacity:1;color-rendering:auto;image-rendering:auto;shape-rendering:auto;text-rendering:auto;enable-background:accumulate"
       d="m 2375.7352,84.94745 -39.9883,0.97657 8.0821,331.33007 39.9882,-0.97656 -8.082,-331.33008 z"
       id="path4158"
       inkscape:connector-curvature="0" />
    <path
       style="color:#000000;font-style:normal;font-variant:normal;font-weight:normal;font-stretch:normal;font-size:medium;line-height:normal;font-family:sans-serif;text-indent:0;text-align:start;text-decoration:none;text-decoration-line:none;text-decoration-style:solid;text-decoration-color:#000000;letter-spacing:normal;word-spacing:normal;text-transform:none;direction:ltr;block-progression:tb;writing-mode:lr-tb;baseline-shift:baseline;text-anchor:start;white-space:normal;clip-rule:nonzero;display:inline;overflow:visible;visibility:visible;opacity:1;isolation:auto;mix-blend-mode:normal;color-interpolation:sRGB;color-interpolation-filters:linearRGB;solid-color:#000000;solid-opacity:1;fill:#6195a7;fill-opacity:1;fill-rule:evenodd;stroke:#1d3e3e;stroke-width:10.00000095;stroke-linecap:butt;stroke-linejoin:miter;stroke-miterlimit:4;stroke-dasharray:none;stroke-dashoffset:0;stroke-opacity:1;color-rendering:auto;image-rendering:auto;shape-rendering:auto;text-rendering:auto;enable-background:accumulate"
       d="m 2529.6688,217.36542 c -17.9708,-0.95227 -31.2754,5.55078 -31.2754,5.55078 l 3.2929,-1.39062 c -57.338,18.37043 -65.2499,76.94531 -65.2499,76.94531 l -2.2949,21.09375 0.3554,0.0176 c 0.01,4.35646 0.9111,28.83814 21.7051,48.94726 22.8097,22.05846 65.3179,37.88541 143.4336,32.65235 l -2.6739,-39.91211 c -71.8153,4.811 -101.276,-10.20166 -112.9531,-21.49414 -11.5294,-11.14972 -9.771,-18.31702 -9.7246,-18.49805 15.1627,0.49466 35.7962,0.95261 59.5391,0.33789 19.1842,-0.49669 37.6595,-1.56335 52.4902,-4.66601 7.4153,-1.55134 13.8634,-2.60898 21.6875,-8.89453 3.912,-3.14278 8.7379,-9.14585 9.4883,-17.05469 0.7429,-7.8295 -2.6547,-14.40838 -5.8789,-18.41211 -25.6263,-35.52927 -52.3114,-50.50193 -73.9805,-54.31641 -2.7325,-0.48101 -5.3937,-0.77021 -7.9609,-0.90625 z m -5.4825,39.61328 c 1.7554,0.0334 3.9033,0.22672 6.5098,0.68555 8.0393,1.41519 20.1036,6.09861 35.0313,21.90234 -9.376,1.02016 -20.9394,1.75182 -32.9395,2.0625 -17.1042,0.44284 -34.6135,0.23412 -48.6152,-0.0918 5.3962,-8.30328 14.2953,-16.97845 29.7187,-21.91992 l 1.709,-0.54688 1.584,-0.84375 c 0,0 1.7359,-1.34821 7.0019,-1.24805 z"
       id="path4160"
       inkscape:connector-curvature="0" />
    <path
       style="color:#000000;font-style:normal;font-variant:normal;font-weight:normal;font-stretch:normal;font-size:medium;line-height:normal;font-family:sans-serif;text-indent:0;text-align:start;text-decoration:none;text-decoration-line:none;text-decoration-style:solid;text-decoration-color:#000000;letter-spacing:normal;word-spacing:normal;text-transform:none;direction:ltr;block-progression:tb;writing-mode:lr-tb;baseline-shift:baseline;text-anchor:start;white-space:normal;clip-rule:nonzero;display:inline;overflow:visible;visibility:visible;opacity:1;isolation:auto;mix-blend-mode:normal;color-interpolation:sRGB;color-interpolation-filters:linearRGB;solid-color:#000000;solid-opacity:1;fill:#6195a7;fill-opacity:1;fill-rule:evenodd;stroke:#1d3e3e;stroke-width:10.00000095;stroke-linecap:butt;stroke-linejoin:miter;stroke-miterlimit:4;stroke-dasharray:none;stroke-dashoffset:0;stroke-opacity:1;color-rendering:auto;image-rendering:auto;shape-rendering:auto;text-rendering:auto;enable-background:accumulate"
       d="m 2690.5809,223.41034 c -3.9073,0.0538 -8.1258,0.81133 -12.6973,2.89454 -9.1431,4.16642 -15.6758,15.46783 -16.459,24.38867 -1.6932,19.28698 -1.0957,55.9285 -0.3261,89.65625 0.7695,33.72774 1.8964,63.33203 1.8964,63.33203 l 39.9707,-1.52149 c 0,0 -1.1174,-29.35252 -1.8789,-62.72265 -0.5937,-26.0193 -0.834,-54.81338 -0.3691,-72.70899 5.1397,2.21794 11.5208,5.38142 17.9687,9.19922 21.2257,12.56758 43.1622,29.72657 43.1622,29.72656 l 24.7285,-31.43945 c 0,0 -23.0349,-18.2144 -47.5117,-32.70703 -12.2385,-7.24632 -24.3527,-13.82271 -37.6563,-16.76562 -3.3259,-0.73573 -6.9209,-1.38586 -10.8281,-1.33204 z"
       id="path4162"
       inkscape:connector-curvature="0" />
  </g>
</svg>
